<?xml version="1.0" standalone="no"?>
<!DOCTYPE svg PUBLIC "-//W3C//DTD SVG 1.1//EN" "http://www.w3.org/Graphics/SVG/1.1/DTD/svg11.dtd" >
<svg>
<metadata>
Created by FontForge 20090914 at Fri Sep 27 12:03:54 2013
 By www-data
&#194;&#169;1991,1993 Tilde Ltd. AG Fonts collection.
</metadata>
<defs>
<font id="AGOpusHighResolution-Roman" horiz-adv-x="556" >
  <font-face 
    font-family="AGOpusHighResolution"
    font-weight="400"
    font-stretch="normal"
    units-per-em="1000"
    panose-1="0 0 0 0 0 0 0 0 0 0"
    ascent="800"
    descent="-200"
    x-height="473"
    cap-height="683"
    bbox="-48 -259.001 1099 911.001"
    underline-thickness="38"
    underline-position="-122"
    unicode-range="U+0020-U+2122"
  />
<missing-glyph horiz-adv-x="800" 
d="M50 0v800h700v-800h-700zM700 50v700h-600v-700h600z" />
    <glyph glyph-name=".notdef" horiz-adv-x="800" 
d="M50 0v800h700v-800h-700zM700 50v700h-600v-700h600z" />
    <glyph glyph-name="space" unicode=" " horiz-adv-x="278" 
 />
    <glyph glyph-name="exclam" unicode="!" horiz-adv-x="333" 
d="M222 591l-36 -423.001h-20l-37 421l-2 42c0 14.667 4.66699 28.334 14 41.001s21 19 35 19c16 0 28.167 -6.66699 36.5 -20s12.5 -28.333 12.5 -45zM176 -6.00098c-15.333 0 -28.665 5.33301 -39.998 16s-17 24 -17 40c0 14.667 5.66699 27.667 17 39
s24.666 17 39.999 17s28.666 -5.33301 39.999 -16s17 -24 17 -40c0 -15.333 -5.5 -28.5 -16.5 -39.5s-24.5 -16.5 -40.5 -16.5z" />
    <glyph glyph-name="quotedbl" unicode="&#x22;" horiz-adv-x="333" 
d="M118 616v-169.001c0.666992 -4 1 -10 1 -18c0 -13.333 -2.66699 -23.666 -8 -30.999s-14 -11 -26 -11c-23.333 0 -35 14 -35 42c0 7.33301 0.333008 13.333 1 18v169c0 30 2 50.833 6 62.5s13.333 17.5 28 17.5c14 0 23 -5.83301 27 -17.5s6 -32.5 6 -62.5zM281 615.999
v-169.001c0.666992 -4 1 -10 1 -18c0 -13.333 -2.66699 -23.666 -8 -30.999s-14 -11 -26 -11c-23.333 0 -35 14 -35 42c0 7.33301 0.333008 13.333 1 18v169c0 30 2 50.833 6 62.5s13.333 17.5 28 17.5c14 0 23 -5.83301 27 -17.5s6 -32.5 6 -62.5z" />
    <glyph glyph-name="numbersign" unicode="#" 
d="M499 272v-56h-109l-31 -216h-58l31 216h-134l-33 -216h-58l33 216h-107v56h116l21 133h-110v56h118l31 203h58l-31 -203h133l30 203h58l-30 -203h97v-56h-105l-20 -133h100zM361 405h-133l-21 -133h134z" />
    <glyph glyph-name="dollar" unicode="$" 
d="M268 291l-1.99902 -256.001c32 7.33301 57.167 22.5 75.5 45.5s27.5 52.167 27.5 87.5c0 32.667 -11.667 60.334 -35 83.001c-8 7.33301 -17.833 14.5 -29.5 21.5s-23.834 13.167 -36.501 18.5zM229.001 400.999v230c-27.333 -6 -49.5 -18.833 -66.5 -38.5
s-25.5 -44.167 -25.5 -73.5c0 -24 6 -45.5 18 -64.5s29 -33.5 51 -43.5zM226.001 28.999l2.00098 280l-70 29c-29.333 12 -53 32 -71 60s-27 58 -27 90c0 52 16.333 94.333 49 127c29.333 29.333 69.333 48 120 56v47v30l8 -3c3.33301 -0.666992 8.33301 -1 15 -1
c8 0 14.667 1.33301 20 4v-74h7c28 0 53.833 -3.5 77.5 -10.5s45.167 -18.833 64.5 -35.5c-3.33301 -8.66699 -8 -21.5 -14 -38.5s-10 -30.5 -12 -40.5h-11c-12 26.667 -26.667 47 -44 61c-19.333 16 -42 24 -68 24l-3 -251l32 -13l45 -20
c13.333 -6 25.833 -12.833 37.5 -20.5s20.167 -14.5 25.5 -20.5s11.666 -15.333 18.999 -28c5.33301 -9.33301 10 -21.333 14 -36s6 -27.667 6 -39c0 -57.333 -16.833 -104.5 -50.5 -141.5s-77.167 -60.167 -130.5 -69.5l2 -111l-9 2c-6.66699 1.33301 -11.667 2 -15 2
c-7.33301 0 -14.666 -1.33301 -21.999 -4l3 82v23c-4 -1.33301 -11 -2 -21 -2c-27.333 0 -56.833 4.83301 -88.5 14.5s-56.167 22.834 -73.5 39.501c5.33301 18.667 9 32.667 11 42c4.66699 18 7 32.667 7 44h11c21.333 -32.667 42.333 -56.334 63 -71.001
c25.333 -18 55.666 -27 90.999 -27z" />
    <glyph glyph-name="percent" unicode="%" horiz-adv-x="889" 
d="M626 692l7 1l9 3l-372 -729l-10 3l-16 1l-13 -2l-8 -2l372 729l11 -3zM365 510c0 -45.333 -15.5 -84.833 -46.5 -118.5s-69.167 -50.5 -114.5 -50.5c-48 0 -86.5 15.167 -115.5 45.5s-43.5 69.833 -43.5 118.5c0 48 16 87.667 48 119s71.667 47 119 47
c46 0 83 -15.333 111 -46s42 -69 42 -115zM837 157c0 -30.667 -7.33301 -59 -22 -85s-35.334 -47 -62.001 -63c-9.33301 -5.33301 -21.5 -10 -36.5 -14s-28.5 -6 -40.5 -6c-47.333 0 -85.666 15.333 -114.999 46s-44 69.667 -44 117c0 48 16 87.667 48 119s71.667 47 119 47
c46 0 83 -15.333 111 -46s42 -69 42 -115zM589 139c0 -34 5.66602 -62 16.999 -84c14.667 -28.667 37.667 -43 69 -43c32.667 0 56.667 17.667 72 53c11.333 26 17 57.667 17 95c0 48.667 -7.16699 83 -21.5 103s-34.166 30 -59.499 30c-36 0 -61.667 -17.667 -77 -53
c-11.333 -26 -17 -59.667 -17 -101zM116.999 492c0 -34 5.66699 -62 17 -84c14.667 -28.667 37.667 -43 69 -43c32.667 0 56.667 17.667 72 53c11.333 26 17 57.667 17 95c0 38 -4.33301 67 -13 87c-13.333 30.667 -36 46 -68 46c-36 0 -61.667 -17.667 -77 -53
c-11.333 -26 -17 -59.667 -17 -101z" />
    <glyph glyph-name="ampersand" unicode="&#x26;" horiz-adv-x="722" 
d="M319 406c31.333 22.667 54.998 44.333 70.998 65c20.667 27.333 31 57 31 89c0 24 -7.33301 44 -22 60s-34 24 -58 24c-12.667 0 -24.667 -3 -36 -9s-20.666 -13.5 -27.999 -22.5s-12.666 -18.833 -15.999 -29.5s-5 -21.667 -5 -33c0 -17.333 4.5 -37.333 13.5 -60
s25.5 -50.667 49.5 -84zM246.998 363.999l6.00098 3c-22.667 34 -37.667 58.333 -45 73c-14.667 29.333 -22 57 -22 83c0 19.333 5 39.666 15 60.999s22.667 38.666 38 51.999c12 10.667 27.333 19.167 46 25.5s37 9.5 55 9.5c20.667 0 37.5 -1.83301 50.5 -5.5
s27.5 -11.5 43.5 -23.5c25.333 -19.333 38 -44.666 38 -75.999c0 -37.333 -14.667 -72.666 -44 -105.999c-19.333 -22 -50 -47 -92 -75l123 -156l53 -60l5 6c1.33301 1.33301 7.33301 10.666 18 27.999c6 8 10 13.667 12 17l25 39c12 18.667 20.333 32.334 25 41.001l25 47
l9 19l3 -7l14 -18l21 -16c-45.333 -69.333 -90.333 -130.333 -135 -183l125 -144c-17.333 1.33301 -30 2.33301 -38 3s-15.667 1 -23 1l-57 -3l-30 43c-8 11.333 -19 25 -33 41c-58.667 -64.667 -130.667 -97 -216 -97c-26.667 0 -51.834 3.5 -75.501 10.5
s-44.5 18.833 -62.5 35.5c-34.667 32.667 -52 73 -52 121c0 22.667 5.83301 46.167 17.5 70.5s25.834 45 42.501 62s34.667 31.833 54 44.5c15.333 10 35.666 21.333 60.999 34zM269.999 342.999l-7.99805 -5.00098c-34.667 -22 -60.334 -44 -77.001 -66
c-21.333 -28 -32 -60 -32 -96c0 -41.333 16 -77 48 -107c15.333 -15.333 30 -25.666 44 -30.999s32.333 -8 55 -8c29.333 0 56.166 5.5 80.499 16.5s47.833 27.5 70.5 49.5l7 8l-96 119.5z" />
    <glyph glyph-name="quotesingle" unicode="'" horiz-adv-x="278" 
d="M172 616v-169.001c0.666992 -4 1 -10 1 -18c0 -13.333 -2.66699 -23.666 -8 -30.999s-14 -11 -26 -11c-23.333 0 -35 14 -35 42c0 7.33301 0.333008 13.333 1 18v169c0 30 2 50.833 6 62.5s13.333 17.5 28 17.5c14 0 23 -5.83301 27 -17.5s6 -32.5 6 -62.5z" />
    <glyph glyph-name="parenleft" unicode="(" horiz-adv-x="278" 
d="M222 688l20.001 -17.999c-42 -56 -72.333 -119.667 -91 -191c-16 -61.333 -24 -132 -24 -212c0 -70 8.66699 -137.667 26 -203c8 -30 19 -59 33 -87c10 -20 26.333 -47.333 49 -82c2 -3.33301 4.33301 -6.66602 7 -9.99902l-20 -19
c-56.667 63.333 -97.334 127.166 -122.001 191.499s-37 139.166 -37 224.499c0 158.667 53 294 159 406z" />
    <glyph glyph-name="parenright" unicode=")" horiz-adv-x="278" 
d="M57 -134l-20.002 18.999l7 10c22 33.333 39 62.333 51 87c15.333 30.667 26.833 62.334 34.5 95.001s13.334 65.167 17.001 97.5s5.5 67.5 5.5 105.5c0 75.333 -8.33301 143.666 -25 204.999c-18.667 69.333 -48.667 131 -90 185l20 18
c52 -54.667 91.5 -116.667 118.5 -186s40.5 -142.666 40.5 -219.999c0 -86 -12.167 -161 -36.5 -225s-65.166 -127.667 -122.499 -191z" />
    <glyph glyph-name="asterisk" unicode="*" horiz-adv-x="444" 
d="M82 624l126 -90l-14 154c5.33301 -0.666992 10.166 -1 14.499 -1h14.5c12.667 0 22 0.666992 28 2l-15 -157l125 93c8 -18 18 -35 30 -51l-141 -64l140 -62c-5.33301 -8 -10 -15.5 -14 -22.5s-8.66699 -16.167 -14 -27.5l-127 89l17 -155
c-8 0.666992 -15 1.16699 -21 1.5s-11 0.5 -15 0.5c-5.33301 0 -12.666 -0.666992 -21.999 -2l14 152l-122 -89l-23 39l-6 10l140 65l-144 64c13.333 15.333 23 32.333 29 51z" />
    <glyph glyph-name="plus" unicode="+" horiz-adv-x="606" 
d="M271 286v219h64v-219h220v-64h-220v-222h-64v222h-220v64h220z" />
    <glyph glyph-name="comma" unicode="," horiz-adv-x="278" 
d="M63 -168l-18.001 7l70 222c6 18 10.667 30 14 36c8.66699 14 19.334 21 32.001 21c24.667 0 38.667 -12.333 42 -37c0 -10 -3.33301 -20.5 -10 -31.5s-11 -18.5 -13 -22.5z" />
    <glyph glyph-name="hyphen" unicode="-" horiz-adv-x="333" 
d="M41 204v62h250v-62h-250z" />
    <glyph glyph-name="period" unicode="." horiz-adv-x="278" 
d="M148 -6c-15.333 0 -28.665 5.33301 -39.998 16s-17 24 -17 40c0 14.667 5.66699 27.667 17 39s24.666 17 39.999 17s28.666 -5.33301 39.999 -16s17 -24 17 -40c0 -15.333 -5.5 -28.5 -16.5 -39.5s-24.5 -16.5 -40.5 -16.5z" />
    <glyph glyph-name="slash" unicode="/" horiz-adv-x="278" 
d="M327 748l-325 -853l-19 3l-10 -1l-21 -3l317 854l9 -1l16 -2l14 1z" />
    <glyph glyph-name="zero" unicode="0" 
d="M282 637c-32.667 0 -61.668 -10.668 -87.001 -32.001c-10.667 -9.33301 -19.167 -18.666 -25.5 -27.999s-12.833 -22 -19.5 -38c-3.33301 -7.33301 -5.83301 -14.833 -7.5 -22.5l-5.5 -26.5l-6 -47c-2 -18.667 -3.66699 -37.167 -5 -55.5s-2 -36.833 -2 -55.5
c0 -86.667 7 -152.667 21 -198c24 -78 69 -117 135 -117c14.667 0 30.834 4 48.501 12s31.167 17.667 40.5 29c10.667 11.333 19.167 23.833 25.5 37.5s11.5 29.167 15.5 46.5c6.66699 29.333 11.5 59.833 14.5 91.5s4.5 65.167 4.5 100.5c0 50.667 -2.66699 93 -8 127
c-8 50 -21.667 89.667 -41 119c-10.667 16 -25 29.5 -43 40.5s-36.333 16.5 -55 16.5zM41.999 310.999c0 100 15.332 180.002 45.999 240.002c40 78.667 105.333 118 196 118c65.333 0 117 -22 155 -66c33.333 -38.667 55 -92 65 -160
c2.66699 -17.333 4.33398 -34.333 5.00098 -51s1 -36 1 -58c0 -35.333 -1.83301 -67 -5.5 -95s-10.167 -57.333 -19.5 -88c-6 -18.667 -14 -36.834 -24 -54.501s-22.167 -34 -36.5 -49s-27.333 -25.833 -39 -32.5s-27.667 -13.334 -48 -20.001s-40.166 -10 -59.499 -10
c-44.667 0 -83.334 9 -116.001 27s-58.667 46.333 -78 85c-14 28 -24.5 61.667 -31.5 101s-10.5 77 -10.5 113z" />
    <glyph glyph-name="one" unicode="1" 
d="M242 217v384l-7 3l-111 -60c-4.66699 5.33301 -9.33398 11 -14.001 17c-1.33301 2 -3 4 -5 6c-5.33301 4.66699 -9.66602 8.66699 -12.999 12l10 6l24 10l111 49l85 41l9 -6l-2 -23l-4 -75l-6 -228l6 -332v-21l-45 3l-49 -3l3 22z" />
    <glyph glyph-name="two" unicode="2" 
d="M438 0l-151 2.99902l-113 2l-58 -2l-44 -3h-28v15l42 40c7.33301 6.66699 20.666 20.667 39.999 42l60 62c49.333 52 79.333 84.333 90 97c30 36 52.333 71 67 105c17.333 40 26 83.667 26 131c0 21.333 -2.16699 40.333 -6.5 57s-12.5 32.334 -24.5 47.001
c-21.333 25.333 -50 38 -86 38c-31.333 0 -58 -9.83301 -80 -29.5s-36 -45.167 -42 -76.5l-7 -3l-35 49c40 63.333 97.667 95 173 95c60.667 0 108.334 -13.667 143.001 -41c38 -30 57 -74.667 57 -134c0 -38.667 -10 -76.667 -30 -114c-16 -29.333 -40.333 -61.333 -73 -96
l-121 -125l-59 -66l-17 -19l3 -7l152 2l157 7l-1 -7l-3 -32v-15.5c0 -4.33301 1.33301 -11.5 4 -21.5h-35z" />
    <glyph glyph-name="three" unicode="3" 
d="M72 84l6.00195 4.00098c18.667 -20.667 39.334 -36.667 62.001 -48s47 -17 73 -17c50 0 89.333 16.333 118 49s43 74.667 43 126c0 43.333 -12 76.666 -36 99.999s-58 35 -102 35c-5.33301 0 -14.5 -0.666992 -27.5 -2s-19.833 -2 -20.5 -2l2 23l-2 18l38 -2
c23.333 0 42.666 3.33301 57.999 10s28.333 19.334 39 38.001c6.66699 12 12.167 27.833 16.5 47.5s6.5 37.834 6.5 54.501s-1.83301 32.167 -5.5 46.5s-10.167 27.166 -19.5 38.499c-20.667 26 -47.667 39 -81 39c-24 0 -46.5 -7.33301 -67.5 -22
s-36.167 -33.334 -45.5 -56.001l-7 -3l-23 54l11 10c37.333 33.333 82.666 50 135.999 50c50 0 92.667 -11 128 -33c41.333 -26 62 -62.667 62 -110c0 -40.667 -11.333 -76.334 -34 -107.001s-53.667 -51.667 -93 -63
c-4.66699 -2.66699 -7.33398 -5.33398 -8.00098 -8.00098c47.333 0 86.833 -13.667 118.5 -41s47.5 -65 47.5 -113c0 -28 -4.83301 -53 -14.5 -75s-24.5 -43.333 -44.5 -64c-16.667 -16.667 -36.667 -30.667 -60 -42c-20 -9.33301 -43.333 -17 -70 -23
c-8.66699 -1.33301 -18.167 -2.5 -28.5 -3.5s-22.5 -1.5 -36.5 -1.5c-28 0 -54.167 2.5 -78.5 7.5s-48.5 13.167 -72.5 24.5c3.33301 8.66699 6 19.334 8 32.001s3.33301 22.334 4 29.001z" />
    <glyph glyph-name="four" unicode="4" 
d="M416 664l-3.00098 -82l-3 -129v-210l95 5c-2.66699 -10.667 -4 -23 -4 -37v-14c1.33301 -6.66699 2 -11.667 2 -15l-96 4l5 -180l1 -7l-43 2l-45 -2l2 23l4 81v83l-310 -3v16l125 176l102 144l100 145c5.33301 -0.666992 11 -1.16699 17 -1.5s10.667 -0.5 14 -0.5h23
c6.66699 1.33301 11.334 2 14.001 2zM103.999 248l4 -6h225v322l-5 4l-120 -167z" />
    <glyph glyph-name="five" unicode="5" 
d="M59 31l-0.000976562 7.99805l15 58l7 1c14.667 -24 35 -42.167 61 -54.5s54 -18.5 84 -18.5c24 0 45.833 5.66699 65.5 17s37.167 27 52.5 47c12 16 20.167 34 24.5 54s6.5 42.333 6.5 67c0 22 -2.66699 42.333 -8 61s-14.333 35 -27 49c-28 28.667 -64 43 -108 43
c-16 0 -31.167 -2.16699 -45.5 -6.5s-29.166 -10.833 -44.499 -19.5l-9 -7l-11 7c2.66699 20 4.66699 36.833 6 50.5s2 26.5 2 38.5v63v79l-6 99l6 3c25.333 -3.33301 50.833 -5.5 76.5 -6.5s57.5 -1.5 95.5 -1.5h66c9.33301 0 25.166 0.666992 47.499 2s34.166 2 35.499 2
l4 -5c-2 -9.33301 -3.66699 -18.5 -5 -27.5s-2 -18.167 -2 -27.5c0 -8 0.333008 -14 1 -18c-17.333 2 -33.5 3.66699 -48.5 5s-30.5 2 -46.5 2l-177 6l-6 -84l-3 -136c14.667 8 31.334 14 50.001 18s37 6 55 6c54.667 0 100.834 -17.5 138.501 -52.5
s56.5 -79.833 56.5 -134.5c0 -10.667 -0.833008 -20.667 -2.5 -30s-4.5 -20.333 -8.5 -33c-6.66699 -24.667 -18 -47.667 -34 -69s-35.333 -39.666 -58 -54.999c-20 -13.333 -42.5 -23.166 -67.5 -29.499s-51.167 -9.5 -78.5 -9.5c-28 0 -54.333 2.5 -79 7.5
s-48.667 13.5 -72 25.5z" />
    <glyph glyph-name="six" unicode="6" 
d="M398 669l10.9961 -34c-14 4.66699 -29.667 7 -47 7c-72.667 0 -128.667 -39 -168 -117c-30.667 -61.333 -46 -132.666 -46 -213.999c38 59.333 92 89 162 89c26.667 0 52.834 -4.33301 78.501 -13s46.834 -21.667 63.501 -39s29.334 -37.833 38.001 -61.5
s13 -47.834 13 -72.501c0 -64.667 -20.167 -117.834 -60.5 -159.501s-92.833 -62.5 -157.5 -62.5c-78.667 0 -137.667 28.667 -177 86c-33.333 48.667 -50 114.667 -50 198c0 51.333 6.16699 101.5 18.5 150.5s31.5 91.5 57.5 127.5c12.667 18.667 27.5 35.834 44.5 51.501
s35.5 28.5 55.5 38.5l26 11.5c8.66699 3.66699 17 6.16699 25 7.5c22.667 6 45.334 9 68.001 9h21.5c7 0 14.833 -1 23.5 -3zM288.996 362c-46.667 0 -83.334 -19.667 -110.001 -59c-10.667 -15.333 -18.5 -33.333 -23.5 -54s-7.5 -41.667 -7.5 -63
c0 -43.333 12.5 -81.333 37.5 -114s58.5 -49 100.5 -49c22.667 0 42.667 6 60 18s32 28.667 44 50c8.66699 15.333 14.834 33 18.501 53s5.5 41 5.5 63c0 25.333 -2.16699 45.833 -6.5 61.5s-13.833 32.5 -28.5 50.5c-22 28.667 -52 43 -90 43z" />
    <glyph glyph-name="seven" unicode="7" 
d="M79 8l280 460l67 115l-5 5l-180 -3l-161 -7c0 4.66699 0.666992 12 2 22s2 17.333 2 22s-0.666992 12 -2 22s-2 17.333 -2 22l30 -3l88 -4l218 -4h91v-14l-262 -459l-96 -182c-13.333 2 -26.333 3 -39 3c-10.667 0 -21 -1 -31 -3v8z" />
    <glyph glyph-name="eight" unicode="8" 
d="M199 370l-0.000976562 7.00195l-8 3c-30 9.33301 -54.5 26.166 -73.5 50.499s-28.5 51.833 -28.5 82.5c0 48.667 20 88 60 118c36.667 27.333 80.334 41 131.001 41c28 0 52.167 -2.5 72.5 -7.5s40.5 -15.167 60.5 -30.5c36.667 -28 55 -65 55 -111
c0 -32.667 -10.667 -62.334 -32 -89.001s-48 -44.334 -80 -53.001v-7c8 -1.33301 12.667 -2.66602 14 -3.99902c38.667 -10 69.834 -29.333 93.501 -58s35.5 -63 35.5 -103c0 -66 -20.833 -118.833 -62.5 -158.5s-95.834 -59.5 -162.501 -59.5c-66 0 -118.333 16 -157 48
c-42 34.667 -63 84.667 -63 150c0 42.667 13.667 81 41 115s62 56 104 66zM278.999 641.002c-16.667 0 -32.332 -4.00098 -46.999 -12.001s-26.667 -18.833 -36 -32.5s-15.5 -27.667 -18.5 -42s-4.5 -31.5 -4.5 -51.5c0 -33.333 11 -62 33 -86
c9.33301 -10.667 20 -18.167 32 -22.5s26 -6.5 42 -6.5c17.333 0 33.166 4 47.499 12s26.5 19.333 36.5 34c6 8 11 18.833 15 32.5s6 31.834 6 54.501c0 34 -9.33301 62.5 -28 85.5s-44.667 34.5 -78 34.5zM279.001 356.001c-42.667 0 -76.167 -16.5 -100.5 -49.5
s-36.5 -71.5 -36.5 -115.5c0 -48 10.667 -87 32 -117c24 -34 59.333 -51 106 -51c43.333 0 77 18.667 101 56c20.667 32.667 31 72 31 118s-10.333 83 -31 111c-23.333 32 -57.333 48 -102 48z" />
    <glyph glyph-name="nine" unicode="9" 
d="M102 59l4.99414 -4.00391c26.667 -23.333 59 -35 97 -35c6.66699 0 14 1 22 3s14 3.33301 18 4c26 8 50.333 26.333 73 55c19.333 24 34.333 50.5 45 79.5s18.834 60.5 24.501 94.5s8.5 66.667 8.5 98c-16 -28.667 -38.5 -51 -67.5 -67s-60.167 -24 -93.5 -24
c-24.667 0 -50.167 5.33301 -76.5 16s-47.666 24.834 -63.999 42.501s-28.5 38.334 -36.5 62.001s-12 48.167 -12 73.5c0 28.667 5.66699 57.334 17 86.001s27 52 47 70c22.667 20 47.334 34.667 74.001 44s55.334 14 86.001 14c36 0 68.5 -7.16699 97.5 -21.5
s53.167 -36.166 72.5 -65.499c10.667 -16.667 18.834 -32 24.501 -46s10.167 -31.333 13.5 -52c6 -33.333 9 -67.333 9 -102c0 -47.333 -5.83301 -93.666 -17.5 -138.999s-29.667 -87.5 -54 -126.5s-55.666 -70.667 -93.999 -95s-79.833 -36.5 -124.5 -36.5
c-8.66699 0 -20 1.16699 -34 3.5s-24.667 4.16602 -32 5.49902c-5.33301 2.66699 -9.66602 4 -12.999 4c-3.33301 15.333 -5.33301 24 -6 26s-4 9.66699 -10 23c-2.66699 2.66699 -2.33398 6 0.999023 10zM393.994 464.996c0 20 -2.50098 41.167 -7.50098 63.5
s-12.5 41.333 -22.5 57s-23.833 28.5 -41.5 38.5s-36.5 15 -56.5 15c-45.333 0 -79.666 -19 -102.999 -57c-20 -32 -30 -72 -30 -120c0 -44.667 9.33301 -81 28 -109c22 -33.333 54.333 -50 97 -50c44.667 0 79.667 19.667 105 59c20.667 32.667 31 67 31 103z" />
    <glyph glyph-name="colon" unicode=":" horiz-adv-x="278" 
d="M176 -6c-15.333 0 -28.665 5.33301 -39.998 16s-17 24 -17 40c0 14.667 5.66699 27.667 17 39s24.666 17 39.999 17s28.666 -5.33301 39.999 -16s17 -24 17 -40c0 -15.333 -5.5 -28.5 -16.5 -39.5s-24.5 -16.5 -40.5 -16.5zM176.001 350
c-15.333 0 -28.665 5.33301 -39.998 16s-17 24 -17 40c0 15.333 5.66699 28.666 17 39.999s24.666 17 39.999 17s28.666 -5.66699 39.999 -17s17 -24.666 17 -39.999s-5.5 -28.5 -16.5 -39.5s-24.5 -16.5 -40.5 -16.5z" />
    <glyph glyph-name="semicolon" unicode=";" horiz-adv-x="278" 
d="M91 -168l-17.001 7l70 222c6 18 10.667 30 14 36c8.66699 14 19.334 21 32.001 21c10.667 0 20.167 -3.5 28.5 -10.5s12.5 -15.833 12.5 -26.5c0 -8.66699 -2.33301 -18 -7 -28c-1.33301 -2.66699 -6.33301 -11 -15 -25zM181.999 350
c-15.333 0 -28.666 5.33398 -39.999 16.001s-17 24 -17 40c0 15.333 5.66699 28.666 17 39.999s24.666 17 39.999 17s28.5 -5.5 39.5 -16.5s16.5 -24.5 16.5 -40.5s-5.33301 -29.333 -16 -40s-24 -16 -40 -16z" />
    <glyph glyph-name="less" unicode="&#x3c;" horiz-adv-x="606" 
d="M558 55v-62l-509 234v54l509 234v-62l-428 -199z" />
    <glyph glyph-name="equal" unicode="=" horiz-adv-x="606" 
d="M555 383v-64h-504v64h504zM555 189v-64h-504v64h504z" />
    <glyph glyph-name="greater" unicode="&#x3e;" horiz-adv-x="606" 
d="M48 55l428 199l-428 199v62l509 -234v-54l-509 -234v62z" />
    <glyph glyph-name="question" unicode="?" horiz-adv-x="389" 
d="M292 423l-63.002 -69.001c-16.667 -19.333 -28 -33.333 -34 -42c-11.333 -18 -17 -35.333 -17 -52c0 -17.333 5.33301 -31.666 16 -42.999s23.667 -17 39 -17c6.66699 0 14.334 1.66699 23.001 5l7 3l6 -4l-12 -28l-14 -4c-37.333 0 -68 10.333 -92 31
s-36 49.334 -36 86.001c0 18.667 3.5 36.667 10.5 54s22.833 38.666 47.5 63.999l60 64c16.667 17.333 29 32.333 37 45c11.333 18 17 36.333 17 55c0 25.333 -9 45.5 -27 60.5s-40 22.5 -66 22.5c-15.333 0 -30.833 -4.33301 -46.5 -13s-28.167 -19.334 -37.5 -32.001
l-6 50c17.333 10 33.833 17.667 49.5 23s31.834 8 48.501 8c22.667 0 42 -2.16699 58 -6.5s31.667 -13.166 47 -26.499c30 -24.667 45 -57 45 -97c0 -28.667 -4.5 -52.5 -13.5 -71.5s-24.5 -40.833 -46.5 -65.5zM205.998 -6.00098c-15.333 0 -28.665 5.33301 -39.998 16
s-17 24 -17 40c0 14.667 5.66699 27.667 17 39s24.666 17 39.999 17s28.666 -5.33301 39.999 -16s17 -24 17 -40c0 -15.333 -5.5 -28.5 -16.5 -39.5s-24.5 -16.5 -40.5 -16.5z" />
    <glyph glyph-name="at" unicode="@" horiz-adv-x="800" 
d="M684 175l61.0029 0.000976562c-30.667 -58 -74.834 -104.167 -132.501 -138.5s-119.834 -51.5 -186.501 -51.5c-104.667 0 -193.5 32.667 -266.5 98s-109.5 148.666 -109.5 249.999c0 102 35 188 105 258s157.667 105 263 105c38.667 0 77.167 -6.33301 115.5 -19
s73.5 -30.334 105.5 -53.001c74 -54 111 -124.667 111 -212c0 -37.333 -5.83301 -72.166 -17.5 -104.499s-30.5 -61.5 -56.5 -87.5c-22 -22 -46 -40.333 -72 -55c-32 -18 -61 -27 -87 -27c-24 0 -42.667 8.16699 -56 24.5s-20 36.166 -20 59.499
c-21.333 -27.333 -39 -46 -53 -56c-20.667 -15.333 -43.667 -23 -69 -23c-36 0 -67.333 14 -94 42c-14 14.667 -24.167 30.167 -30.5 46.5s-9.5 35.166 -9.5 56.499c0 54.667 22 105.667 66 153s94 71 150 71c24.667 0 44.5 -6.5 59.5 -19.5s24.833 -31.833 29.5 -56.5
l18 66h88l-77 -278c-3.33301 -13.333 -5 -21.333 -5 -24c0 -9.33301 2.33301 -17.166 7 -23.499s11.667 -9.5 21 -9.5c16 0 35 9 57 27c18 14.667 33 30.667 45 48c17.333 23.333 30.5 49.5 39.5 78.5s13.5 58.833 13.5 89.5c0 33.333 -6.83301 64 -20.5 92
s-33.834 53 -60.501 75c-56 46 -119.667 69 -191 69c-92 0 -168.333 -28.667 -229 -86s-91 -130.666 -91 -219.999c0 -90 31 -163.333 93 -220s139.667 -85 233 -85c52.667 0 100.5 12.333 143.5 37s79.5 59 109.5 103zM335.003 170.001c39.333 0 73 31.666 101 94.999
c23.333 52.667 35 101.334 35 146.001c0 18.667 -3.66699 34.667 -11 48c-10 17.333 -24 26 -42 26c-40 0 -75 -29 -105 -87c-26 -50 -39 -96.667 -39 -140c0 -24 4 -43.333 12 -58c10.667 -20 27 -30 49 -30z" />
    <glyph glyph-name="A" unicode="A" horiz-adv-x="667" 
d="M328 697h20.001l284 -661l17 -36l-51 3h-27c-8.66699 0 -18 -1 -28 -3l-9 29l-45 120l-49 118l-120 3l-134 -3c-38.667 -96.667 -60.334 -151.667 -65.001 -165c-9.33301 -26 -20.333 -60 -33 -102c-4 1.33301 -9.66699 2 -17 2s-13.333 0.333008 -18 1l-37 -3z
M325.001 309h100l-111 256l-109 -255z" />
    <glyph glyph-name="B" unicode="B" horiz-adv-x="611" 
d="M170 683l76.999 1.99902h44c14 0 27.667 -0.166992 41 -0.5s29.5 -2 48.5 -5s35.333 -6.66699 49 -11s26.834 -12.166 39.501 -23.499c30 -26 45 -59.667 45 -101c0 -44.667 -14.833 -82.5 -44.5 -113.5s-67.5 -52.167 -113.5 -63.5l12 -1l48.5 -11
c17 -4 30.833 -9.33301 41.5 -16c14.667 -9.33301 25 -16.333 31 -21c9.33301 -7.33301 17.833 -16.833 25.5 -28.5s13.667 -24.5 18 -38.5s6.5 -27.667 6.5 -41c0 -71.333 -30 -127.666 -90 -168.999c-26 -18 -59.667 -29.667 -101 -35c-25.333 -3.33301 -62 -5 -110 -5
h-120h-25c0 16.667 1.16699 39.667 3.5 69s3.5 48.666 3.5 57.999l2 340l-2 120l-4 97c8 0 20.333 -0.333008 37 -1s29 -1 37 -1zM182.999 566.999l-0.000976562 -99.9961l-1 -86h43c28 0 51 1.16699 69 3.5s36.667 8.16602 56 17.499c51.333 24 77 64.333 77 121
c0 21.333 -5 42.166 -15 62.499s-23.333 34.666 -40 42.999s-34.167 13.666 -52.5 15.999s-39.166 3.5 -62.499 3.5l-72 -3c0 -8.66699 -0.333008 -21.667 -1 -39s-1 -30.333 -1 -39zM181.998 344.003l1.99805 -300.999c14 0 32 -0.833008 54 -2.5s35.333 -2.5 40 -2.5
c25.333 0 47.5 3.16699 66.5 9.5s36.333 17.333 52 33s27.834 33 36.501 52s13 39.167 13 60.5c0 54.667 -21 96 -63 124c-17.333 11.333 -38.166 18.666 -62.499 21.999s-51.5 5 -81.5 5h-57z" />
    <glyph glyph-name="C" unicode="C" horiz-adv-x="667" 
d="M609 573l-7 -1c-4 3.33301 -7.66699 7 -11 11c-24 22.667 -52 40.834 -84 54.501s-64 20.5 -96 20.5c-88 0 -157 -31.667 -207 -95c-46 -58.667 -69 -133.334 -69 -224.001c0 -18.667 1.66699 -39.667 5 -63s7.33301 -44 12 -62
c9.33301 -34.667 25.833 -66.834 49.5 -96.501s53.167 -52.667 88.5 -69s73.333 -24.5 114 -24.5c34.667 0 69.334 6.33301 104.001 19s66.667 30.334 96 53.001c2.66699 2 5.16699 3.66699 7.5 5s5.16602 2 8.49902 2l-9 -61c-30 -20 -63.5 -34.333 -100.5 -43
s-77.167 -13 -120.5 -13c-109.333 0 -195.333 32 -258 96s-94 151 -94 261c0 50.667 10 99.667 30 147s48 86.333 84 117s76.333 53.167 121 67.5s92 21.5 142 21.5c35.333 0 71.5 -4 108.5 -12s72.5 -19.333 106.5 -34c-4 -10 -8 -22.5 -12 -37.5s-7 -28.167 -9 -39.5z" />
    <glyph glyph-name="D" unicode="D" horiz-adv-x="778" 
d="M184 161l3.99902 -116.002c17.333 0 34 -0.666992 50 -2s35.333 -2.66602 58 -3.99902c24 0 43.5 0.333008 58.5 1s34.167 2.83398 57.5 6.50098s46.333 11.167 69 22.5c28.667 14 51.167 29.5 67.5 46.5s31.5 40.833 45.5 71.5c12.667 25.333 21.5 51.5 26.5 78.5
s7.5 57.167 7.5 90.5c0 46 -5.33301 87.333 -16 124c-13.333 46 -35.166 81.667 -65.499 107s-66.833 42 -109.5 50c-28 5.33301 -69 8 -123 8c-14 0 -37.667 -0.666992 -71 -2s-51 -2 -53 -2c0 -22.667 -1 -57 -3 -103s-3 -80.667 -3 -104v-273zM294.999 0.998047
l-122.999 1.99902l-75 -3l5 98l2 464l-3 123h25h201c74.667 0 125.334 -2 152.001 -6c53.333 -8 98.5 -27 135.5 -57s64.333 -67 82 -111s26.5 -90.667 26.5 -140c0 -31.333 -2.16699 -60.666 -6.5 -87.999s-12.333 -53.666 -24 -78.999s-25.334 -48.5 -41.001 -69.5
s-33.834 -40.5 -54.501 -58.5c-37.333 -32.667 -85 -54.334 -143 -65.001c-36 -6.66699 -89 -10 -159 -10z" />
    <glyph glyph-name="E" unicode="E" horiz-adv-x="500" 
d="M197 681h144c11.333 0 30.833 0.666992 58.5 2s42.5 2 44.5 2l-3 -30v-13.5c0 -5 1 -10.5 3 -16.5l-90 7l-100 3h-73l-5 -150v-45l1 -57h101l54 3l89 5c-2 -6.66699 -3.33301 -11.667 -4 -15s-1 -8.33301 -1 -15c0 -8 0.666992 -14.5 2 -19.5s2 -8.5 2 -10.5l-46.5 4
c-15 1.33301 -28.833 2 -41.5 2l-56 2h-43h-56l-1 -80v-125l2 -87c20.667 0 55 0.666992 103 2s73.667 2 77 2c18.667 0 32.5 0.5 41.5 1.5s25.5 3.5 49.5 7.5c-2 -10 -3 -20 -3 -30c0 -8 0.666992 -14.5 2 -19.5s2 -8.5 2 -10.5l-69 2l-123 2l-87 -1l-84 -2l6 126l3 342
l-2 88l-5 128z" />
    <glyph glyph-name="F" unicode="F" horiz-adv-x="500" 
d="M197 681h144c11.333 0 30.833 0.666992 58.5 2s42.5 2 44.5 2l-3 -30v-13.5c0 -5 1 -10.5 3 -16.5l-90 7l-100 3h-73l-5 -150v-45l1 -57h101l54 3l89 5c-2 -6.66699 -3.33301 -11.667 -4 -15s-1 -8.33301 -1 -15c0 -8 0.666992 -14.5 2 -19.5s2 -8.5 2 -10.5l-46.5 4
c-15 1.33301 -28.833 2 -41.5 2l-56 2h-43h-56l-1 -80l2 -258h-65h-26l6 126l3 342l-2 88l-5 128z" />
    <glyph glyph-name="G" unicode="G" horiz-adv-x="778" 
d="M671 560l-11.001 0.000976562c-27.333 31.333 -61 55.666 -101 72.999s-81.333 26 -124 26c-88 0 -160.333 -31.333 -217 -94c-25.333 -28.667 -43.666 -62.167 -54.999 -100.5s-17 -78.833 -17 -121.5c0 -44.667 6.66699 -88 20 -130s33.833 -77.833 61.5 -107.5
s59.834 -50.834 96.501 -63.501s77.334 -19 122.001 -19c29.333 0 57 2.5 83 7.5s51.333 13.5 76 25.5v108v54l-3 92l48 -4c7.33301 0 15.166 0.166992 23.499 0.5s15.166 2.5 20.499 6.5l-1 -30l-3 -100v-119v-34c-88.667 -30.667 -179.334 -46 -272.001 -46
c-68.667 0 -134 14.667 -196 44c-31.333 14.667 -57.5 32.334 -78.5 53.001s-40.5 47 -58.5 79c-13.333 25.333 -22.666 52.5 -27.999 81.5s-8 61.167 -8 96.5c0 114 37 202.667 111 266c70 60 163 90 279 90c45.333 0 87 -3.66699 125 -11s77 -20 117 -38l13 -8
c-2.66699 -7.33301 -6.16699 -18.333 -10.5 -33z" />
    <glyph glyph-name="H" unicode="H" horiz-adv-x="778" 
d="M596 347h-416.995l3 -217l4 -108l2 -22c-6.66699 -0 -15.5 0.833008 -26.5 2.5s-17.5 2.5 -19.5 2.5c-7.33301 0 -17.333 -0.833008 -30 -2.5s-20.334 -2.5 -23.001 -2.5l2 22l4 79l4 234v38v206l-5 106c5.33301 0 13.666 -0.666992 24.999 -2s20 -2 26 -2l46 3l-2 -27
l-4 -91l-5 -174l129 -3l286 3v212l-5 81c5.33301 0 13.666 -0.666992 24.999 -2s20 -2 26 -2l47 3l-3 -27l-9 -326l3 -225l5 -106c-6 -0 -14.333 0.833008 -25 2.5s-17.334 2.5 -20.001 2.5c-7.33301 0 -17.333 -0.833008 -30 -2.5s-20.334 -2.5 -23.001 -2.5l2 22l5 103z
" />
    <glyph glyph-name="I" unicode="I" horiz-adv-x="278" 
d="M191 683l-9 -221.999c0 -22 -0.666992 -57.833 -2 -107.5s-2 -76.5 -2 -80.5l2 -60l9 -213l-49 3l-51 -3l10 215c0 10.667 0.333008 26.667 1 48s1 37.333 1 48l1 85l-1 72l-4 214c7.33301 -0.666992 15.333 -1.66699 24 -3s15.667 -2 21 -2c8 0 16 0.166992 24 0.5
s16.333 2.16602 25 5.49902z" />
    <glyph glyph-name="J" unicode="J" horiz-adv-x="278" 
d="M-6 -138l-8 27.002c49.333 0 83.666 19.667 102.999 59c14 28.667 21 70.667 21 126l2 195v117v70c0 25.333 -0.666992 52.666 -2 81.999c-3.33301 74 -5 120 -5 138v9c4.66699 -0.666992 11.834 -1.33398 21.501 -2.00098s18.834 -1 27.501 -1h12c12 0 23.667 1 35 3
l-1 -11c-2.66699 -22.667 -4.33398 -44.334 -5.00098 -65.001s-1 -44.667 -1 -72v-182l5 -268c0 -65.333 -18.167 -119.166 -54.5 -161.499s-86.5 -63.5 -150.5 -63.5z" />
    <glyph glyph-name="K" unicode="K" horiz-adv-x="611" 
d="M95 569l-2 91.001l-2 23l12 -2c10 -2 20.333 -3 31 -3c6 0 11.833 0.166992 17.5 0.5s16.834 1.83301 33.501 4.5c-0.666992 -4.66699 -1.16699 -9.83398 -1.5 -15.501s-0.5 -10.167 -0.5 -13.5l-5 -265l1 -17c4.66699 -4 7.66699 -6 9 -6l28 21l41 40l49 48l194 208
l36 -2l43 2l-224 -220l-85 -86l243 -275l81 -95v-7c-7.33301 -0 -13.666 0.333008 -18.999 1c-20 2.66699 -31.333 4 -34 4c-8.66699 0 -19.667 -0.833008 -33 -2.5s-21 -2.5 -23 -2.5l-71 88l-135 161l-83 94c-6.66699 5.33301 -12.334 6.33301 -17.001 3l-1 -14l1 -106
v-102l4 -99l2 -25c-10 2 -19.667 3 -29 3c-4.66699 0 -12.334 -0.333008 -23.001 -1s-18.667 -1 -24 -1l-19 -1l2 26l6 177l2 139l-2 133z" />
    <glyph glyph-name="L" unicode="L" horiz-adv-x="500" 
d="M175 259l0.000976562 -125.002l2 -87c21.333 0 56.166 0.666992 104.499 2s73.833 2 76.5 2c16 0 35.667 1.33301 59 4c16 2.66699 28 4.33398 36 5.00098c-1.33301 -5.33301 -2.33301 -10.166 -3 -14.499s-1 -9.5 -1 -15.5c0 -8 0.666992 -14.5 2 -19.5s2 -8.5 2 -10.5
l-72 2l-123 2l-87 -1l-84 -2l7 126v430c0 19.333 -0.333008 35 -1 47c-2.66699 48 -4 74.333 -4 79h70h25l-6 -154c0 -17.333 -0.666992 -46 -2 -86s-2 -61.667 -2 -65z" />
    <glyph glyph-name="M" unicode="M" horiz-adv-x="889" 
d="M142 693l17.002 0.00195312l136 -264c44 -84 95.333 -174.667 154 -272l78 142l131 242l85 152h13l49 -433c5.33301 -48.667 10.666 -93.334 15.999 -134.001l17 -126l-45 3h-24c-8 0 -16.333 -1 -25 -3l-32 364l-18 149l-141 -258l-53 -104l-25 -53l-43 -90h-11l-55 113
l-64 129.5l-69 132.5l-69 130l-43 -391l-5 -100l-1 -22c-13.333 2 -26.333 3 -39 3c-10.667 0 -21 -1 -31 -3l1 9l33 206l49 363c3.33301 19.333 6.16602 40.166 8.49902 62.499z" />
    <glyph glyph-name="N" unicode="N" horiz-adv-x="778" 
d="M101 132l6.99902 232v334h17l492 -526l7 -6l3 109v320l-4 80l-1 8l43 -3l25 3l-2 -24l-5 -98l-9 -237l-3 -224l3 -113h-15l-61 71l-163 181l-279 297l-2 -94v-148v-80l3 -118l5 -96c-11.333 2 -22.666 3 -33.999 3s-23 -1 -35 -3c2 22.667 3.83301 47.5 5.5 74.5
s2.5 46.167 2.5 57.5z" />
    <glyph glyph-name="O" unicode="O" horiz-adv-x="833" 
d="M694 347c0 45.333 -4.00195 83.999 -12.002 115.999c-10 38.667 -27.167 73.834 -51.5 105.501s-54.666 55.834 -90.999 72.501s-75.166 25 -116.499 25c-63.333 0 -119 -17.667 -167 -53c-40.667 -30 -70.667 -72.667 -90 -128c-16.667 -47.333 -25 -100 -25 -158
c0 -44.667 5.33301 -85.167 16 -121.5s29 -69.5 55 -99.5c52.667 -60 120 -90 202 -90c69.333 0 128.5 22.5 177.5 67.5s80.167 102.5 93.5 172.5c6 29.333 9 59.666 9 90.999zM412.998 700.999c36.667 0 71.5 -3.16797 104.5 -9.50098s63.833 -17.166 92.5 -32.499
c121.333 -64 182 -164.667 182 -302c0 -111.333 -35.5 -201.166 -106.5 -269.499s-162.5 -102.5 -274.5 -102.5c-78 0 -145.333 16 -202 48c-59.333 34 -105.333 85 -138 153c-4.66699 10 -9 22.833 -13 38.5s-7 29.5 -9 41.5c-4 25.333 -6 50.333 -6 75
c0 51.333 9.5 99.666 28.5 144.999s46.833 84.5 83.5 117.5s76.5 57.5 119.5 73.5s89.167 24 138.5 24z" />
    <glyph glyph-name="P" unicode="P" 
d="M182 311l0.00292969 -72.999v-44l3 -173v-22l-46 3l-50 -2l2 25l9 193l-4 351l-5 114c10 -1.33301 20 -2 30 -2h31l121 2c69.333 0 119.666 -4.66699 150.999 -14c54.667 -16.667 88.334 -50.334 101.001 -101.001c4 -17.333 6 -34.333 6 -51
c0 -17.333 -2.83301 -36.333 -8.5 -57s-12.834 -37.667 -21.501 -51c-10.667 -16.667 -21.167 -29.334 -31.5 -38.001s-25.333 -17.667 -45 -27s-35.334 -15.666 -47.001 -18.999s-31.834 -7.33301 -60.501 -12c-6.66699 -1.33301 -16.667 -2.33301 -30 -3
s-23.333 -1 -30 -1zM183.003 618.001l-1.99902 -57v-211c4.66699 -0.666992 11.667 -1.33398 21 -2.00098s18.333 -1 27 -1l52 3c27.333 2.66699 49.333 7 66 13c21.333 8 39.666 20.667 54.999 38c10.667 12 19.5 28.833 26.5 50.5s10.5 41.834 10.5 60.501
c0 16.667 -2.66699 33.5 -8 50.5s-13 31.167 -23 42.5s-22.167 19.833 -36.5 25.5s-29.333 9.16699 -45 10.5l-34.5 3c-7.33301 0.666992 -14.333 1 -21 1l-88 -3v-24z" />
    <glyph glyph-name="Q" unicode="Q" horiz-adv-x="833" 
d="M613 -67l55 -41.001l85 -62c-13.333 -6 -26.833 -12.5 -40.5 -19.5s-26.167 -14.5 -37.5 -22.5l-6 7c-68.667 69.333 -142 132.666 -220 189.999l-24 -3c-114 0 -205.333 30.667 -274 92c-72 64.667 -108 153.667 -108 267c0 104 35.5 189.833 106.5 257.5
s158.833 101.5 263.5 101.5c109.333 0 198.666 -29.333 267.999 -88c74 -62.667 111 -147.667 111 -255c0 -46 -5.5 -87.167 -16.5 -123.5s-29.833 -72.5 -56.5 -108.5c-23.333 -31.333 -51.166 -57.666 -83.499 -78.999s-67.833 -36.666 -106.5 -45.999zM694 346.999
c0 45.333 -4.00195 83.999 -12.002 115.999c-10 38.667 -27.167 73.834 -51.5 105.501s-54.666 55.834 -90.999 72.501s-75.166 25 -116.499 25c-92.667 0 -164.334 -34.333 -215.001 -103c-45.333 -61.333 -68 -140 -68 -236c0 -44 5.33301 -84.167 16 -120.5
s29.334 -69.833 56.001 -100.5c52.667 -60 120 -90 202 -90c69.333 0 128.5 22.5 177.5 67.5s80.167 102.5 93.5 172.5c6 29.333 9 59.666 9 90.999z" />
    <glyph glyph-name="R" unicode="R" horiz-adv-x="611" 
d="M183 644l-3.99902 -275.001l48 -2h11c22.667 0 46.667 2.33301 72 7c37.333 8 68 24.5 92 49.5s36 56.167 36 93.5c0 18 -2.5 34.333 -7.5 49s-13.333 28 -25 40s-22.834 20.333 -33.501 25s-24.167 8.33398 -40.5 11.001s-33.5 4 -51.5 4h-15zM94.001 683.999l78 -2
l133 2c48.667 0 86.334 -3.66699 113.001 -11c41.333 -11.333 70.666 -33.333 87.999 -66c6 -11.333 11 -24 15 -38s6 -27.333 6 -40c0 -54 -21.333 -98 -64 -132c-35.333 -28 -82.333 -47.333 -141 -58l206 -261l48 -56l17 -22c-8.66699 0 -16 0.333008 -22 1
c-22.667 2.66699 -35 4 -37 4c-8.66699 0 -19.667 -0.833008 -33 -2.5s-21 -2.5 -23 -2.5l-61 84l-118 153l-80 94h-38v-80v-43l4 -208l-46 3l-49 -3l5 116l5 350l-6 194v24z" />
    <glyph glyph-name="S" unicode="S" horiz-adv-x="500" 
d="M63 132l10.001 -0.00195312c20.667 -34.667 42.667 -59.667 66 -75c26.667 -18 58.667 -27 96 -27c40 0 73.167 13.833 99.5 41.5s39.5 61.834 39.5 102.501c0 31.333 -9.66699 57.666 -29 78.999c-15.333 16.667 -39.333 32.334 -72 47.001c-4 2 -22 9.66699 -54 23
c-38.667 16 -68.334 31 -89.001 45s-37.334 33.333 -50.001 58s-19 50.667 -19 78c0 61.333 22 109.333 66 144c40.667 32 92.667 48 156 48c26.667 0 52.667 -4 78 -12s47 -20 65 -36c-4.66699 -10.667 -8.66699 -20.667 -12 -30c-0.666992 -2 -5.66699 -19.333 -15 -52
h-10c-10.667 28 -26.667 50 -48 66s-46.666 24 -75.999 24c-35.333 0 -65.166 -11.167 -89.499 -33.5s-36.5 -51.166 -36.5 -86.499c0 -38 14.333 -69 43 -93c8 -6.66699 14.667 -11.5 20 -14.5s11.666 -6.16699 18.999 -9.5l38 -17l45 -19l46 -21l33 -18
c12.667 -8 22.667 -16.333 30 -25c13.333 -16.667 23.5 -33.5 30.5 -50.5s10.5 -35.5 10.5 -55.5c0 -70 -24 -125.667 -72 -167c-45.333 -39.333 -103.666 -59 -174.999 -59c-27.333 0 -57.333 5 -90 15s-57 23.667 -73 41c5.33301 14.667 9.16602 28.167 11.499 40.5
s4.83301 28.5 7.5 48.5z" />
    <glyph glyph-name="T" unicode="T" 
d="M508 624l-107 8.99902h-51h-25l-1 -23l-3 -106v-398l6 -99l1 -7c-7.33301 0.666992 -14.333 1.5 -21 2.5s-15 1.5 -25 1.5h-23c-6 0 -16 -1.33301 -30 -4l3 25l4 105l5 402v102c-14 0 -35 -0.666992 -63 -2s-49 -2 -63 -2l-96 -7c2 12 3 24.333 3 37v11
c-1.33301 5.33301 -2 9.33301 -2 12l137 -6l131 -2l124 3l124 5c-2 -11.333 -3 -22.666 -3 -33.999c0 -9.33301 1 -19 3 -29z" />
    <glyph glyph-name="U" unicode="U" horiz-adv-x="778" 
d="M97 282l4.00293 109.992v108l-3 157l-2 26c7.33301 0 17.166 -0.833008 29.499 -2.5s19.833 -2.5 22.5 -2.5c6 0 14.333 0.833008 25 2.5s17 2.5 19 2.5l-2 -25l-3 -68l-4 -212l-1 -79c0 -23.333 0.333008 -42.166 1 -56.499s2.66699 -30.166 6 -47.499
c9.33301 -54.667 33.666 -96 72.999 -124c36.667 -26 83.667 -39 141 -39c20 0 41.667 2.83301 65 8.5s41.833 13.334 55.5 23.001s26.834 22.167 39.501 37.5s22.667 31 30 47c11.333 26 18.666 58.167 21.999 96.5s5 79.833 5 124.5l2 116l-3 107l-4 91c14 -2 28 -3 42 -3
c9.33301 0 19 1 29 3c0 -13.333 -1.33301 -33.666 -4 -60.999s-4 -47.666 -4 -60.999l-10 -277c0 -24 -1.16699 -45.833 -3.5 -65.5s-6.33301 -38.167 -12 -55.5s-13.834 -35.666 -24.501 -54.999s-21.334 -34 -32.001 -44c-27.333 -27.333 -59.333 -47.166 -96 -59.499
s-75.667 -18.5 -117 -18.5c-32 0 -62.167 2.83301 -90.5 8.5s-55.5 15.167 -81.5 28.5c-5.33301 2.66699 -11.166 6.16699 -17.499 10.5s-15.5 11.833 -27.5 22.5c-28 25.333 -47.333 60 -58 104c-7.33301 30.667 -11 71.334 -11 122.001z" />
    <glyph glyph-name="V" unicode="V" horiz-adv-x="667" 
d="M304 0l-84.999 220l-179 435l-15 28c6 0 16.667 -0.666992 32 -2s23.666 -2 24.999 -2c5.33301 0 14.166 0.666992 26.499 2s18.833 2 19.5 2l36 -99l67 -175l123 -303h7l52 121l105 271l60 167l6 18c6.66699 -1.33301 13.167 -2.33301 19.5 -3s13.5 -1 21.5 -1
c12.667 0 23.334 1.33301 32.001 4l-12 -25l-226 -530l-49 -128c-11.333 2 -22.333 3 -33 3s-21.667 -1 -33 -3z" />
    <glyph glyph-name="W" unicode="W" horiz-adv-x="1000" 
d="M607 488l124.998 -373l3 -7h7l37 114l116 377l23 84c10.667 -2.66699 22.334 -4 35.001 -4c13.333 0 25 1.33301 35 4l-23.5 -60.5l-25.5 -69.5l-190 -553c-11.333 2 -22.666 3 -33.999 3c-10.667 0 -22 -1 -34 -3l-8 22l-149 463l-28 73l-196 -558
c-11.333 2 -22 3 -32 3c-12.667 0 -25 -1 -37 -3l-39 129l-178 554c6 0 15 -0.666992 27 -2s21.333 -2 28 -2c4.66699 0 12 0.666992 22 2s17.333 2 22 2l29 -108l59 -203l84 -264h7l124 365l28 86l35 115l2 9c12 -2 23.667 -3 35 -3c10 0 20 1 30 3l9 -27z" />
    <glyph glyph-name="X" unicode="X" horiz-adv-x="611" 
d="M159 174l111.002 167.001l-115 189l-92 145l-5 8c6.66699 0 18 -0.666992 34 -2s24.667 -2 26 -2c5.33301 0 14.5 0.666992 27.5 2s19.833 2 20.5 2l17 -33l32 -55l106 -182l166 270c11.333 -2.66699 23.666 -4 36.999 -4c4 0 8.83301 0.166992 14.5 0.5
s13.167 1.5 22.5 3.5l-15 -22l-153 -213l-49 -74l231 -374c-18.667 2.66699 -40.334 4 -65.001 4h-19.5c-5 0 -13.833 -1.33301 -26.5 -4c-51.333 101.333 -108.333 201.666 -171 300.999c-31.333 -46.667 -61.833 -95 -91.5 -145l-88.5 -156
c-5.33301 2 -11.333 3.33301 -18 4s-14 1 -22 1c-4 0 -9.66699 -0.666992 -17 -2s-13 -2.33301 -17 -3z" />
    <glyph glyph-name="Y" unicode="Y" horiz-adv-x="611" 
d="M491 635l24.999 47.999c7.33301 -1.33301 14.333 -2.33301 21 -3s14 -1 22 -1c12.667 0 24 1.33301 34 4l-69 -102l-110 -177c-21.333 -32 -41.666 -68.667 -60.999 -110l3 -203l4 -91l-54 3l-44 -3l2 21l5 97l2 100v64l-244 401c6 0 15 -0.666992 27 -2s21.333 -2 28 -2
c20.667 0 39 1.33301 55 4l48 -90l49 -91l81 -139c4.66699 -9.33301 8.33398 -15 11.001 -17c5.33301 4.66699 11 11.334 17 20.001l14 23c23.333 38.667 51.666 89.667 84.999 153c28.667 54 45 85 49 93z" />
    <glyph glyph-name="Z" unicode="Z" horiz-adv-x="611" 
d="M270 47l212.999 8.00098l98 8c-2.66699 -10.667 -4 -22.334 -4 -35.001l3 -27h-25l-126 4l-232 2l-180 -5v15l291 411l72 103l70 106h-14h-12h-38.5c-13 0 -25.833 0.333008 -38.5 1h-11l-196 -8l-82 -6l3 30c0 13.333 -1 23 -3 29c14.667 0 38.834 -0.666992 72.501 -2
s51.5 -2 53.5 -2h274l117 3l9 1v-15l-118 -154l-233 -332l-85 -129l4 -6h68h50z" />
    <glyph glyph-name="bracketleft" unicode="[" horiz-adv-x="333" 
d="M152 -115l-20 -1v21l5 104v674l51 -3l106 3v-8v-21h-91l-1 -22l-3 -81l-3 -377l4 -237v-25l88 2l-1 -10l1 -20l-86 3z" />
    <glyph glyph-name="backslash" unicode="\" horiz-adv-x="500" 
d="M95 748l371.998 -748c-7.33301 0.666992 -13.666 1.16699 -18.999 1.5s-9.66602 0.5 -12.999 0.5h-15c-6.66699 -1.33301 -11.667 -2 -15 -2l-372 748c5.33301 -0.666992 10.5 -1.16699 15.5 -1.5s10.167 -0.5 15.5 -0.5h12c4.66699 0 11 0.666992 19 2z" />
    <glyph glyph-name="bracketright" unicode="]" horiz-adv-x="333" 
d="M183 682l20 0.999023v-21l-5 -105v-673l-52 3l-105 -3v8v21h91l1 22l3 80l3 133v367l-5 115v25l-88 -2c0.666992 4 1 10.333 1 19c0 4.66699 -0.333008 8.33398 -1 11.001l86 -3z" />
    <glyph glyph-name="asciicircum" unicode="^" horiz-adv-x="606" 
d="M121 275h-70l219 406h66l218 -406h-70l-181 326z" />
    <glyph glyph-name="underscore" unicode="_" horiz-adv-x="500" 
d="M500 -129h-500v48h500v-48z" />
    <glyph glyph-name="grave" unicode="`" horiz-adv-x="333" 
d="M240 532l-35 0.000976562l-157 98c-6.66699 5.33301 -11 8.66602 -13 9.99902c-6 4 -10 8.33301 -12 13s-3 9.33398 -3 14.001c0 2.66699 0.666992 6.66699 2 12c7.33301 18.667 21 25.667 41 21c6.66699 -2.66699 11 -5 13 -7
c6.66699 -4.66699 13.667 -10.834 21 -18.501l17 -17.5z" />
    <glyph glyph-name="a" unicode="a" horiz-adv-x="500" 
d="M101 370l-11.0039 0.000976562v56c26.667 18 53 32 79 42s53.333 15 82 15c23.333 0 45.833 -3.83301 67.5 -11.5s40.667 -19.834 57 -36.501s27.166 -35.334 32.499 -56.001c3.33301 -13.333 5 -35.333 5 -66l-3 -120l-2 -72v-17c0 -22 1.66699 -38 5 -48
c6 -16.667 17 -25 33 -25c10.667 0 18.334 1.33301 23.001 4v-22l-7 -3l-23 -7c-11.333 -2 -22.333 -3 -33 -3c-19.333 0 -35.166 4.66699 -47.499 14s-19.833 25 -22.5 47l-9 -9c-42 -42 -91.333 -63 -148 -63c-36.667 0 -68 11.333 -94 34s-39 52 -39 88
c0 22 5.16699 43.333 15.5 64s24.333 35.834 42 45.501s36.167 16.667 55.5 21s43.333 8.83301 72 13.5c14.667 2 29.834 4.5 45.501 7.5s29.834 8.16699 42.501 15.5c6.66699 3.33301 11.667 7 15 11c2 5.33301 3 16.333 3 33c0 37.333 -10.167 66.5 -30.5 87.5
s-49.166 31.5 -86.499 31.5c-21.333 0 -42 -5 -62 -15s-36 -24 -48 -42zM332.996 100.001l4 149l-9 -4l-30 -6c-58 -11.333 -94.667 -20.333 -110 -27c-40 -18 -60 -47 -60 -87c0 -30.667 8.66699 -54 26 -70s41.333 -24 72 -24c13.333 0 27.166 3.5 41.499 10.5
s27.5 15.833 39.5 26.5l18 21c2.66699 2 5.33398 5.66699 8.00098 11z" />
    <glyph glyph-name="b" unicode="b" 
d="M84 0l-18 -0.00292969l2 20l3 91l3 374l-6 238v25c16 -2 32 -3 48 -3c12 0 24.667 1 38 3l-2 -25l-3 -93l-4 -228v-24c22 32.667 46.333 57.334 73 74.001c29.333 18.667 62.666 28 99.999 28c20.667 0 36.834 -1.16699 48.501 -3.5s25.834 -7.5 42.501 -15.5
c26 -13.333 47.5 -31.666 64.5 -54.999s29 -47.166 36 -71.499s10.5 -52.833 10.5 -85.5c0 -70 -19.667 -130 -59 -180c-42.667 -54 -98.334 -81 -167.001 -81c-55.333 0 -100 20.667 -134 62l-8 10c-8 -6 -19.333 -15.667 -34 -29zM433 244.997
c0 29.333 -2.33203 53.832 -6.99902 73.499s-13.167 39.334 -25.5 59.001s-27.833 34.834 -46.5 45.501s-39 16 -61 16c-28 0 -52.5 -7.16699 -73.5 -21.5s-37.333 -33.333 -49 -57s-19.167 -47.5 -22.5 -71.5s-5 -52.333 -5 -85c0 -22.667 2.83301 -45.334 8.5 -68.001
s14.167 -42.5 25.5 -59.5s26.666 -30.5 45.999 -40.5s39.333 -15 60 -15c50.667 0 89.667 25.667 117 77c22 42 33 91 33 147z" />
    <glyph glyph-name="c" unicode="c" horiz-adv-x="500" 
d="M458 439l-23 -66.0029h-8l-13 17.5c-4.66699 6.33301 -9.33398 11.5 -14.001 15.5c-11.333 12.667 -26.166 22.834 -44.499 30.501s-36.5 11.5 -54.5 11.5c-54.667 0 -98 -21.333 -130 -64c-29.333 -39.333 -44 -87 -44 -143c0 -27.333 3.83301 -54.166 11.5 -80.499
s19.5 -49.666 35.5 -69.999s36.167 -36.333 60.5 -48s49.833 -17.5 76.5 -17.5c28 0 51.833 4.83301 71.5 14.5s41.834 25.5 66.501 47.5l6 -3l-5 -46c-45.333 -33.333 -96.333 -50 -153 -50c-54 0 -99.333 9.33301 -136 28c-40.667 20.667 -72.334 54 -95.001 100
c-8.66699 17.333 -15 36.5 -19 57.5s-6 41.833 -6 62.5c0 76 24 135.667 72 179s110.333 65 187 65c30.667 0 58.667 -3.16699 84 -9.5s50 -16.833 74 -31.5z" />
    <glyph glyph-name="d" unicode="d" 
d="M406 404l-0.00195312 152.001l-2 166v26l9 -2c6 -1.33301 11.5 -2 16.5 -2h16.5c16 0 29.667 1.33301 41 4l-2 -29l-3 -82l-3 -637l-10 1l-18 2h-21.5c-7 0 -14.833 -1 -23.5 -3l2 95c-1.33301 -0.666992 -2.66602 -1.83398 -3.99902 -3.50098s-2 -2.83398 -2 -3.50098
c-36.667 -66.667 -92.334 -100 -167.001 -100c-27.333 0 -56 6.66699 -86 20c-10.667 4.66699 -21.667 11.667 -33 21c-4 3.33301 -13.333 12.333 -28 27c-19.333 20 -33 45.833 -41 77.5s-12 64.167 -12 97.5c0 36 4.33301 68.333 13 97s23.334 55.334 44.001 80.001
c40.667 48.667 93.334 73 158.001 73c33.333 0 63.333 -8.5 90 -25.5s48.667 -40.833 66 -71.5v20zM120.998 217.001c0 -12.667 0.331055 -21.501 0.998047 -26.501s3.83398 -22.667 9.50098 -53s20.5 -56.666 44.5 -78.999s52 -33.5 84 -33.5c52 0 90.667 25.667 116 77
c20 40.667 30 89.667 30 147c0 50.667 -9.33301 93 -28 127c-23.333 42.667 -58.666 64 -105.999 64c-57.333 0 -98.333 -24.333 -123 -73c-18.667 -36.667 -28 -86.667 -28 -150z" />
    <glyph glyph-name="e" unicode="e" horiz-adv-x="500" 
d="M468 279l-1.99512 -39.001l-203 3l-143 -3c0 -60 14 -109 42 -147c31.333 -42 75.666 -63 132.999 -63c23.333 0 48.166 5.83301 74.499 17.5s47.833 25.834 64.5 42.501c2.66699 4 7.33398 6.33301 14.001 7l-6 -50c-26 -18.667 -53.333 -33.167 -82 -43.5
s-58.667 -15.5 -90 -15.5c-12.667 0 -24.334 1 -35.001 3c-16 4 -27.667 6.66699 -35 8c-24.667 5.33301 -48.834 16.666 -72.501 33.999s-42.334 36.833 -56.001 58.5s-23.334 44.167 -29.001 67.5s-8.5 48.666 -8.5 75.999c0 33.333 5.33301 66.333 16 99
s26.167 59.834 46.5 81.501s45.5 38.334 75.5 50.001s60.333 17.5 91 17.5c64.667 0 115 -18 151 -54s54 -86 54 -150zM388.005 279.999c0 49.333 -8.33398 88 -25.001 116c-21.333 36 -54.666 54 -99.999 54c-44.667 0 -80 -18 -106 -54c-23.333 -32 -35 -70.667 -35 -116
l131 -3z" />
    <glyph glyph-name="f" unicode="f" horiz-adv-x="278" 
d="M296 668l-5.00098 -4.00098l-20 10c-5.33301 2 -12.166 3.33301 -20.499 4s-13.166 1 -14.499 1c-27.333 0 -47.833 -9 -61.5 -27s-20.5 -41.667 -20.5 -71c0 -15.333 1.66699 -35.666 5 -60.999c1.33301 -12.667 3 -25 5 -37l2 -18h103l-2 -7l-1 -19l1 -14l-101 3
l-2 -121v-80l5 -202v-25l-8 1c-5.33301 0.666992 -11.5 1.16699 -18.5 1.5s-12.167 0.5 -15.5 0.5h-21.5c-7 0 -14.833 -1 -23.5 -3l2 26l3 73l3 328h-71c0.666992 11.333 1 20 1 26c0 5.33301 -0.333008 9.33301 -1 12h72l2 18c7.33301 68.667 23.666 126 48.999 172
c34 62 80 93 138 93c9.33301 0 16.333 -0.333008 21 -1l-2 -23c0 -8.66699 -0.5 -20 -1.5 -34s-1.5 -21.333 -1.5 -22z" />
    <glyph glyph-name="g" unicode="g" horiz-adv-x="500" 
d="M140 37v7.99902c-6.66699 0 -11.667 0.666992 -15 2s-10 4.66602 -20 9.99902c-10.667 8.66699 -17.667 17.334 -21 26.001s-5 20.667 -5 36c0 20 6.16699 36.167 18.5 48.5s29.166 22.5 50.499 30.5c-32 14 -55.667 30.667 -71 50c-17.333 22 -26 49.333 -26 82
c0 24.667 5.83301 47.834 17.5 69.501s27.167 38.334 46.5 50.001s40 19 62 22s47.333 4.5 76 4.5l139 -5h36h14c5.33301 0 12.666 0.666992 21.999 2v-35l-110 9c22 -16 39 -33.833 51 -53.5s18 -42.5 18 -68.5c0 -12 -2.66699 -25.5 -8 -40.5s-11.166 -27.333 -17.499 -37
s-13.833 -17.834 -22.5 -24.501s-19 -13 -31 -19c-20 -9.33301 -40 -15.166 -60 -17.499s-44.667 -3.5 -74 -3.5h-22c-14 0 -25.333 -3 -34 -9c-4 -3.33301 -7.66699 -8.5 -11 -15.5s-5 -13.5 -5 -19.5c0 -19.333 10 -32.333 30 -39l66 -6h64c26 0 48 -1.33301 66 -4
s35.333 -8.66699 52 -18c36.667 -22 55 -55.333 55 -100c0 -30.667 -8.16699 -58.5 -24.5 -83.5s-38.5 -45.5 -66.5 -61.5c-23.333 -12.667 -48.833 -21.834 -76.5 -27.501s-56.5 -8.5 -86.5 -8.5c-47.333 0 -87.666 10.333 -120.999 31c-40 24.667 -60 59.334 -60 104.001
c0 32 9.16699 57.167 27.5 75.5s43.833 30.166 76.5 35.499zM127 330.999c0 -16 2.83203 -32.833 8.49902 -50.5s13.5 -32.334 23.5 -44.001s20.833 -19.667 32.5 -24s26.5 -6.5 44.5 -6.5c35.333 0 63 12.667 83 38c8.66699 10 15.334 22.667 20.001 38s7 30 7 44
c0 38.667 -7.66699 68.334 -23 89.001c-17.333 24 -45 36 -83 36c-35.333 0 -63 -11 -83 -33s-30 -51 -30 -87zM251.999 37.999c-28 0 -49.501 -0.999023 -64.501 -2.99902s-30.5 -8 -46.5 -18c-29.333 -19.333 -44 -48.333 -44 -87c0 -18 4.33301 -35 13 -51
s20.667 -29 36 -39c12.667 -8 26.834 -13.5 42.501 -16.5s33.167 -4.5 52.5 -4.5c42 0 77.333 8.66699 106 26c34.667 21.333 52 51.666 52 90.999c0 33.333 -8.66699 58 -26 74c-20.667 18.667 -61 28 -121 28z" />
    <glyph glyph-name="h" unicode="h" 
d="M81 698l-2 50c16 -2.66699 29.667 -4 41 -4h13h12c4.66699 1.33301 8 2 10 2l9 2l-3 -106l-5 -202v-56c19.333 31.333 42.5 55 69.5 71s58.167 24 93.5 24c25.333 0 49 -4 71 -12s40.333 -20.667 55 -38c17.333 -20 28 -42.333 32 -67c2 -11.333 3 -36.333 3 -75l-3 -145
l2 -97v-37v-8c-4.66699 0.666992 -11.5 1.16699 -20.5 1.5s-16.5 0.833008 -22.5 1.5h-19.5c-6.33301 0 -13.5 -1 -21.5 -3l4 86l4 110l1 67c0 21.333 -0.833008 40.833 -2.5 58.5s-5.16699 31.167 -10.5 40.5c-11.333 22 -25.166 38.667 -41.499 50s-36.5 17 -60.5 17
c-23.333 0 -45 -5.16699 -65 -15.5s-34.833 -25 -44.5 -44s-15.834 -39.833 -18.501 -62.5s-4 -48.667 -4 -78v-163l3 -59v-7l-41 3h-21.5c-7 0 -13.5 -1 -19.5 -3l5 118l2 81l1 104v100l-2 154z" />
    <glyph glyph-name="i" unicode="i" horiz-adv-x="278" 
d="M98 466l-1.00391 7c4.66699 -0.666992 11.834 -1.33398 21.501 -2.00098s18.834 -1 27.501 -1h24c6.66699 1.33301 11.334 2.33301 14.001 3c0 -38.667 -0.666992 -75.334 -2 -110.001s-2.66602 -76.667 -3.99902 -126c0 -32.667 0.833008 -76.167 2.5 -130.5
s2.5 -86.5 2.5 -96.5l1 -10l-44 3h-21c-6.66699 0 -14 -1 -22 -3c0 26.667 1 66.334 3 119.001s3 92.334 3 119.001c0 32.667 -0.833008 76.167 -2.5 130.5s-2.5 86.833 -2.5 97.5zM195.996 646c0 -14 -4.99902 -25.999 -14.999 -35.999s-22 -15 -36 -15s-26 5 -36 15
s-15 22 -15 36s5 26 15 36s22 15 36 15c13.333 0 25.166 -4.83301 35.499 -14.5s15.5 -21.834 15.5 -36.501z" />
    <glyph glyph-name="j" unicode="j" horiz-adv-x="278" 
d="M182 149l0.00195312 -117.998c0 -46.667 -2.66699 -81.334 -8 -104.001c-8.66699 -36 -26 -66 -52 -90c-34.667 -27.333 -73 -41 -115 -41l-7 29l9 -1c17.333 0 32.666 5.33301 45.999 16c9.33301 8 19.666 21 30.999 39c8 22.667 13.167 46 15.5 70s3.5 52.667 3.5 86
v292v18v16c0 41.333 -2.33301 79.666 -7 114.999l10 -2l24 -2h30l27 4l-3 -22c0 -24.667 -0.666992 -65.667 -2 -123s-2 -88 -2 -92v-90zM196.002 646.002c0 -14 -4.99902 -25.999 -14.999 -35.999s-22 -15 -36 -15s-26 5 -36 15s-15 22 -15 36s5 26 15 36s22 15 36 15
c13.333 0 25.166 -4.83301 35.499 -14.5s15.5 -21.834 15.5 -36.501z" />
    <glyph glyph-name="k" unicode="k" horiz-adv-x="500" 
d="M77 26l2.99902 81l6 376l-6 238v27l9 -2c10.667 -1.33301 19.334 -2 26.001 -2c14.667 0.666992 25.667 1 33 1c1.33301 -0.666992 4.33301 -0.166992 9 1.5s7 0.833984 7 -2.49902l-1 -28l-6 -175v-241c0 -15.333 2.33301 -26.333 7 -33
c7.33301 -4 18.333 -0.666992 33 10c10.667 7.33301 28.667 23.666 54 48.999l62 63l78 83l9 -1l22 -2h12c12 0 24 1 36 3v-7l-120 -100l-33 -28l-67 -62l57 -64l56 -65l46 -50l46 -52l30 -37v-7c-12 2 -24.333 3 -37 3h-12h-25.5c-8.33301 0 -17.5 -1 -27.5 -3l-24 32
c-7.33301 10 -17 21.667 -29 35l-33 37l-51 61l-51 57l-19 20c-5.33301 2 -9 3 -11 3s-4.66699 -1 -8 -3c-1.33301 -4 -2 -10.667 -2 -20v-21v-94l4 -81v-26l-8 1l-22 2h-27.5c-9 0 -17.5 -1 -25.5 -3z" />
    <glyph glyph-name="l" unicode="l" horiz-adv-x="278" 
d="M177 500v-386l1 -104l1 -10l-26 2h-30c-13.333 0 -23.333 -0.666992 -30 -2l1 30l7 231v389l-3 91l-1 7l13 -3h62l13 3l-1 -27z" />
    <glyph glyph-name="m" unicode="m" horiz-adv-x="833" 
d="M760 243l-3.00391 -63v-87l3 -67v-26l-10 1l-21 2h-26.5c-8.33301 0 -17.5 -1 -27.5 -3l2 29l4 63l4 107v75v14v13c0 18 -1.16699 34.333 -3.5 49s-7.16602 27 -14.499 37c-20 29.333 -48.667 44 -86 44c-28.667 0 -53.5 -7.16699 -74.5 -21.5
s-35.833 -35.166 -44.5 -62.499c-3.33301 -13.333 -5.33301 -25.333 -6 -36s-1 -25.334 -1 -44.001l-1 -121c0 -8.66699 0.333008 -22.167 1 -40.5s1 -32.166 1 -41.499v-42l3 -22c-10 2 -20.333 3 -31 3h-10h-21.5c-7 0 -14.833 -1 -23.5 -3l2 20l6 116v73v81
c0 23.333 -1.33301 42.833 -4 58.5s-9.16699 30 -19.5 43s-22.166 22.333 -35.499 28s-29 8.5 -47 8.5c-24.667 0 -46.834 -6 -66.501 -18s-33.5 -28.167 -41.5 -48.5s-12.833 -40.333 -14.5 -60s-2.5 -44.167 -2.5 -73.5v-55v-81l3 -71l2 -21l-10 1
c-5.33301 1.33301 -11.166 2 -17.499 2h-14.5h-20.5c-6.33301 0 -13.5 -1 -21.5 -3l1 24l7 197v119l-4 110v23l7 -1c6 -1.33301 11.5 -2 16.5 -2h16.5l39 3c-1.33301 -9.33301 -2 -19 -2 -29v-24v-31c18.667 30 39.334 52 62.001 66c25.333 16 55 24 89 24
s64.333 -8.33301 91 -25s45 -40.667 55 -72c38 64 92.667 96 164 96c44.667 0 80.834 -12.833 108.501 -38.5s41.5 -60.834 41.5 -105.501z" />
    <glyph glyph-name="n" unicode="n" 
d="M480 287l-3 -145l2 -97v-37v-8c-4.66699 0.666992 -11.5 1.16699 -20.5 1.5s-16.5 0.833008 -22.5 1.5h-19.5c-6.33301 0 -13.5 -1 -21.5 -3l4 86l4 110l1 67c0 21.333 -0.833008 40.833 -2.5 58.5s-5.16699 31.167 -10.5 40.5c-11.333 22 -25.166 38.667 -41.499 50
s-36.5 17 -60.5 17c-23.333 0 -45 -5.16699 -65 -15.5s-34.833 -25 -44.5 -44s-15.834 -39.833 -18.501 -62.5s-4 -48.667 -4 -78v-163l3 -59v-7l-41 3h-21.5c-7 0 -13.5 -1 -19.5 -3l5 118l3 179l-3 97l-2 79l39 -3c18 0 31.333 1 40 3v-21l-3 -32v-26v-10
c37.333 63.333 91.333 95 162 95c25.333 0 49 -4 71 -12s40.333 -20.667 55 -38c17.333 -20 28 -42.333 32 -67c2 -11.333 3 -36.333 3 -75z" />
    <glyph glyph-name="o" unicode="o" 
d="M34 240c0 72.667 23.999 131.334 71.999 176.001s108.667 67 182 67c70.667 0 128.334 -25.333 173.001 -76c20 -22.667 34.833 -48.667 44.5 -78s14.5 -60 14.5 -92c0 -48.667 -11.667 -92.834 -35 -132.501s-53.5 -68.834 -90.5 -87.501s-78.5 -28 -124.5 -28
c-14.667 0 -32 2 -52 6s-37.5 9.33301 -52.5 16s-27.833 14 -38.5 22s-22.667 19.333 -36 34c-22 24.667 -37 50.334 -45 77.001s-12 58.667 -12 96zM277.999 22c22.667 0 43.168 5.16602 61.501 15.499s34.833 25.166 49.5 44.499c11.333 16 19.833 32.333 25.5 49
s10 34.5 13 53.5s4.5 38.167 4.5 57.5c0 54.667 -10 100.334 -30 137.001c-26 47.333 -64.333 71 -115 71c-58 0 -101 -24 -129 -72c-23.333 -40 -35 -91 -35 -153c0 -57.333 11.333 -103.666 34 -138.999c27.333 -42.667 67.666 -64 120.999 -64z" />
    <glyph glyph-name="p" unicode="p" 
d="M146 69l-0.000976562 -61v-90l3 -122l-10 1c-8.66699 1.33301 -15.667 2.16602 -21 2.49902s-11.333 0.5 -18 0.5c-4 0 -10.667 -0.666992 -20 -2c-4 0 -7.5 -0.333008 -10.5 -1s-4.5 1 -4.5 5l3 36l2 60l3 87v488l10 -1l18 -2h11c11.333 0 22.666 1 33.999 3v-95l4 7
l14 24c22.667 27.333 45.167 46.833 67.5 58.5s50.833 17.5 85.5 17.5c62 0 111.667 -23 149 -69c34.667 -42.667 52 -96 52 -160c0 -39.333 -3.66699 -73.166 -11 -101.499s-21.333 -55.833 -42 -82.5c-39.333 -52 -93.666 -78 -162.999 -78
c-35.333 0 -65.666 7.83301 -90.999 23.5s-47 39.5 -65 71.5v-20zM430.999 250c0 24.667 -2.5 49.001 -7.5 73.001s-12.833 45.167 -23.5 63.5s-26 33.166 -46 44.499s-40.667 17 -62 17c-52 0 -90.667 -25.333 -116 -76c-20 -40 -30 -89 -30 -147
c0 -30 4.66699 -61.333 14 -94c4 -14.667 10.833 -29 20.5 -43s20.667 -25.333 33 -34s24.5 -14.334 36.5 -17.001s26.333 -4 43 -4c25.333 0 48 7.5 68 22.5s35.667 34.833 47 59.5c6.66699 14.667 12.167 35.834 16.5 63.501s6.5 51.5 6.5 71.5z" />
    <glyph glyph-name="q" unicode="q" 
d="M480 473l-0.000976562 -487.998l6 -147l2 -37c-0.666992 -1.33301 -1.33398 -3 -2.00098 -5c-4.66699 2 -9 2.66699 -13 2c-9.33301 1.33301 -16.666 2 -21.999 2c-6 0 -13.167 -0.5 -21.5 -1.5s-13.5 -1.5 -15.5 -1.5l-10 -1l5 212l-2 61v20
c-33.333 -63.333 -85.333 -95 -156 -95c-68 0 -121.667 25 -161 75c-36 46 -54 103.667 -54 173c0 34 3.33301 64.5 10 91.5s18.667 52.333 36 76s39.833 42.5 67.5 56.5s56.5 21 86.5 21c36.667 0 69.5 -8.83301 98.5 -26.5s51.833 -42.834 68.5 -75.501l4 -7v95
c4.66699 -0.666992 11.334 -1.33398 20.001 -2.00098s17 -1 25 -1l18 2zM406.999 225.002c0 26 -1.5 48.667 -4.5 68s-8.5 40 -16.5 62c-10.667 27.333 -26.834 49.666 -48.501 66.999s-46.834 26 -75.501 26c-24 0 -45.667 -6 -65 -18s-35 -28.333 -47 -49
c-9.33301 -16 -16.166 -35.833 -20.499 -59.5s-6.5 -47.167 -6.5 -70.5c0 -62 9.33301 -111 28 -147c24.667 -48 65.334 -72 122.001 -72c22.667 0 43.667 6.5 63 19.5s34.333 29.833 45 50.5c8.66699 16.667 15.167 35.834 19.5 57.501s6.5 43.5 6.5 65.5z" />
    <glyph glyph-name="r" unicode="r" horiz-adv-x="333" 
d="M80 27l3 105l-3 334l-1 7l22 -2c3.33301 0 7.5 -0.166992 12.5 -0.5s10.833 -0.5 17.5 -0.5c9.33301 0 19 1 29 3l-5 -69v-23l2 -6l7 12c18.667 29.333 36 51 52 65c22 19.333 46.333 29 73 29c4 0 10.667 -0.666992 20 -2l12 -3l-5 -25v-23l-2 -20v-12l-7 -4l-6 4.5
c-1.33301 1 -3 1.83301 -5 2.5c-12 6 -24 9 -36 9c-11.333 0 -23 -2.16699 -35 -6.5s-22.167 -11 -30.5 -20s-13.166 -14.5 -14.499 -16.5c-3.33301 -5.33301 -7.33301 -14 -12 -26s-7.83398 -26 -9.50098 -42s-2.5 -35 -2.5 -57v-14v-122l3 -96l1 -8c-10 2 -20.667 3 -32 3
h-11l-38 -3z" />
    <glyph glyph-name="s" unicode="s" horiz-adv-x="389" 
d="M63 94l8.00195 -0.000976562c12 -20 28.5 -36.833 49.5 -50.5s42.833 -20.5 65.5 -20.5c25.333 0 48 8.33301 68 25s30 37.667 30 63c0 30 -12.667 52.333 -38 67c-9.33301 5.33301 -35.333 14.666 -78 27.999l-42 14c-14 6 -26.5 14 -37.5 24s-20.5 23.5 -28.5 40.5
s-12 33.167 -12 48.5c0 46.667 15.333 83 46 109s69.667 39 117 39c38 0 73.333 -7.66699 106 -23l7 -3c-10 -22.667 -18 -46.334 -24 -71.001h-9c-6.66699 17.333 -18 32.333 -34 45s-33 19 -51 19c-26.667 0 -48.334 -6.83301 -65.001 -20.5s-25 -33.834 -25 -60.501
c0 -27.333 9.33301 -48.333 28 -63c13.333 -10.667 35.666 -20 66.999 -28c14.667 -4 31.5 -9.16699 50.5 -15.5s32.167 -12.166 39.5 -17.499c33.333 -26 50 -58 50 -96c0 -29.333 -6.66699 -54.666 -20 -75.999s-33.333 -40.666 -60 -57.999
c-11.333 -7.33301 -27.5 -13.166 -48.5 -17.499s-39.5 -6.5 -55.5 -6.5c-20.667 0 -42.5 2.83301 -65.5 8.5s-42.833 13.5 -59.5 23.5l12 36.5c4 12.333 7 24.5 9 36.5z" />
    <glyph glyph-name="t" unicode="t" horiz-adv-x="278" 
d="M79 574l87.9971 34l-1 -25l-7 -121l107 2c-1.33301 -8 -2 -13.667 -2 -17c0.666992 -10.667 1 -18.334 1 -23.001l-106 2c-1.33301 -5.33301 -2 -12.666 -2 -21.999l-3 -218v-28c0 -40.667 3.66699 -70.334 11 -89.001c12 -30 34.667 -45 68 -45c7.33301 0 15.5 1 24.5 3
s15.833 3.33301 20.5 4v-24c-27.333 -10 -55.333 -15 -84 -15c-7.33301 0 -14.666 0.833008 -21.999 2.5s-16.666 3.5 -27.999 5.5s-23.166 9.33301 -35.499 22s-20.833 27 -25.5 43c-3.33301 8.66699 -5.33301 16.167 -6 22.5s-1 14.5 -1 24.5c0.666992 14 1 25.333 1 34
l6 175v84v21l-66 -2v13v28l66 -2c0 12.667 -0.666992 33.834 -2 63.501s-2 45.5 -2 47.5z" />
    <glyph glyph-name="u" unicode="u" 
d="M396 245v163l-2 58v7c4.66699 -1.33301 13 -2 25 -2c4.66699 -0.666992 9.66699 -1 15 -1h21l21 3l-6 -117l-2 -180l2 -109l2 -67l-39 3h-19c-6 0 -12.667 -1 -20 -3v21l2 58v10c-36 -62.667 -90 -94 -162 -94c-24 0 -47.167 4.16699 -69.5 12.5s-41.333 21 -57 38
s-25.334 36 -29.001 57s-5.5 49.167 -5.5 84.5l3 144l-2 98v36v8c4.66699 -0.666992 11.334 -1.33398 20.001 -2.00098s16.334 -1 23.001 -1l42 3c-3.33301 -26.667 -5 -51 -5 -73c0 -28.667 -0.333008 -52 -1 -70c-2.66699 -72 -4 -111.667 -4 -119c0 -24 1 -44.333 3 -61
s6.33301 -31.667 13 -45c10.667 -20 24.834 -35.167 42.501 -45.5s38.5 -15.5 62.5 -15.5c31.333 0 57.666 9.66699 78.999 29c12 10.667 21 22 27 34s10.667 26.333 14 43s5.16602 34.834 5.49902 54.501s0.5 33.167 0.5 40.5z" />
    <glyph glyph-name="v" unicode="v" horiz-adv-x="500" 
d="M473 453l-128 -282l-39 -97l-24 -66l-3 -8l-29 3h-17c-5.33301 0 -11 -1 -17 -3l-8 22l-64 163l-85 204l-37 84l9 -1l40 -2l34 2l11 1l7 -22l21 -64l60 -154l40 -98l16 -36l9 -9l13 26l56 143l84 213l26 -2l33 3z" />
    <glyph glyph-name="w" unicode="w" horiz-adv-x="778" 
d="M429 473l28.001 -94l27 -87l67 -181l5 -8l15 29l70 184l54 151l2 6l22 -2h21c9.33301 0 16 0.666992 20 2l-10 -23l-54 -116l-51 -116l-52 -132l-32 -86l-24 3c-14 0 -24.333 -1 -31 -3l-7 24l-27 90l-59 169l-32 77l-11 -23l-60 -156l-33 -93l-29 -88l-29 3l-27 -3
l-34 106l-69 189l-69 172l-3 6l48 -3h11c11.333 0 22.666 1 33.999 3l29 -96l62 -180l40 -93l72 194l61 174l26 -2z" />
    <glyph glyph-name="x" unicode="x" horiz-adv-x="500" 
d="M392 390l-63 -72l-48 -58l187 -253v-7c-12 2 -24.333 3 -37 3h-13h-22.5c-7 0 -14.833 -1 -23.5 -3l-51 78l-88 125l-56 -78l-50 -71l-36 -54l-28 3h-17c-5.33301 0 -11 -1 -17 -3v7l15 18l57 69l108 139l-180 240l8 -1l45 -2l49 3l50 -77l43 -60l34 -47l56 72l82 112
l33 -3h18l18 3z" />
    <glyph glyph-name="y" unicode="y" horiz-adv-x="500" 
d="M118 -204l48 83l41 79l17 35l4 8l-13 34l-188 438l33 -3h25l37 2l8 -26l51 -134l84 -201l8 -7l12 26l33 75l40 103l61 165l30 -3l35 3l-236 -522l-62 -155l-30 4c-6 0 -12.833 -0.5 -20.5 -1.5s-13.5 -1.83301 -17.5 -2.5z" />
    <glyph glyph-name="z" unicode="z" horiz-adv-x="500" 
d="M419 0l-126.001 4.99902l-94 1c-19.333 0 -48.666 -1 -87.999 -3s-69 -3 -89 -3v14l79 97l191 251l48 70l-192 -8l-75 -5c2 10 3 21 3 33c0 4.66699 -0.333008 8.33398 -1 11.001l-2 10l128 -5l91 -2h86l78 5v-12l-3 -6l-308 -411c34 0 84.667 2.33301 152 7s118 7 152 7
l-3 -28l3 -28h-30z" />
    <glyph glyph-name="braceleft" unicode="{" horiz-adv-x="333" 
d="M206 175l-0.000976562 -166.006c0 -36.667 6.16699 -65 18.5 -85s33.833 -33.333 64.5 -40c-59.333 0 -99.333 9.33301 -120 28c-23.333 20.667 -35 61.334 -35 122.001v163c0 36 -4.33301 61.667 -13 77c-10.667 18 -31.667 31.667 -63 41
c30 8.66699 50.167 21.334 60.5 38.001s15.5 42.334 15.5 77.001v178c0 56.667 13.333 95 40 115c22 16.667 60.333 25 115 25c-31.333 -8 -53 -21.667 -65 -41s-18 -47.666 -18 -84.999v-177c0 -39.333 -4.66699 -67.666 -14 -84.999
c-11.333 -21.333 -33.666 -36.333 -66.999 -45c32.667 -8.66699 55 -25 67 -49c9.33301 -19.333 14 -49.666 14 -90.999z" />
    <glyph glyph-name="bar" unicode="|" horiz-adv-x="333" 
d="M136 0v748h61v-748h-61z" />
    <glyph glyph-name="braceright" unicode="}" horiz-adv-x="333" 
d="M127 8l0.000976562 167.002c0 42 4.33301 72 13 90c11.333 24 34 40.333 68 49c-32.667 8.66699 -54.334 22.667 -65.001 42s-16 49 -16 89v177c0 36.667 -5.83301 64.834 -17.5 84.501s-33.5 33.5 -65.5 41.5c54.667 0 93 -8.33301 115 -25
c26.667 -20 40 -58.667 40 -116v-178c0 -34.667 5 -60.334 15 -77.001s30.333 -29.334 61 -38.001c-32 -8.66699 -52.667 -21 -62 -37s-14 -42.667 -14 -80v-163c0 -60.667 -11.667 -101.334 -35 -122.001c-20.667 -18.667 -60.667 -28 -120 -28
c30.667 6 52.167 19.167 64.5 39.5s18.5 48.5 18.5 84.5z" />
    <glyph glyph-name="asciitilde" unicode="~" horiz-adv-x="606" 
d="M520 339l35.002 -39.999c-16.667 -31.333 -35.334 -56 -56.001 -74c-26.667 -23.333 -55 -35 -85 -35c-12 0 -28.333 3.33301 -49 10c-10.667 3.33301 -39.334 14.666 -86.001 33.999c-26.667 10.667 -40.667 16.334 -42 17.001c-17.333 6 -32.333 9 -45 9
c-24 0 -45.333 -10 -64 -30c-10 -10.667 -24 -31.334 -42 -62.001l-35 40c20 36 38.667 62.333 56 79c25.333 24.667 54 37 86 37c24.667 0 64 -11.833 118 -35.5s88.667 -35.5 104 -35.5c21.333 0 42.333 9.33301 63 28c16 14.667 30 34 42 58z" />
    <glyph glyph-name="c128" horiz-adv-x="833" 
d="M670 227c0 42.667 -14 74.498 -42 95.498s-65.333 31.5 -112 31.5c-65.333 0 -130.333 -14.333 -195 -43v-205l6 -99l1 -7c-7.33301 0.666992 -14.333 1.5 -21 2.5s-15 1.5 -25 1.5h-23c-6 0 -16 -1.33301 -30 -4l3 25l4 105l5 402v102c-14 0 -35 -0.666992 -63 -2
s-49 -2 -63 -2l-96 -7c2 12 3 24.333 3 37v11c-1.33301 5.33301 -2 9.33301 -2 12l137 -6l131 -2l124 3l124 5c-2 -11.333 -3 -22.666 -3 -33.999c0 -9.33301 1 -19 3 -29l-28 4l-107 9h-51h-25l-1 -23l-3 -106v-144c33.333 15.333 69 27.833 107 37.5s74.333 14.5 109 14.5
c64 0 115.667 -13.333 155 -40c44 -30 66 -73.667 66 -131v-154c0 -65.333 -18.167 -119.166 -54.5 -161.499s-86.166 -63.5 -149.499 -63.5l-8 27c49.333 0 83.666 19.667 102.999 59c14 28.667 21 70.667 21 126v153z" />
    <glyph glyph-name="c129" horiz-adv-x="481" 
d="M197 681h144c11.333 0 30.833 0.666992 58.5 2s42.5 2 44.5 2l-3 -30v-13.5c0 -5 1 -10.5 3 -16.5l-90 7l-100 3h-73l-5 -150v-226l2 -258h-65h-26l6 126l3 342l-2 88l-5 128zM369 840l-157 -98h-34l125 125l25 25l27 18c8 2 16 1 24 -3s13.167 -9 15.5 -15
s3.5 -12 3.5 -18c0 -5.33301 -1.33301 -9.33301 -4 -12c-2 -4.66699 -6 -9 -12 -13s-10.333 -7 -13 -9z" />
    <glyph glyph-name="c141" horiz-adv-x="611" 
d="M95 569l-2 91.001l-2 23l12 -2c10 -2 20.333 -3 31 -3c6 0 11.833 0.166992 17.5 0.5s16.834 1.83301 33.501 4.5c-0.666992 -4.66699 -1.16699 -9.83398 -1.5 -15.501s-0.5 -10.167 -0.5 -13.5l-5 -265l1 -17c4.66699 -4 7.66699 -6 9 -6l28 21l41 40l49 48l194 208
l36 -2l43 2l-224 -220l-85 -86l243 -275l81 -95v-7c-7.33301 -0 -13.666 0.333008 -18.999 1c-20 2.66699 -31.333 4 -34 4c-8.66699 0 -19.667 -0.833008 -33 -2.5s-21 -2.5 -23 -2.5l-71 88l-135 161l-83 94c-6.66699 5.33301 -12.334 6.33301 -17.001 3l-1 -14l1 -106
v-102l4 -99l2 -25c-10 2 -19.667 3 -29 3c-4.66699 0 -12.334 -0.333008 -23.001 -1s-18.667 -1 -24 -1l-19 -1l2 26l6 177l2 139l-2 133zM434 840.001l-157 -98h-34l125 125l25 25l27 18c8 2 16 1 24 -3s13.167 -9 15.5 -15s3.5 -12 3.5 -18
c0 -5.33301 -1.33301 -9.33301 -4 -12c-2 -4.66699 -6 -9 -12 -13s-10.333 -7 -13 -9z" />
    <glyph glyph-name="c142" horiz-adv-x="833" 
d="M321 311l-0.000976562 -205.002l6 -99l1 -7c-7.33301 0.666992 -14.333 1.5 -21 2.5s-15 1.5 -25 1.5h-23c-6 0 -16 -1.33301 -30 -4l3 25l4 105l5 402v102c-14 0 -35 -0.666992 -63 -2s-49 -2 -63 -2l-96 -7c2 12 3 24.333 3 37v11c-1.33301 5.33301 -2 9.33301 -2 12
l137 -6l131 -2l124 3l124 5c-2 -11.333 -3 -22.666 -3 -33.999c0 -9.33301 1 -19 3 -29l-28 4l-107 9h-51h-25l-1 -23l-3 -106v-144c33.333 15.333 69 27.833 107 37.5s74.333 14.5 109 14.5c64 0 115.667 -13.333 155 -40c44 -30 66 -73.667 66 -131
c0 -11.333 -0.333008 -34.166 -1 -68.499s-1 -56.5 -1 -66.5l5 -106c-5.33301 0 -13.666 0.666992 -24.999 2s-20 2 -26 2l-46 -3l2 27l4 91v108c0 42.667 -14 74.5 -42 95.5s-65.333 31.5 -112 31.5c-65.333 0 -130.333 -14.333 -195 -43z" />
    <glyph glyph-name="c143" horiz-adv-x="778" 
d="M342 6c-32 0 -75.3311 -0.999023 -129.998 -2.99902s-95.667 -3 -123 -3l2 22l4 79c0 30.667 0.666992 75.167 2 133.5s2 91.833 2 100.5v244l-5 106c5.33301 0 13.666 -0.666992 24.999 -2s20 -2 26 -2l46 3l-2 -27l-4 -91c0 -71.333 -0.5 -143 -1.5 -215l-2.5 -181
c-0.666992 -48.667 -1 -87.667 -1 -117c30.667 -1.33301 64.334 -2.66602 101.001 -3.99902s72 -2 106 -2c33.333 0 68.5 0.666992 105.5 2s71.167 2.66602 102.5 3.99902l1 339v30v23v19v17v14v12c0 12.667 -0.166992 26 -0.5 40s-0.5 28.333 -0.5 43v14l-5 81
c5.33301 0 13.666 -0.666992 24.999 -2s20 -2 26 -2l47 3l-3 -27c-0.666992 -28 -1.33398 -51 -2.00098 -69c-4.66699 -129.333 -7 -215 -7 -257c0 -40 0.5 -85.833 1.5 -137.5s1.5 -80.834 1.5 -87.501l6 -106c-33.333 0 -77.333 1 -132 3s-96 3 -124 3l5 -75l1 -7
c-7.33301 1.33301 -14.333 2.33301 -21 3s-15 1 -25 1h-23c-6 0 -16 -1.33301 -30 -4l3 25z" />
    <glyph glyph-name="c144" 
d="M404 263c0 21.333 -0.831055 40.835 -2.49805 58.502s-5.16699 31.167 -10.5 40.5c-11.333 22 -25.166 38.667 -41.499 50s-36.5 17 -60.5 17c-23.333 0 -45 -5.16699 -65 -15.5s-34.833 -25 -44.5 -44s-15.834 -39.833 -18.501 -62.5s-4 -48.667 -4 -78v-163l3 -59v-7
l-41 3h-21.5c-7 0 -13.5 -1 -19.5 -3l5 118l2 81l1 104v100l-2 154v7l-67 -2v13v28l66 -2l-2 97l-2 50c16 -2.66699 29.667 -4 41 -4h13h12c4.66699 1.33301 8 2 10 2l9 2l-3 -106l-1 -42l158 2c-1.33301 -8 -2 -13.667 -2 -17c0.666992 -10.667 1 -18.334 1 -23.001l-159 2
l-2 -124v-56c19.333 31.333 42.5 55 69.5 71s58.167 24 93.5 24c25.333 0 49 -4 71 -12s40.333 -20.667 55 -38c17.333 -20 28 -42.333 32 -67c2 -11.333 3 -36.333 3 -75l-1 -256c0 -46.667 -2.66699 -81.334 -8 -104.001c-8.66699 -36 -26 -66 -52 -90
c-34.667 -27.333 -73 -41 -115 -41l-7 29l9 -1c17.333 0 32.666 5.33301 45.999 16c9.33301 8 19.666 21 30.999 39c7.33301 22 12.5 46.5 15.5 73.5s4.5 54.5 4.5 82.5z" />
    <glyph glyph-name="c157" horiz-adv-x="500" 
d="M164 267c7.33301 -4 18.333 -0.664062 33 10.0029c10.667 7.33301 28.667 23.666 54 48.999l62 63l78 83l9 -1l22 -2h12c12 0 24 1 36 3v-7l-120 -100l-33 -28l-67 -62l57 -64l56 -65l46 -50l46 -52l30 -37v-7c-12 2 -24.333 3 -37 3h-12h-25.5
c-8.33301 0 -17.5 -1 -27.5 -3l-24 32c-7.33301 10 -17 21.667 -29 35l-33 37l-51 61l-51 57l-19 20c-5.33301 2 -9 3 -11 3s-4.66699 -1 -8 -3c-1.33301 -4 -2 -10.667 -2 -20v-21v-94l4 -81v-26l-8 1l-22 2h-27.5c-9 0 -17.5 -1 -25.5 -3l1 26l3 81l2 131
c0 13.333 0.333008 33.333 1 60s1 46.667 1 60c0 38.667 -2.33301 74.667 -7 108l-1 7c4.66699 -0.666992 11.667 -1.33398 21 -2.00098s18 -1 26 -1h24c6.66699 1.33301 11.334 2.33301 14.001 3c0 -26 -1 -53.333 -3 -82s-3 -56 -3 -82c0 -8 0.166992 -15.333 0.5 -22
s3.16602 -13.334 8.49902 -20.001zM361 630.003l-157 -98h-34l125 125l25 25l27 18c8 2 16 1 24 -3s13.167 -9 15.5 -15s3.5 -12 3.5 -18c0 -5.33301 -1.33301 -9.33301 -4 -12c-2 -4.66699 -6 -9 -12 -13s-10.333 -7 -13 -9z" />
    <glyph glyph-name="c158" 
d="M160 600l158 2.00098c-1.33301 -8 -2 -13.667 -2 -17c0.666992 -10.667 1 -18.334 1 -23.001l-159 2l-2 -124v-56c19.333 31.333 42.5 55 69.5 71s58.167 24 93.5 24c25.333 0 49 -4 71 -12s40.333 -20.667 55 -38c17.333 -20 28 -42.333 32 -67
c2 -11.333 3 -36.333 3 -75l-3 -145l2 -97v-37v-8c-4.66699 0.666992 -11.5 1.16699 -20.5 1.5s-16.5 0.833008 -22.5 1.5h-19.5c-6.33301 0 -13.5 -1 -21.5 -3l4 86l4 110l1 67c0 21.333 -0.833008 40.833 -2.5 58.5s-5.16699 31.167 -10.5 40.5
c-11.333 22 -25.166 38.667 -41.499 50s-36.5 17 -60.5 17c-23.333 0 -45 -5.16699 -65 -15.5s-34.833 -25 -44.5 -44s-15.834 -39.833 -18.501 -62.5s-4 -48.667 -4 -78v-163l3 -59v-7l-41 3h-21.5c-7 0 -13.5 -1 -19.5 -3l5 118l2 81l1 104v100l-2 154v7l-67 -2v13v28
l66 -2l-2 97l-2 50c16 -2.66699 29.667 -4 41 -4h13h12c4.66699 1.33301 8 2 10 2l9 2l-3 -106z" />
    <glyph glyph-name="nonbreakingspace" unicode="&#xa0;" horiz-adv-x="500" 
 />
    <glyph glyph-name="exclamdown" unicode="&#xa1;" horiz-adv-x="648" 
d="M322 166l-95.999 164.001l-102 167l-118 184l62 -3l52 3c40 -82 82 -160.333 126 -235c39.333 -66.667 78.666 -128.334 117.999 -185.001h9l70 135l71 147c26 55.333 46.333 101.333 61 138l34 -3l36 3l-182 -342c-43.333 -83.333 -77.666 -153.333 -102.999 -210
c-22.667 -50.667 -39.334 -94.667 -50.001 -132l-34 3l-45 -3c32.667 50.667 63 107 91 169zM505.001 834.001c-14.667 -31.333 -35.168 -56.167 -61.501 -74.5s-58.5 -27.5 -96.5 -27.5c-35.333 0 -66.166 9.66699 -92.499 29s-45.5 43.333 -57.5 72l23 17
c28 -46.667 71.333 -70 130 -70c29.333 0 55 6 77 18s40 29.333 54 52z" />
    <glyph glyph-name="cent" unicode="&#xa2;" horiz-adv-x="500" 
d="M118 -204l48 83l41 79l17 35l4 8l-13 34l-188 438l33 -3h25l37 2l8 -26l51 -134l84 -201l8 -7l12 26l33 75l40 103l61 165l30 -3l35 3l-236 -522l-62 -155l-30 4c-6 0 -12.833 -0.5 -20.5 -1.5s-13.5 -1.83301 -17.5 -2.5zM420 624
c-14.667 -31.333 -35.168 -56.167 -61.501 -74.5s-58.5 -27.5 -96.5 -27.5c-35.333 0 -66.166 9.66699 -92.499 29s-45.5 43.333 -57.5 72l23 17c28 -46.667 71.333 -70 130 -70c29.333 0 55 6 77 18s40 29.333 54 52z" />
    <glyph glyph-name="sterling" unicode="&#xa3;" horiz-adv-x="278" 
d="M-6 -138l-8 27.002c49.333 0 83.666 19.667 102.999 59c14 28.667 21 70.667 21 126l2 195v117v70c0 25.333 -0.666992 52.666 -2 81.999c-3.33301 74 -5 120 -5 138v9c4.66699 -0.666992 11.834 -1.33398 21.501 -2.00098s18.834 -1 27.501 -1h12c12 0 23.667 1 35 3
l-1 -11c-2.66699 -22.667 -4.33398 -44.334 -5.00098 -65.001s-1 -44.667 -1 -72v-182l5 -268c0 -65.333 -18.167 -119.166 -54.5 -161.499s-86.5 -63.5 -150.5 -63.5z" />
    <glyph glyph-name="currency" unicode="&#xa4;" 
d="M32 141l54.001 54c-37.333 47.333 -56 98 -56 152c0 30 4 57.167 12 81.5s21.667 47.833 41 70.5l-54 55l44 44l54 -55c22 18 46.333 31.5 73 40.5s53.667 13.5 81 13.5c55.333 0 104.666 -17.667 147.999 -53l53 53l43 -43l-53 -53c18.667 -22 32.5 -45.833 41.5 -71.5
s13.5 -52.5 13.5 -80.5c0 -27.333 -4.5 -53.833 -13.5 -79.5s-23.5 -50.167 -43.5 -73.5l53 -54l-43 -43l-53 53c-20.667 -16.667 -43.5 -29.5 -68.5 -38.5s-51.167 -13.5 -78.5 -13.5c-58 0 -108.333 17.333 -151 52l-53 -53zM281.001 536
c-52.667 0 -97.501 -18.168 -134.501 -54.501s-55.5 -81.166 -55.5 -134.499c0 -52 18.333 -96 55 -132s81.334 -54 134.001 -54c52 0 96 18.333 132 55s54 81 54 133c0 50.667 -18.167 94.5 -54.5 131.5s-79.833 55.5 -130.5 55.5z" />
    <glyph glyph-name="yen" unicode="&#xa5;" horiz-adv-x="481" 
d="M264 680c48 0 82.332 2.66699 102.999 8c30.667 8 52.334 24 65.001 48h12l-3 -60v-23c0 -6.66699 1 -16 3 -28c-7.33301 0 -21.5 1.16699 -42.5 3.5s-36.833 3.5 -47.5 3.5l-100 3h-73l-5 -150v-226l2 -258h-65h-26l6 126l3 342l-2 88l-5 128l108 -4z" />
    <glyph glyph-name="brokenbar" unicode="&#xa6;" horiz-adv-x="333" 
d="M134 0v280h64v-280h-64zM134 748h64v-280h-64v280z" />
    <glyph glyph-name="section" unicode="&#xa7;" horiz-adv-x="500" 
d="M277 129l-52.998 22.9971c-54.667 23.333 -91.667 43 -111 59c-34.667 28.667 -52 65.667 -52 111c0 21.333 5.16699 42 15.5 62s24.166 37 41.499 51l10 7l-4 7c-8 14 -13.833 27.167 -17.5 39.5s-5.5 25.5 -5.5 39.5c0 50 16.667 90.167 50 120.5s75.333 45.5 126 45.5
c54 0 98.667 -18.667 134 -56l-6 -7c-10 -16 -18 -33 -24 -51h-9l-3 8c-8 20.667 -21.333 38 -40 52s-38.667 21 -60 21c-14 0 -27.667 -1.83301 -41 -5.5s-25.5 -9.66699 -36.5 -18s-20.167 -19 -27.5 -32s-11 -27.167 -11 -42.5c0 -23.333 6.33301 -42.666 19 -57.999
s30.334 -28 53.001 -38l125 -55c27.333 -12.667 48.833 -29.667 64.5 -51s23.5 -46.666 23.5 -75.999c0 -23.333 -5 -45.5 -15 -66.5s-24 -41.5 -42 -61.5c3.33301 -3.33301 6.66602 -6.33301 9.99902 -9c18.667 -22 28 -45.667 28 -71c0 -59.333 -20 -107.166 -60 -143.499
s-90 -54.5 -150 -54.5c-25.333 0 -49.166 3.5 -71.499 10.5s-45.5 17.5 -69.5 31.5l10 64l2 20h9c2 -4 3.33301 -6.33301 4 -7c15.333 -27.333 35.666 -48 60.999 -62s54 -21 86 -21c10.667 0 24.667 3 42 9s31.166 13.167 41.499 21.5s20 20.5 29 36.5s13.5 30.667 13.5 44
c0 27.333 -8.66699 49.333 -26 66c-12.667 12 -33.667 24.333 -63 37zM237.002 232.997l73.999 -30.9961l55 -30c8.66699 13.333 15.5 25.666 20.5 36.999s7.5 23 7.5 35c0 9.33301 -3 20.666 -9 33.999s-13 23.666 -21 30.999s-16.333 13.666 -25 18.999
c-4.66699 2.66699 -14 7.33398 -28 14.001l-104 47c-11.333 4.66699 -22.833 10 -34.5 16s-21.167 13.333 -28.5 22c-10.667 -9.33301 -19.667 -20.5 -27 -33.5s-11 -25.833 -11 -38.5c0 -18.667 5.83301 -35.334 17.5 -50.001s28.834 -28.667 51.501 -42
c13.333 -8 34 -18 62 -30z" />
    <glyph glyph-name="dieresis" unicode="&#xa8;" horiz-adv-x="500" 
d="M197 681h144c11.333 0 30.833 0.666992 58.5 2s42.5 2 44.5 2l-3 -30v-13.5c0 -5 1 -10.5 3 -16.5l-90 7l-100 3h-73l-5 -150v-45l1 -57h101l54 3l89 5c-2 -6.66699 -3.33301 -11.667 -4 -15s-1 -8.33301 -1 -15c0 -8 0.666992 -14.5 2 -19.5s2 -8.5 2 -10.5l-46.5 4
c-15 1.33301 -28.833 2 -41.5 2l-56 2h-43h-56l-1 -80v-125l2 -87c20.667 0 55 0.666992 103 2s73.667 2 77 2c18.667 0 32.5 0.5 41.5 1.5s25.5 3.5 49.5 7.5c-2 -10 -3 -20 -3 -30c0 -8 0.666992 -14.5 2 -19.5s2 -8.5 2 -10.5l-69 2l-123 2l-87 -1l-84 -2l6 126l3 342
l-2 88l-5 128zM348 761c-12 0 -22.667 4.66699 -32 14s-14 20 -14 32s4.5 22.833 13.5 32.5s19.833 14.5 32.5 14.5c12 0 22.667 -4.66699 32 -14s14 -20.333 14 -33c0 -12 -4.66699 -22.667 -14 -32s-20 -14 -32 -14zM152 761c-12 0 -22.667 4.66699 -32 14s-14 20 -14 32
s4.5 22.833 13.5 32.5s19.833 14.5 32.5 14.5s23.667 -4.66699 33 -14s14 -20.333 14 -33c0 -12 -4.66699 -22.667 -14 -32s-20.333 -14 -33 -14z" />
    <glyph glyph-name="copyright" unicode="&#xa9;" horiz-adv-x="750" 
d="M374 -15c-97.333 0 -180.666 34.667 -249.999 104s-104 153 -104 251s34.5 181.833 103.5 251.5s152.5 104.5 250.5 104.5s182 -34.667 252 -104s105 -153.333 105 -252s-34.833 -182.5 -104.5 -251.5s-153.834 -103.5 -252.501 -103.5zM374 35
c82.667 0 153.667 30.002 213 90.002s89 131.667 89 215s-29.5 155.166 -88.5 215.499s-130.167 90.5 -213.5 90.5c-82 0 -152.333 -30.333 -211 -91s-88 -132.334 -88 -215.001s29.5 -154.167 88.5 -214.5s129.167 -90.5 210.5 -90.5zM524 508.002l0.000976562 -103.999
h-32c-4 29.333 -14.333 52.833 -31 70.5s-39.334 26.5 -68.001 26.5c-38.667 0 -68.5 -15 -89.5 -45s-31.5 -64.667 -31.5 -104c0 -22 2.5 -43 7.5 -63s13.167 -38.667 24.5 -56c24 -36.667 57 -55 99 -55c20.667 0 39.834 4.16699 57.501 12.5s31.5 20.833 41.5 37.5l8 14
l27 -11c-12 -29.333 -33.5 -52 -64.5 -68s-63.833 -24 -98.5 -24c-56.667 0 -102.334 18.333 -137.001 55s-52 83.667 -52 141c0 59.333 18.333 107.666 55 144.999s85 56 145 56c26.667 0 50.667 -3 72 -9l40 -10.5c11.333 -3 20.333 -5.83301 27 -8.5z" />
    <glyph glyph-name="ordfeminine" unicode="&#xaa;" horiz-adv-x="667" 
d="M137 383l277.001 -0.000976562h11c13.333 0 26.5 0.333008 39.5 1s25.833 2 38.5 4c-2 -9.33301 -3 -18 -3 -26c0 -8.66699 1 -18 3 -28c-26.667 3.33301 -56.334 5 -89.001 5h-279c0 -18.667 1.66699 -39.667 5 -63s7.33301 -44 12 -62
c9.33301 -34.667 25.833 -66.834 49.5 -96.501s53.167 -52.667 88.5 -69s73.333 -24.5 114 -24.5c34.667 0 69.334 6.33301 104.001 19s66.667 30.334 96 53.001c2.66699 2 5.16699 3.66699 7.5 5s5.16602 2 8.49902 2l-9 -61c-30 -20 -63.5 -34.333 -100.5 -43
s-77.167 -13 -120.5 -13c-109.333 0 -195.333 32 -258 96s-94 151 -94 261c0 50.667 10 99.667 30 147s48 86.333 84 117s76.333 53.167 121 67.5s92 21.5 142 21.5c35.333 0 71.5 -4 108.5 -12s72.5 -19.333 106.5 -34c-4 -10 -8 -22.5 -12 -37.5s-7 -28.167 -9 -39.5
l-7 -1c-4 3.33301 -7.66699 7 -11 11c-24 22.667 -52 40.834 -84 54.501s-64 20.5 -96 20.5c-80 0 -144.667 -27 -194 -81c-45.333 -49.333 -72 -114 -80 -194z" />
    <glyph glyph-name="guillemotleft" unicode="&#xab;" horiz-adv-x="500" 
d="M219 46l-121.001 190.002l127 185c4 -4.66699 8.33301 -9.33398 13 -14.001s10.334 -8 17.001 -10l7 -2l-113 -158l108 -165c-16 -4.66699 -28.667 -13.334 -38 -26.001zM361.999 46.002l-120.001 190.001l126 185c4 -4.66699 8.33301 -9.33398 13 -14.001
s10.334 -8 17.001 -10l7 -2l-112 -158l107 -165c-16 -5.33301 -28.667 -14 -38 -26z" />
    <glyph glyph-name="logicalnot" unicode="&#xac;" horiz-adv-x="606" 
d="M491 113v206h-440v64h504v-270h-64z" />
    <glyph glyph-name="minus" unicode="&#xad;" horiz-adv-x="333" 
d="M300 573h-266v50h266v-50z" />
    <glyph glyph-name="registered" unicode="&#xae;" horiz-adv-x="750" 
d="M376 -15c-98 0 -181.999 34.667 -251.999 104s-105 153.333 -105 252s34.833 182.5 104.5 251.5s153.834 103.5 252.501 103.5c97.333 0 180.666 -34.667 249.999 -104s104 -153 104 -251c0 -98.667 -34.333 -182.667 -103 -252s-152.334 -104 -251.001 -104zM376.001 35
c82 0 152.333 30.001 211 90.001s88 132 88 216c0 83.333 -29.333 155 -88 215s-129 90 -211 90c-82.667 0 -153.667 -30 -213 -90s-89 -131.667 -89 -215c0 -82.667 29.667 -154.334 89 -215.001s130.333 -91 213 -91zM256.001 207.001l0.00488281 283.999
c0 13.333 -1.5 21.5 -4.5 24.5s-10.833 4.5 -23.5 4.5h-16v21h156c30.667 0 53.167 -0.666992 67.5 -2s28.166 -6 41.499 -14s23.833 -19.167 31.5 -33.5s11.5 -28.833 11.5 -43.5c0 -28 -9.33301 -51 -28 -69s-42.334 -29.333 -71.001 -34
c18 -3.33301 34.333 -14.666 49 -33.999c9.33301 -12 19.333 -30 30 -54l18 -40c2 -4 6.66699 -11.667 14 -23c3.33301 -4 7.16602 -7.33301 11.499 -10s11.833 -4 22.5 -4v-21h-70c-10.667 3.33301 -16.334 5 -17.001 5c-4.66699 2 -9.66699 6 -15 12
s-11.833 17.167 -19.5 33.5l-15.5 33.5c-10 22 -15.667 34.667 -17 38c-8.66699 18.667 -15.334 30.834 -20.001 36.501s-10.5 9.5 -17.5 11.5s-13.5 3 -19.5 3h-13h-15v-121c0 -12 1.5 -20 4.5 -24s10.5 -6 22.5 -6l17 -1v-21h-160v21h15
c13.333 1.33301 21 2.66602 23 3.99902c4.66699 3.33301 7 11 7 23zM327.006 357l20.001 -0.999023c32 0 56 5.33301 72 16c20 13.333 30 35.666 30 66.999c0 26 -7.16699 45.833 -21.5 59.5s-34.833 20.5 -61.5 20.5l-21 -2c-8.66699 0 -13.834 -2.83301 -15.501 -8.5
s-2.5 -11.167 -2.5 -16.5v-12v-123z" />
    <glyph glyph-name="macron" unicode="&#xaf;" horiz-adv-x="278" 
d="M191 683l-9 -221.999c0 -22 -0.666992 -57.833 -2 -107.5s-2 -76.5 -2 -80.5l2 -60l9 -213l-49 3l-51 -3l10 215c0 10.667 0.333008 26.667 1 48s1 37.333 1 48l1 85l-1 72l-4 214c7.33301 -0.666992 15.333 -1.66699 24 -3s15.667 -2 21 -2c8 0 16 0.166992 24 0.5
s16.333 2.16602 25 5.49902zM237 761.001c-12 0 -22.667 4.66699 -32 14s-14 20 -14 32s4.5 22.833 13.5 32.5s19.833 14.5 32.5 14.5c12 0 22.667 -4.66699 32 -14s14 -20.333 14 -33c0 -12 -4.66699 -22.667 -14 -32s-20 -14 -32 -14zM41 761.001
c-12 0 -22.667 4.66699 -32 14s-14 20 -14 32s4.5 22.833 13.5 32.5s19.833 14.5 32.5 14.5s23.667 -4.66699 33 -14s14 -20.333 14 -33c0 -12 -4.66699 -22.667 -14 -32s-20.333 -14 -33 -14z" />
    <glyph glyph-name="degree" unicode="&#xb0;" horiz-adv-x="400" 
d="M350 519c0 -41.333 -14.667 -76.666 -44 -105.999s-64.666 -44 -105.999 -44s-76.666 14.667 -105.999 44s-44 64.666 -44 105.999s14.667 76.666 44 105.999s64.666 44 105.999 44s76.666 -14.667 105.999 -44s44 -64.666 44 -105.999zM310 519
c0 30 -10.832 55.833 -32.499 77.5s-47.834 32.5 -78.501 32.5c-30 0 -55.667 -10.667 -77 -32s-32 -47.333 -32 -78s10.667 -56.667 32 -78s47.333 -32 78 -32c30 0 55.833 10.833 77.5 32.5s32.5 47.5 32.5 77.5z" />
    <glyph glyph-name="plusminus" unicode="&#xb1;" horiz-adv-x="606" 
d="M271 346v159h64v-159h220v-64h-220v-162h-64v162h-220v64h220zM555 0h-504v64h504v-64z" />
    <glyph glyph-name="twosuperior" unicode="&#xb2;" horiz-adv-x="278" 
d="M191 683l-9 -221.999c0 -22 -0.666992 -57.833 -2 -107.5s-2 -76.5 -2 -80.5l2 -60l9 -213l-49 3l-51 -3l10 215c0 10.667 0.333008 26.667 1 48s1 37.333 1 48l1 85l-1 72l-4 214c7.33301 -0.666992 15.333 -1.66699 24 -3s15.667 -2 21 -2c8 0 16 0.166992 24 0.5
s16.333 2.16602 25 5.49902z" />
    <glyph glyph-name="threesuperior" unicode="&#xb3;" horiz-adv-x="278" 
d="M98 466l-1.00391 7c4.66699 -0.666992 11.834 -1.33398 21.501 -2.00098s18.834 -1 27.501 -1h24c6.66699 1.33301 11.334 2.33301 14.001 3c0 -38.667 -0.666992 -75.334 -2 -110.001s-2.66602 -76.667 -3.99902 -126c0 -32.667 0.833008 -76.167 2.5 -130.5
s2.5 -86.5 2.5 -96.5l1 -10l-44 3h-21c-6.66699 0 -14 -1 -22 -3c0 26.667 1 66.334 3 119.001s3 92.334 3 119.001c0 32.667 -0.833008 76.167 -2.5 130.5s-2.5 86.833 -2.5 97.5zM195.996 646c0 -14 -4.99902 -25.999 -14.999 -35.999s-22 -15 -36 -15s-26 5 -36 15
s-15 22 -15 36s5 26 15 36s22 15 36 15c13.333 0 25.166 -4.83301 35.499 -14.5s15.5 -21.834 15.5 -36.501z" />
    <glyph glyph-name="acute" unicode="&#xb4;" horiz-adv-x="407" 
d="M395 419c-34.667 4 -76.999 7.16699 -126.999 9.5s-87.667 3.5 -113 3.5c0 -22 -0.333008 -54.333 -1 -97s-1 -75.334 -1 -98.001c0 -25.333 1 -63.333 3 -114s3 -88.334 3 -113.001l1 -10l-44 3h-21c-6.66699 0 -14 -1 -22 -3c0 26.667 1.33301 66.334 4 119.001
s4 92.334 4 119.001c0 26 -0.666992 54.333 -2 85c-3.33301 76 -5 123.667 -5 143l-1 7c11.333 -1.33301 25.166 -2.83301 41.499 -4.5s26.833 -2.5 31.5 -2.5h77c42.667 0 76 2.66699 100 8s44.667 17.333 62 36h10c-2.66699 -15.333 -4 -30.666 -4 -45.999
c0 -8 0.5 -16.333 1.5 -25s1.83301 -15.334 2.5 -20.001z" />
    <glyph glyph-name="mu" unicode="&#xb5;" 
d="M393 199v275.999l40 -3l40 3v-478l-40 3l-40 -3v86c-32.667 -62.667 -85.667 -94 -159 -94c-32.667 0 -61 9 -85 27v-275l-40 3l-40 -3v734l40 -3l40 3v-270c0 -56 9.16699 -97.833 27.5 -125.5s49.5 -41.5 93.5 -41.5c46 0 79.333 18 100 54
c15.333 26.667 23 62.334 23 107.001z" />
    <glyph glyph-name="paragraph" unicode="&#xb6;" horiz-adv-x="800" 
d="M534 649l0.000976562 -714h64v-37h-355v37h77v389l-36 -3c-60 0 -106.667 15 -140 45c-36 32 -54 78 -54 138c0 32.667 6.66699 63 20 91s33.333 49 60 63c19.333 10 41.166 16.333 65.499 19s53.5 4 87.5 4h21h253v-32h-63zM471.001 649h-88v-714h88v714zM225.001 532
v-65.002c0 -33.333 5 -59.666 15 -78.999c13.333 -25.333 35.333 -38 66 -38l14 1v298c-38 0 -64 -10.667 -78 -32c-11.333 -17.333 -17 -45.666 -17 -84.999z" />
    <glyph glyph-name="periodcentered" unicode="&#xb7;" horiz-adv-x="278" 
d="M106 253c0 16 6 30.001 18 42.001s26.333 18 43 18c16 0 30 -6 42 -18s18 -26 18 -42s-6 -30 -18 -42s-26 -18 -42 -18c-16.667 0 -31 5.66699 -43 17s-18 25.666 -18 42.999z" />
    <glyph glyph-name="periodcentered" unicode="&#x2219;" horiz-adv-x="278" 
d="M106 253c0 16 6 30.001 18 42.001s26.333 18 43 18c16 0 30 -6 42 -18s18 -26 18 -42s-6 -30 -18 -42s-26 -18 -42 -18c-16.667 0 -31 5.66699 -43 17s-18 25.666 -18 42.999z" />
    <glyph glyph-name="cedilla" unicode="&#xb8;" horiz-adv-x="500" 
d="M468 279l-1.99512 -39.001l-203 3l-143 -3c0 -60 14 -109 42 -147c31.333 -42 75.666 -63 132.999 -63c23.333 0 48.166 5.83301 74.499 17.5s47.833 25.834 64.5 42.501c2.66699 4 7.33398 6.33301 14.001 7l-6 -50c-26 -18.667 -53.333 -33.167 -82 -43.5
s-58.667 -15.5 -90 -15.5c-12.667 0 -24.334 1 -35.001 3c-16 4 -27.667 6.66699 -35 8c-24.667 5.33301 -48.834 16.666 -72.501 33.999s-42.334 36.833 -56.001 58.5s-23.334 44.167 -29.001 67.5s-8.5 48.666 -8.5 75.999c0 33.333 5.33301 66.333 16 99
s26.167 59.834 46.5 81.501s45.5 38.334 75.5 50.001s60.333 17.5 91 17.5c64.667 0 115 -18 151 -54s54 -86 54 -150zM388.005 279.999c0 49.333 -8.33398 88 -25.001 116c-21.333 36 -54.666 54 -99.999 54c-44.667 0 -80 -18 -106 -54c-23.333 -32 -35 -70.667 -35 -116
l131 -3zM348.004 550.999c-12 0 -22.667 4.66699 -32 14s-14 20 -14 32s4.5 22.833 13.5 32.5s19.833 14.5 32.5 14.5c12 0 22.667 -4.66699 32 -14s14 -20.333 14 -33c0 -12 -4.66699 -22.667 -14 -32s-20 -14 -32 -14zM152.004 550.999c-12 0 -22.667 4.66699 -32 14
s-14 20 -14 32s4.5 22.833 13.5 32.5s19.833 14.5 32.5 14.5s23.667 -4.66699 33 -14s14 -20.333 14 -33c0 -12 -4.66699 -22.667 -14 -32s-20.333 -14 -33 -14z" />
    <glyph glyph-name="onesuperior" unicode="&#xb9;" horiz-adv-x="1111" 
d="M783 552c0 42.667 15.667 77.333 47 104s70.666 40 117.999 40c46.667 0 84.334 -14.667 113.001 -44c13.333 -13.333 23 -28.833 29 -46.5s9 -36.167 9 -55.5c0 -28.667 -7.5 -55 -22.5 -79s-34.667 -41.667 -59 -53s-51.166 -17 -80.499 -17
c-22.667 0 -45 4.33301 -67 13c-8.66699 3.33301 -16.334 7 -23.001 11s-15.667 11.667 -27 23c-14.667 14.667 -24.5 30 -29.5 46s-7.5 35.333 -7.5 58zM948 677.999c-38 0 -66.332 -14.667 -84.999 -44c-15.333 -24 -23 -54.333 -23 -91c0 -34 7.66699 -62 23 -84
c18.667 -26.667 45 -40 79 -40s60 16.333 78 49c14.667 26 22 54.333 22 85c0 32 -6.66699 59.333 -20 82c-16.667 28.667 -41.334 43 -74.001 43zM796.001 342.999h290v-30h-290v30zM101.001 131.999l6.99902 232v334h17l492 -526l7 -6l3 109v320l-4 80l-1 8l43 -3l25 3
l-2 -24l-5 -98l-9 -237l-3 -224l3 -113h-15l-61 71l-163 181l-279 297l-2 -94v-148v-80l3 -118l5 -96c-11.333 2 -22.666 3 -33.999 3s-23 -1 -35 -3c2 22.667 3.83301 47.5 5.5 74.5s2.5 46.167 2.5 57.5z" />
    <glyph glyph-name="ordmasculine" unicode="&#xba;" horiz-adv-x="481" 
d="M120 232c0 -25.333 4 -50.3301 12 -74.9971s19.833 -47 35.5 -67s35.667 -35.833 60 -47.5s49.833 -17.5 76.5 -17.5c28 0 51.833 4.83301 71.5 14.5s41.834 25.5 66.501 47.5l6 -3l-5 -46c-45.333 -33.333 -96.333 -50 -153 -50c-54 0 -99.333 9.33301 -136 28
c-40.667 20.667 -72.334 54 -95.001 100c-8.66699 17.333 -15 36.5 -19 57.5s-6 41.833 -6 62.5c0 76 24 135.667 72 179s110.333 65 187 65c30.667 0 58.667 -3.16699 84 -9.5s50 -16.833 74 -31.5l-23 -66h-8c-15.333 21.333 -33.333 38.666 -54 51.999
c-24 15.333 -48 23 -72 23c-50 0 -90.667 -18 -122 -54c-28.667 -32.667 -45.667 -74.334 -51 -125.001h147c24 0 49 1.66699 75 5c-1.33301 -10.667 -2 -18.334 -2 -23.001c0 -4 0.666992 -11.333 2 -22c-22 2 -41 3 -57 3h-18h-148z" />
    <glyph glyph-name="guillemotright" unicode="&#xbb;" horiz-adv-x="500" 
d="M277 420l126.001 -185l-121 -190c-8.66699 12 -21.334 20.667 -38.001 26l108 165l-112 158l7 2l15 9zM133.001 420l126 -185.001l-120 -190c-9.33301 12.667 -22 21.334 -38 26.001l107 165l-112 158l7 2c6 2.66699 11.833 6.66699 17.5 12z" />
    <glyph glyph-name="onequarter" unicode="&#xbc;" horiz-adv-x="278" 
d="M182 149l0.00195312 -117.998c0 -46.667 -2.66699 -81.334 -8 -104.001c-8.66699 -36 -26 -66 -52 -90c-34.667 -27.333 -73 -41 -115 -41l-7 29l9 -1c17.333 0 32.666 5.33301 45.999 16c9.33301 8 19.666 21 30.999 39c8 22.667 13.167 46 15.5 70s3.5 52.667 3.5 86
v292v18v16c0 41.333 -2.33301 79.666 -7 114.999l10 -2l24 -2h30l27 4l-3 -22c0 -24.667 -0.666992 -65.667 -2 -123s-2 -88 -2 -92v-90zM196.002 646.002c0 -14 -4.99902 -25.999 -14.999 -35.999s-22 -15 -36 -15s-26 5 -36 15s-15 22 -15 36s5 26 15 36s22 15 36 15
c13.333 0 25.166 -4.83301 35.499 -14.5s15.5 -21.834 15.5 -36.501z" />
    <glyph glyph-name="onehalf" unicode="&#xbd;" horiz-adv-x="500" 
d="M63 132l10.001 -0.00195312c20.667 -34.667 42.667 -59.667 66 -75c26.667 -18 58.667 -27 96 -27c40 0 73.167 13.833 99.5 41.5s39.5 61.834 39.5 102.501c0 31.333 -9.66699 57.666 -29 78.999c-15.333 16.667 -39.333 32.334 -72 47.001c-4 2 -22 9.66699 -54 23
c-38.667 16 -68.334 31 -89.001 45s-37.334 33.333 -50.001 58s-19 50.667 -19 78c0 61.333 22 109.333 66 144c40.667 32 92.667 48 156 48c26.667 0 52.667 -4 78 -12s47 -20 65 -36c-4.66699 -10.667 -8.66699 -20.667 -12 -30c-0.666992 -2 -5.66699 -19.333 -15 -52
h-10c-10.667 28 -26.667 50 -48 66s-46.666 24 -75.999 24c-35.333 0 -65.166 -11.167 -89.499 -33.5s-36.5 -51.166 -36.5 -86.499c0 -38 14.333 -69 43 -93c8 -6.66699 14.667 -11.5 20 -14.5s11.666 -6.16699 18.999 -9.5l38 -17l45 -19l46 -21l33 -18
c12.667 -8 22.667 -16.333 30 -25c13.333 -16.667 23.5 -33.5 30.5 -50.5s10.5 -35.5 10.5 -55.5c0 -70 -24 -125.667 -72 -167c-45.333 -39.333 -103.666 -59 -174.999 -59c-27.333 0 -57.333 5 -90 15s-57 23.667 -73 41c5.33301 14.667 9.16602 28.167 11.499 40.5
s4.83301 28.5 7.5 48.5z" />
    <glyph glyph-name="threequarters" unicode="&#xbe;" horiz-adv-x="389" 
d="M63 94l8.00195 -0.000976562c12 -20 28.5 -36.833 49.5 -50.5s42.833 -20.5 65.5 -20.5c25.333 0 48 8.33301 68 25s30 37.667 30 63c0 30 -12.667 52.333 -38 67c-9.33301 5.33301 -35.333 14.666 -78 27.999l-42 14c-14 6 -26.5 14 -37.5 24s-20.5 23.5 -28.5 40.5
s-12 33.167 -12 48.5c0 46.667 15.333 83 46 109s69.667 39 117 39c38 0 73.333 -7.66699 106 -23l7 -3c-10 -22.667 -18 -46.334 -24 -71.001h-9c-6.66699 17.333 -18 32.333 -34 45s-33 19 -51 19c-26.667 0 -48.334 -6.83301 -65.001 -20.5s-25 -33.834 -25 -60.501
c0 -27.333 9.33301 -48.333 28 -63c13.333 -10.667 35.666 -20 66.999 -28c14.667 -4 31.5 -9.16699 50.5 -15.5s32.167 -12.166 39.5 -17.499c33.333 -26 50 -58 50 -96c0 -29.333 -6.66699 -54.666 -20 -75.999s-33.333 -40.666 -60 -57.999
c-11.333 -7.33301 -27.5 -13.166 -48.5 -17.499s-39.5 -6.5 -55.5 -6.5c-20.667 0 -42.5 2.83301 -65.5 8.5s-42.833 13.5 -59.5 23.5l12 36.5c4 12.333 7 24.5 9 36.5z" />
    <glyph glyph-name="questiondown" unicode="&#xbf;" horiz-adv-x="278" 
d="M98 466l-1.00391 7c4.66699 -0.666992 11.834 -1.33398 21.501 -2.00098s18.834 -1 27.501 -1h24c6.66699 1.33301 11.334 2.33301 14.001 3c0 -38.667 -0.666992 -75.334 -2 -110.001s-2.66602 -76.667 -3.99902 -126c0 -32.667 0.833008 -76.167 2.5 -130.5
s2.5 -86.5 2.5 -96.5l1 -10l-44 3h-21c-6.66699 0 -14 -1 -22 -3c0 26.667 1 66.334 3 119.001s3 92.334 3 119.001c0 32.667 -0.833008 76.167 -2.5 130.5s-2.5 86.833 -2.5 97.5zM236.996 551c-12 0 -22.667 4.66699 -32 14s-14 20 -14 32s4.5 22.833 13.5 32.5
s19.833 14.5 32.5 14.5c12 0 22.667 -4.66699 32 -14s14 -20.333 14 -33c0 -12 -4.66699 -22.667 -14 -32s-20 -14 -32 -14zM40.9961 551c-12 0 -22.667 4.66699 -32 14s-14 20 -14 32s4.5 22.833 13.5 32.5s19.833 14.5 32.5 14.5s23.667 -4.66699 33 -14
s14 -20.333 14 -33c0 -12 -4.66699 -22.667 -14 -32s-20.333 -14 -33 -14z" />
    <glyph glyph-name="Agrave" unicode="&#xc0;" horiz-adv-x="648" 
d="M318 697h20.001l284 -661l17 -36l-51 3h-27c-8.66699 0 -18 -1 -28 -3l-9 29l-45 120l-49 118l-120 3l-134 -3c-38.667 -96.667 -60.334 -151.667 -65.001 -165c-9.33301 -26 -20.333 -60 -33 -102c-4 1.33301 -9.66699 2 -17 2s-13.333 0.333008 -18 1l-37 -3z
M315.001 309h100l-111 256l-109 -255z" />
    <glyph glyph-name="Agrave" unicode="&#x410;" horiz-adv-x="648" 
d="M318 697h20.001l284 -661l17 -36l-51 3h-27c-8.66699 0 -18 -1 -28 -3l-9 29l-45 120l-49 118l-120 3l-134 -3c-38.667 -96.667 -60.334 -151.667 -65.001 -165c-9.33301 -26 -20.333 -60 -33 -102c-4 1.33301 -9.66699 2 -17 2s-13.333 0.333008 -18 1l-37 -3z
M315.001 309h100l-111 256l-109 -255z" />
    <glyph glyph-name="Aacute" unicode="&#xc1;" horiz-adv-x="593" 
d="M182 344l1.99805 -300.999c14 0 32 -0.833008 54 -2.5s35.333 -2.5 40 -2.5c25.333 0 47.5 3.16699 66.5 9.5s36.333 17.333 52 33s27.834 33 36.501 52s13 39.167 13 60.5c0 54.667 -21 96 -63 124c-17.333 11.333 -38.166 18.666 -62.499 21.999s-51.5 5 -81.5 5h-57z
M247.998 681.001h144c11.333 0 30.833 0.666992 58.5 2s42.5 2 44.5 2l-3 -30v-13.5c0 -5 1 -10.5 3 -16.5l-90 7l-100 3h-121l-1 -68v-100l-1 -86l92 1c85.333 0 150.833 -14 196.5 -42s68.5 -71.333 68.5 -130c0 -71.333 -30 -127.666 -90 -168.999
c-26 -18 -59.667 -29.667 -101 -35c-25.333 -3.33301 -62 -5 -110 -5h-120h-25c0 16.667 1.16699 39.667 3.5 69s3.5 48.666 3.5 57.999l2 340l-2 120l-4 97c8 0 20.333 -0.333008 37 -1s29 -1 37 -1z" />
    <glyph glyph-name="Aacute" unicode="&#x411;" horiz-adv-x="593" 
d="M182 344l1.99805 -300.999c14 0 32 -0.833008 54 -2.5s35.333 -2.5 40 -2.5c25.333 0 47.5 3.16699 66.5 9.5s36.333 17.333 52 33s27.834 33 36.501 52s13 39.167 13 60.5c0 54.667 -21 96 -63 124c-17.333 11.333 -38.166 18.666 -62.499 21.999s-51.5 5 -81.5 5h-57z
M247.998 681.001h144c11.333 0 30.833 0.666992 58.5 2s42.5 2 44.5 2l-3 -30v-13.5c0 -5 1 -10.5 3 -16.5l-90 7l-100 3h-121l-1 -68v-100l-1 -86l92 1c85.333 0 150.833 -14 196.5 -42s68.5 -71.333 68.5 -130c0 -71.333 -30 -127.666 -90 -168.999
c-26 -18 -59.667 -29.667 -101 -35c-25.333 -3.33301 -62 -5 -110 -5h-120h-25c0 16.667 1.16699 39.667 3.5 69s3.5 48.666 3.5 57.999l2 340l-2 120l-4 97c8 0 20.333 -0.333008 37 -1s29 -1 37 -1z" />
    <glyph glyph-name="Acircumflex" unicode="&#xc2;" horiz-adv-x="593" 
d="M170 683l76.999 1.99902h44c14 0 27.667 -0.166992 41 -0.5s29.5 -2 48.5 -5s35.333 -6.66699 49 -11s26.834 -12.166 39.501 -23.499c30 -26 45 -59.667 45 -101c0 -44.667 -14.833 -82.5 -44.5 -113.5s-67.5 -52.167 -113.5 -63.5l12 -1l48.5 -11
c17 -4 30.833 -9.33301 41.5 -16c14.667 -9.33301 25 -16.333 31 -21c9.33301 -7.33301 17.833 -16.833 25.5 -28.5s13.667 -24.5 18 -38.5s6.5 -27.667 6.5 -41c0 -71.333 -30 -127.666 -90 -168.999c-26 -18 -59.667 -29.667 -101 -35c-25.333 -3.33301 -62 -5 -110 -5
h-120h-25c0 16.667 1.16699 39.667 3.5 69s3.5 48.666 3.5 57.999l2 340l-2 120l-4 97c8 0 20.333 -0.333008 37 -1s29 -1 37 -1zM182.999 566.999l-0.000976562 -99.9961l-1 -86h43c28 0 51 1.16699 69 3.5s36.667 8.16602 56 17.499c51.333 24 77 64.333 77 121
c0 21.333 -5 42.166 -15 62.499s-23.333 34.666 -40 42.999s-34.167 13.666 -52.5 15.999s-39.166 3.5 -62.499 3.5l-72 -3c0 -8.66699 -0.333008 -21.667 -1 -39s-1 -30.333 -1 -39zM181.998 344.003l1.99805 -300.999c14 0 32 -0.833008 54 -2.5s35.333 -2.5 40 -2.5
c25.333 0 47.5 3.16699 66.5 9.5s36.333 17.333 52 33s27.834 33 36.501 52s13 39.167 13 60.5c0 54.667 -21 96 -63 124c-17.333 11.333 -38.166 18.666 -62.499 21.999s-51.5 5 -81.5 5h-57z" />
    <glyph glyph-name="Acircumflex" unicode="&#x412;" horiz-adv-x="593" 
d="M170 683l76.999 1.99902h44c14 0 27.667 -0.166992 41 -0.5s29.5 -2 48.5 -5s35.333 -6.66699 49 -11s26.834 -12.166 39.501 -23.499c30 -26 45 -59.667 45 -101c0 -44.667 -14.833 -82.5 -44.5 -113.5s-67.5 -52.167 -113.5 -63.5l12 -1l48.5 -11
c17 -4 30.833 -9.33301 41.5 -16c14.667 -9.33301 25 -16.333 31 -21c9.33301 -7.33301 17.833 -16.833 25.5 -28.5s13.667 -24.5 18 -38.5s6.5 -27.667 6.5 -41c0 -71.333 -30 -127.666 -90 -168.999c-26 -18 -59.667 -29.667 -101 -35c-25.333 -3.33301 -62 -5 -110 -5
h-120h-25c0 16.667 1.16699 39.667 3.5 69s3.5 48.666 3.5 57.999l2 340l-2 120l-4 97c8 0 20.333 -0.333008 37 -1s29 -1 37 -1zM182.999 566.999l-0.000976562 -99.9961l-1 -86h43c28 0 51 1.16699 69 3.5s36.667 8.16602 56 17.499c51.333 24 77 64.333 77 121
c0 21.333 -5 42.166 -15 62.499s-23.333 34.666 -40 42.999s-34.167 13.666 -52.5 15.999s-39.166 3.5 -62.499 3.5l-72 -3c0 -8.66699 -0.333008 -21.667 -1 -39s-1 -30.333 -1 -39zM181.998 344.003l1.99805 -300.999c14 0 32 -0.833008 54 -2.5s35.333 -2.5 40 -2.5
c25.333 0 47.5 3.16699 66.5 9.5s36.333 17.333 52 33s27.834 33 36.501 52s13 39.167 13 60.5c0 54.667 -21 96 -63 124c-17.333 11.333 -38.166 18.666 -62.499 21.999s-51.5 5 -81.5 5h-57z" />
    <glyph glyph-name="Atilde" unicode="&#xc3;" horiz-adv-x="481" 
d="M197 681h144c11.333 0 30.833 0.666992 58.5 2s42.5 2 44.5 2l-3 -30v-13.5c0 -5 1 -10.5 3 -16.5l-90 7l-100 3h-73l-5 -150v-226l2 -258h-65h-26l6 126l3 342l-2 88l-5 128z" />
    <glyph glyph-name="Atilde" unicode="&#x413;" horiz-adv-x="481" 
d="M197 681h144c11.333 0 30.833 0.666992 58.5 2s42.5 2 44.5 2l-3 -30v-13.5c0 -5 1 -10.5 3 -16.5l-90 7l-100 3h-73l-5 -150v-226l2 -258h-65h-26l6 126l3 342l-2 88l-5 128z" />
    <glyph glyph-name="Adieresis" unicode="&#xc4;" horiz-adv-x="667" 
d="M525 53l-36 96.001l-64 160c-16.667 45.333 -39.667 100.666 -69 165.999c-10 22.667 -24 52.667 -42 90l-22 -50l-50 -116l-56 -132c-32.667 -76 -60 -147.333 -82 -214c19.333 0 52.333 -1 99 -3s85 -3 115 -3c25.333 0 61 1 107 3s79.333 3 100 3zM37 47.001
l288.001 644h26l276 -644h42c-2 -11.333 -3 -24.333 -3 -39l3 -60h-12c-12.667 23.333 -34.334 39 -65.001 47c-20.667 5.33301 -55 8 -103 8c-12 1.33301 -31 2 -57 2s-46.333 0.333008 -61 1h-33c-20 0 -43.833 -0.333008 -71.5 -1l-81.5 -2c-48 0 -85 -3.16699 -111 -9.5
s-47.667 -21.5 -65 -45.5h-12l3 60l-3 39h40z" />
    <glyph glyph-name="Adieresis" unicode="&#x414;" horiz-adv-x="667" 
d="M525 53l-36 96.001l-64 160c-16.667 45.333 -39.667 100.666 -69 165.999c-10 22.667 -24 52.667 -42 90l-22 -50l-50 -116l-56 -132c-32.667 -76 -60 -147.333 -82 -214c19.333 0 52.333 -1 99 -3s85 -3 115 -3c25.333 0 61 1 107 3s79.333 3 100 3zM37 47.001
l288.001 644h26l276 -644h42c-2 -11.333 -3 -24.333 -3 -39l3 -60h-12c-12.667 23.333 -34.334 39 -65.001 47c-20.667 5.33301 -55 8 -103 8c-12 1.33301 -31 2 -57 2s-46.333 0.333008 -61 1h-33c-20 0 -43.833 -0.333008 -71.5 -1l-81.5 -2c-48 0 -85 -3.16699 -111 -9.5
s-47.667 -21.5 -65 -45.5h-12l3 60l-3 39h40z" />
    <glyph glyph-name="Aring" unicode="&#xc5;" horiz-adv-x="500" 
d="M197 681h144c11.333 0 30.833 0.666992 58.5 2s42.5 2 44.5 2l-3 -30v-13.5c0 -5 1 -10.5 3 -16.5l-90 7l-100 3h-73l-5 -150v-45l1 -57h101l54 3l89 5c-2 -6.66699 -3.33301 -11.667 -4 -15s-1 -8.33301 -1 -15c0 -8 0.666992 -14.5 2 -19.5s2 -8.5 2 -10.5l-46.5 4
c-15 1.33301 -28.833 2 -41.5 2l-56 2h-43h-56l-1 -80v-125l2 -87c20.667 0 55 0.666992 103 2s73.667 2 77 2c18.667 0 32.5 0.5 41.5 1.5s25.5 3.5 49.5 7.5c-2 -10 -3 -20 -3 -30c0 -8 0.666992 -14.5 2 -19.5s2 -8.5 2 -10.5l-69 2l-123 2l-87 -1l-84 -2l6 126l3 342
l-2 88l-5 128z" />
    <glyph glyph-name="Aring" unicode="&#x415;" horiz-adv-x="500" 
d="M197 681h144c11.333 0 30.833 0.666992 58.5 2s42.5 2 44.5 2l-3 -30v-13.5c0 -5 1 -10.5 3 -16.5l-90 7l-100 3h-73l-5 -150v-45l1 -57h101l54 3l89 5c-2 -6.66699 -3.33301 -11.667 -4 -15s-1 -8.33301 -1 -15c0 -8 0.666992 -14.5 2 -19.5s2 -8.5 2 -10.5l-46.5 4
c-15 1.33301 -28.833 2 -41.5 2l-56 2h-43h-56l-1 -80v-125l2 -87c20.667 0 55 0.666992 103 2s73.667 2 77 2c18.667 0 32.5 0.5 41.5 1.5s25.5 3.5 49.5 7.5c-2 -10 -3 -20 -3 -30c0 -8 0.666992 -14.5 2 -19.5s2 -8.5 2 -10.5l-69 2l-123 2l-87 -1l-84 -2l6 126l3 342
l-2 88l-5 128z" />
    <glyph glyph-name="AE" unicode="&#xc6;" horiz-adv-x="889" 
d="M491 683c-0.666992 -4.66699 -1.16699 -9.83203 -1.5 -15.499s-0.5 -10.167 -0.5 -13.5l-5 -265l1 -17c4.66699 -4 7.66699 -6 9 -6l27 21l83 88c23.333 25.333 70.333 79.666 141 162.999l39 45l34 -2l42 2l-210 -220l-81 -86l227 -275l76 -95v-7
c-7.33301 -0 -17.166 0.833008 -29.499 2.5s-19.833 2.5 -22.5 2.5c-7.33301 0 -17 -0.833008 -29 -2.5s-19.333 -2.5 -22 -2.5l-66 88l-124 161l-77 94c-6 6 -11.667 7 -17 3l-1 -14l1 -106v-102l4 -99l2 -25c-6 0.666992 -12.667 1.66699 -20 3s-15.666 2 -24.999 2
c-12.667 0 -25.667 -1 -39 -3c-2 0 -5 -0.666992 -9 -2l2 25l4 99v102l1 106l-1 14c-6.66699 4.66699 -12.334 3.66699 -17.001 -3l-77 -94l-124 -161l-66 -88c-8 -0 -17.833 0.833008 -29.5 2.5s-18.834 2.5 -21.501 2.5c-7.33301 0 -17.166 -0.833008 -29.499 -2.5
s-19.833 -2.5 -22.5 -2.5v7l76 95l113 138l114 137l-81 86l-210 220l42 -2l34 2l62 -74l118 -134l83 -88l27 -21c1.33301 0 4.33301 2 9 6l1 17l-5 265v11c0 4 -0.666992 10 -2 18c6 -1.33301 13 -2.33301 21 -3s17 -1 27 -1c9.33301 0 17.666 0.333008 24.999 1
s14 1.66699 20 3z" />
    <glyph glyph-name="AE" unicode="&#x416;" horiz-adv-x="889" 
d="M491 683c-0.666992 -4.66699 -1.16699 -9.83203 -1.5 -15.499s-0.5 -10.167 -0.5 -13.5l-5 -265l1 -17c4.66699 -4 7.66699 -6 9 -6l27 21l83 88c23.333 25.333 70.333 79.666 141 162.999l39 45l34 -2l42 2l-210 -220l-81 -86l227 -275l76 -95v-7
c-7.33301 -0 -17.166 0.833008 -29.499 2.5s-19.833 2.5 -22.5 2.5c-7.33301 0 -17 -0.833008 -29 -2.5s-19.333 -2.5 -22 -2.5l-66 88l-124 161l-77 94c-6 6 -11.667 7 -17 3l-1 -14l1 -106v-102l4 -99l2 -25c-6 0.666992 -12.667 1.66699 -20 3s-15.666 2 -24.999 2
c-12.667 0 -25.667 -1 -39 -3c-2 0 -5 -0.666992 -9 -2l2 25l4 99v102l1 106l-1 14c-6.66699 4.66699 -12.334 3.66699 -17.001 -3l-77 -94l-124 -161l-66 -88c-8 -0 -17.833 0.833008 -29.5 2.5s-18.834 2.5 -21.501 2.5c-7.33301 0 -17.166 -0.833008 -29.499 -2.5
s-19.833 -2.5 -22.5 -2.5v7l76 95l113 138l114 137l-81 86l-210 220l42 -2l34 2l62 -74l118 -134l83 -88l27 -21c1.33301 0 4.33301 2 9 6l1 17l-5 265v11c0 4 -0.666992 10 -2 18c6 -1.33301 13 -2.33301 21 -3s17 -1 27 -1c9.33301 0 17.666 0.333008 24.999 1
s14 1.66699 20 3z" />
    <glyph glyph-name="Ccedilla" unicode="&#xc7;" horiz-adv-x="536" 
d="M49 48l2 57.001c23.333 -25.333 50.5 -45.166 81.5 -59.499s61.833 -21.5 92.5 -21.5c49.333 0 89.333 17 120 51s46 75 46 123c0 43.333 -13 77.666 -39 102.999c-29.333 28 -72 42 -128 42c-10 0 -19.667 -0.166992 -29 -0.5s-20 -1.5 -32 -3.5
c1.33301 9.33301 2 16.333 2 21v9c-1.33301 6 -2 10.333 -2 13c7.33301 -1.33301 14.166 -2 20.499 -2h19.5c51.333 0 90.5 13.5 117.5 40.5s40.5 61.5 40.5 103.5c0 39.333 -11 71 -33 95c-24 26 -57.667 39 -101 39c-39.333 0 -73.333 -9.66699 -102 -29
c-23.333 -16 -42.333 -37 -57 -63l-14 2c0 9.33301 0.333008 24.333 1 45s1 35.334 1 44.001c58 26 118.667 39 182 39c70.667 0 124.167 -14.333 160.5 -43s54.5 -66.334 54.5 -113.001c0 -38.667 -12 -73.334 -36 -104.001s-59 -54.334 -105 -71.001
c56.667 0 100.334 -16 131.001 -48c28.667 -30 43 -68.333 43 -115c0 -60 -22 -110.333 -66 -151c-47.333 -44 -110.333 -66 -189 -66c-34 0 -65.833 4.83301 -95.5 14.5s-58.5 25.834 -86.5 48.501z" />
    <glyph glyph-name="Ccedilla" unicode="&#x417;" horiz-adv-x="536" 
d="M49 48l2 57.001c23.333 -25.333 50.5 -45.166 81.5 -59.499s61.833 -21.5 92.5 -21.5c49.333 0 89.333 17 120 51s46 75 46 123c0 43.333 -13 77.666 -39 102.999c-29.333 28 -72 42 -128 42c-10 0 -19.667 -0.166992 -29 -0.5s-20 -1.5 -32 -3.5
c1.33301 9.33301 2 16.333 2 21v9c-1.33301 6 -2 10.333 -2 13c7.33301 -1.33301 14.166 -2 20.499 -2h19.5c51.333 0 90.5 13.5 117.5 40.5s40.5 61.5 40.5 103.5c0 39.333 -11 71 -33 95c-24 26 -57.667 39 -101 39c-39.333 0 -73.333 -9.66699 -102 -29
c-23.333 -16 -42.333 -37 -57 -63l-14 2c0 9.33301 0.333008 24.333 1 45s1 35.334 1 44.001c58 26 118.667 39 182 39c70.667 0 124.167 -14.333 160.5 -43s54.5 -66.334 54.5 -113.001c0 -38.667 -12 -73.334 -36 -104.001s-59 -54.334 -105 -71.001
c56.667 0 100.334 -16 131.001 -48c28.667 -30 43 -68.333 43 -115c0 -60 -22 -110.333 -66 -151c-47.333 -44 -110.333 -66 -189 -66c-34 0 -65.833 4.83301 -95.5 14.5s-58.5 25.834 -86.5 48.501z" />
    <glyph glyph-name="Egrave" unicode="&#xc8;" horiz-adv-x="778" 
d="M595 531c-72 -69.333 -153.328 -154.665 -243.995 -255.998l-247 -288h-15l2 35l4 79c0 30.667 0.666992 75.167 2 133.5s2 91.833 2 100.5v38v206l-5 106c5.33301 0 13.666 -0.666992 24.999 -2s20 -2 26 -2l46 3l-2 -27l-4 -91l-5 -174l-1 -45
c0 -19.333 0.333008 -50.666 1 -93.999s1 -72.333 1 -87c150 147.333 313.333 324.666 490 531.999h17c-0.666992 -5.33301 -1.33398 -12.833 -2.00098 -22.5s-1 -15.834 -1 -18.501c-0.666992 -28 -1.33398 -51 -2.00098 -69c-4.66699 -129.333 -7 -215 -7 -257
c0 -40 0.5 -85.833 1.5 -137.5s1.5 -80.834 1.5 -87.501l5 -106c-6 -0 -14.333 0.833008 -25 2.5s-17.334 2.5 -20.001 2.5c-7.33301 0 -17.333 -0.833008 -30 -2.5s-20.334 -2.5 -23.001 -2.5l2 22l5 103c0 19.333 0.5 60.333 1.5 123s1.5 95.667 1.5 99z" />
    <glyph glyph-name="Egrave" unicode="&#x418;" horiz-adv-x="778" 
d="M595 531c-72 -69.333 -153.328 -154.665 -243.995 -255.998l-247 -288h-15l2 35l4 79c0 30.667 0.666992 75.167 2 133.5s2 91.833 2 100.5v38v206l-5 106c5.33301 0 13.666 -0.666992 24.999 -2s20 -2 26 -2l46 3l-2 -27l-4 -91l-5 -174l-1 -45
c0 -19.333 0.333008 -50.666 1 -93.999s1 -72.333 1 -87c150 147.333 313.333 324.666 490 531.999h17c-0.666992 -5.33301 -1.33398 -12.833 -2.00098 -22.5s-1 -15.834 -1 -18.501c-0.666992 -28 -1.33398 -51 -2.00098 -69c-4.66699 -129.333 -7 -215 -7 -257
c0 -40 0.5 -85.833 1.5 -137.5s1.5 -80.834 1.5 -87.501l5 -106c-6 -0 -14.333 0.833008 -25 2.5s-17.334 2.5 -20.001 2.5c-7.33301 0 -17.333 -0.833008 -30 -2.5s-20.334 -2.5 -23.001 -2.5l2 22l5 103c0 19.333 0.5 60.333 1.5 123s1.5 95.667 1.5 99z" />
    <glyph glyph-name="Eacute" unicode="&#xc9;" horiz-adv-x="778" 
d="M595 531c-72 -69.333 -153.328 -154.665 -243.995 -255.998l-247 -288h-15l2 35l4 79c0 30.667 0.666992 75.167 2 133.5s2 91.833 2 100.5v38v206l-5 106c5.33301 0 13.666 -0.666992 24.999 -2s20 -2 26 -2l46 3l-2 -27l-4 -91l-5 -174l-1 -45
c0 -19.333 0.333008 -50.666 1 -93.999s1 -72.333 1 -87c150 147.333 313.333 324.666 490 531.999h17c-0.666992 -5.33301 -1.33398 -12.833 -2.00098 -22.5s-1 -15.834 -1 -18.501c-0.666992 -28 -1.33398 -51 -2.00098 -69c-4.66699 -129.333 -7 -215 -7 -257
c0 -40 0.5 -85.833 1.5 -137.5s1.5 -80.834 1.5 -87.501l5 -106c-6 -0 -14.333 0.833008 -25 2.5s-17.334 2.5 -20.001 2.5c-7.33301 0 -17.333 -0.833008 -30 -2.5s-20.334 -2.5 -23.001 -2.5l2 22l5 103c0 19.333 0.5 60.333 1.5 123s1.5 95.667 1.5 99zM546.005 834.001
c-14.667 -32 -34.334 -56.333 -59.001 -73c-28 -19.333 -61 -29 -99 -29c-35.333 0 -66.166 9.66699 -92.499 29s-45.5 43.333 -57.5 72l23 17c28 -46.667 71.333 -70 130 -70c29.333 0 55 6 77 18s40 29.333 54 52z" />
    <glyph glyph-name="Eacute" unicode="&#x419;" horiz-adv-x="778" 
d="M595 531c-72 -69.333 -153.328 -154.665 -243.995 -255.998l-247 -288h-15l2 35l4 79c0 30.667 0.666992 75.167 2 133.5s2 91.833 2 100.5v38v206l-5 106c5.33301 0 13.666 -0.666992 24.999 -2s20 -2 26 -2l46 3l-2 -27l-4 -91l-5 -174l-1 -45
c0 -19.333 0.333008 -50.666 1 -93.999s1 -72.333 1 -87c150 147.333 313.333 324.666 490 531.999h17c-0.666992 -5.33301 -1.33398 -12.833 -2.00098 -22.5s-1 -15.834 -1 -18.501c-0.666992 -28 -1.33398 -51 -2.00098 -69c-4.66699 -129.333 -7 -215 -7 -257
c0 -40 0.5 -85.833 1.5 -137.5s1.5 -80.834 1.5 -87.501l5 -106c-6 -0 -14.333 0.833008 -25 2.5s-17.334 2.5 -20.001 2.5c-7.33301 0 -17.333 -0.833008 -30 -2.5s-20.334 -2.5 -23.001 -2.5l2 22l5 103c0 19.333 0.5 60.333 1.5 123s1.5 95.667 1.5 99zM546.005 834.001
c-14.667 -32 -34.334 -56.333 -59.001 -73c-28 -19.333 -61 -29 -99 -29c-35.333 0 -66.166 9.66699 -92.499 29s-45.5 43.333 -57.5 72l23 17c28 -46.667 71.333 -70 130 -70c29.333 0 55 6 77 18s40 29.333 54 52z" />
    <glyph glyph-name="Ecircumflex" unicode="&#xca;" horiz-adv-x="611" 
d="M95 569l-2 91.001l-2 23l12 -2c10 -2 20.333 -3 31 -3c6 0 11.833 0.166992 17.5 0.5s16.834 1.83301 33.501 4.5c-0.666992 -4.66699 -1.16699 -9.83398 -1.5 -15.501s-0.5 -10.167 -0.5 -13.5l-5 -265l1 -17c4.66699 -4 7.66699 -6 9 -6l28 21l41 40l49 48l194 208
l36 -2l43 2l-224 -220l-85 -86l243 -275l81 -95v-7c-7.33301 -0 -13.666 0.333008 -18.999 1c-20 2.66699 -31.333 4 -34 4c-8.66699 0 -19.667 -0.833008 -33 -2.5s-21 -2.5 -23 -2.5l-71 88l-135 161l-83 94c-6.66699 5.33301 -12.334 6.33301 -17.001 3l-1 -14l1 -106
v-102l4 -99l2 -25c-10 2 -19.667 3 -29 3c-4.66699 0 -12.334 -0.333008 -23.001 -1s-18.667 -1 -24 -1l-19 -1l2 26l6 177l2 139l-2 133z" />
    <glyph glyph-name="Ecircumflex" unicode="&#x41a;" horiz-adv-x="611" 
d="M95 569l-2 91.001l-2 23l12 -2c10 -2 20.333 -3 31 -3c6 0 11.833 0.166992 17.5 0.5s16.834 1.83301 33.501 4.5c-0.666992 -4.66699 -1.16699 -9.83398 -1.5 -15.501s-0.5 -10.167 -0.5 -13.5l-5 -265l1 -17c4.66699 -4 7.66699 -6 9 -6l28 21l41 40l49 48l194 208
l36 -2l43 2l-224 -220l-85 -86l243 -275l81 -95v-7c-7.33301 -0 -13.666 0.333008 -18.999 1c-20 2.66699 -31.333 4 -34 4c-8.66699 0 -19.667 -0.833008 -33 -2.5s-21 -2.5 -23 -2.5l-71 88l-135 161l-83 94c-6.66699 5.33301 -12.334 6.33301 -17.001 3l-1 -14l1 -106
v-102l4 -99l2 -25c-10 2 -19.667 3 -29 3c-4.66699 0 -12.334 -0.333008 -23.001 -1s-18.667 -1 -24 -1l-19 -1l2 26l6 177l2 139l-2 133z" />
    <glyph glyph-name="Edieresis" unicode="&#xcb;" horiz-adv-x="648" 
d="M415 309c-16.667 45.333 -39.6689 100.667 -69.002 166c-10 22.667 -24 52.667 -42 90l-22 -50l-50 -116l-56 -132c-21.333 -48.667 -39.666 -94.167 -54.999 -136.5s-29.666 -85.833 -42.999 -130.5c-4 1.33301 -9.66699 2 -17 2s-13.333 0.333008 -18 1l-37 -3l309 691
h26l281 -655l17 -36l-51 3h-27c-8.66699 0 -18 -1 -28 -3l-9 29l-45 120z" />
    <glyph glyph-name="Edieresis" unicode="&#x41b;" horiz-adv-x="648" 
d="M415 309c-16.667 45.333 -39.6689 100.667 -69.002 166c-10 22.667 -24 52.667 -42 90l-22 -50l-50 -116l-56 -132c-21.333 -48.667 -39.666 -94.167 -54.999 -136.5s-29.666 -85.833 -42.999 -130.5c-4 1.33301 -9.66699 2 -17 2s-13.333 0.333008 -18 1l-37 -3l309 691
h26l281 -655l17 -36l-51 3h-27c-8.66699 0 -18 -1 -28 -3l-9 29l-45 120z" />
    <glyph glyph-name="Igrave" unicode="&#xcc;" horiz-adv-x="889" 
d="M142 693l17.002 0.00195312l136 -264c44 -84 95.333 -174.667 154 -272l78 142l131 242l85 152h13l49 -433c5.33301 -48.667 10.666 -93.334 15.999 -134.001l17 -126l-45 3h-24c-8 0 -16.333 -1 -25 -3l-32 364l-18 149l-141 -258l-53 -104l-25 -53l-43 -90h-11l-55 113
l-64 129.5l-69 132.5l-69 130l-43 -391l-5 -100l-1 -22c-13.333 2 -26.333 3 -39 3c-10.667 0 -21 -1 -31 -3l1 9l33 206l49 363c3.33301 19.333 6.16602 40.166 8.49902 62.499z" />
    <glyph glyph-name="Igrave" unicode="&#x41c;" horiz-adv-x="889" 
d="M142 693l17.002 0.00195312l136 -264c44 -84 95.333 -174.667 154 -272l78 142l131 242l85 152h13l49 -433c5.33301 -48.667 10.666 -93.334 15.999 -134.001l17 -126l-45 3h-24c-8 0 -16.333 -1 -25 -3l-32 364l-18 149l-141 -258l-53 -104l-25 -53l-43 -90h-11l-55 113
l-64 129.5l-69 132.5l-69 130l-43 -391l-5 -100l-1 -22c-13.333 2 -26.333 3 -39 3c-10.667 0 -21 -1 -31 -3l1 9l33 206l49 363c3.33301 19.333 6.16602 40.166 8.49902 62.499z" />
    <glyph glyph-name="Iacute" unicode="&#xcd;" horiz-adv-x="778" 
d="M596 347h-416.995l3 -217l4 -108l2 -22c-6.66699 -0 -15.5 0.833008 -26.5 2.5s-17.5 2.5 -19.5 2.5c-7.33301 0 -17.333 -0.833008 -30 -2.5s-20.334 -2.5 -23.001 -2.5l2 22l4 79l4 234v38v206l-5 106c5.33301 0 13.666 -0.666992 24.999 -2s20 -2 26 -2l46 3l-2 -27
l-4 -91l-5 -174l129 -3l286 3v212l-5 81c5.33301 0 13.666 -0.666992 24.999 -2s20 -2 26 -2l47 3l-3 -27l-9 -326l3 -225l5 -106c-6 -0 -14.333 0.833008 -25 2.5s-17.334 2.5 -20.001 2.5c-7.33301 0 -17.333 -0.833008 -30 -2.5s-20.334 -2.5 -23.001 -2.5l2 22l5 103z
" />
    <glyph glyph-name="Iacute" unicode="&#x41d;" horiz-adv-x="778" 
d="M596 347h-416.995l3 -217l4 -108l2 -22c-6.66699 -0 -15.5 0.833008 -26.5 2.5s-17.5 2.5 -19.5 2.5c-7.33301 0 -17.333 -0.833008 -30 -2.5s-20.334 -2.5 -23.001 -2.5l2 22l4 79l4 234v38v206l-5 106c5.33301 0 13.666 -0.666992 24.999 -2s20 -2 26 -2l46 3l-2 -27
l-4 -91l-5 -174l129 -3l286 3v212l-5 81c5.33301 0 13.666 -0.666992 24.999 -2s20 -2 26 -2l47 3l-3 -27l-9 -326l3 -225l5 -106c-6 -0 -14.333 0.833008 -25 2.5s-17.334 2.5 -20.001 2.5c-7.33301 0 -17.333 -0.833008 -30 -2.5s-20.334 -2.5 -23.001 -2.5l2 22l5 103z
" />
    <glyph glyph-name="Icircumflex" unicode="&#xce;" horiz-adv-x="833" 
d="M694 347c0 45.333 -4.00195 83.999 -12.002 115.999c-10 38.667 -27.167 73.834 -51.5 105.501s-54.666 55.834 -90.999 72.501s-75.166 25 -116.499 25c-63.333 0 -119 -17.667 -167 -53c-40.667 -30 -70.667 -72.667 -90 -128c-16.667 -47.333 -25 -100 -25 -158
c0 -44.667 5.33301 -85.167 16 -121.5s29 -69.5 55 -99.5c52.667 -60 120 -90 202 -90c69.333 0 128.5 22.5 177.5 67.5s80.167 102.5 93.5 172.5c6 29.333 9 59.666 9 90.999zM412.998 700.999c36.667 0 71.5 -3.16797 104.5 -9.50098s63.833 -17.166 92.5 -32.499
c121.333 -64 182 -164.667 182 -302c0 -111.333 -35.5 -201.166 -106.5 -269.499s-162.5 -102.5 -274.5 -102.5c-78 0 -145.333 16 -202 48c-59.333 34 -105.333 85 -138 153c-4.66699 10 -9 22.833 -13 38.5s-7 29.5 -9 41.5c-4 25.333 -6 50.333 -6 75
c0 51.333 9.5 99.666 28.5 144.999s46.833 84.5 83.5 117.5s76.5 57.5 119.5 73.5s89.167 24 138.5 24z" />
    <glyph glyph-name="Icircumflex" unicode="&#x41e;" horiz-adv-x="833" 
d="M694 347c0 45.333 -4.00195 83.999 -12.002 115.999c-10 38.667 -27.167 73.834 -51.5 105.501s-54.666 55.834 -90.999 72.501s-75.166 25 -116.499 25c-63.333 0 -119 -17.667 -167 -53c-40.667 -30 -70.667 -72.667 -90 -128c-16.667 -47.333 -25 -100 -25 -158
c0 -44.667 5.33301 -85.167 16 -121.5s29 -69.5 55 -99.5c52.667 -60 120 -90 202 -90c69.333 0 128.5 22.5 177.5 67.5s80.167 102.5 93.5 172.5c6 29.333 9 59.666 9 90.999zM412.998 700.999c36.667 0 71.5 -3.16797 104.5 -9.50098s63.833 -17.166 92.5 -32.499
c121.333 -64 182 -164.667 182 -302c0 -111.333 -35.5 -201.166 -106.5 -269.499s-162.5 -102.5 -274.5 -102.5c-78 0 -145.333 16 -202 48c-59.333 34 -105.333 85 -138 153c-4.66699 10 -9 22.833 -13 38.5s-7 29.5 -9 41.5c-4 25.333 -6 50.333 -6 75
c0 51.333 9.5 99.666 28.5 144.999s46.833 84.5 83.5 117.5s76.5 57.5 119.5 73.5s89.167 24 138.5 24z" />
    <glyph glyph-name="Idieresis" unicode="&#xcf;" horiz-adv-x="778" 
d="M595 633c-26.667 0 -64.998 0.833008 -114.998 2.5s-83.333 2.5 -100 2.5c-33.333 0 -72 -0.833008 -116 -2.5s-72 -2.5 -84 -2.5v-209.5c0 -69 0.166992 -135.167 0.5 -198.5s0.833008 -95 1.5 -95l4 -108l2 -22c-6.66699 -0 -15.5 0.833008 -26.5 2.5
s-17.5 2.5 -19.5 2.5c-7.33301 0 -17.333 -0.833008 -30 -2.5s-20.334 -2.5 -23.001 -2.5l2 22l4 79l4 234v38v206l-5 106c52 0 110.5 -0.833008 175.5 -2.5s103.5 -2.5 115.5 -2.5c28.667 0 81.834 0.666992 159.501 2s125.5 2 143.5 2l-3 -27l-9 -326l3 -225l5 -106
c-6 -0 -14.333 0.833008 -25 2.5s-17.334 2.5 -20.001 2.5c-7.33301 0 -17.333 -0.833008 -30 -2.5s-20.334 -2.5 -23.001 -2.5l2 22l5 103z" />
    <glyph glyph-name="Idieresis" unicode="&#x41f;" horiz-adv-x="778" 
d="M595 633c-26.667 0 -64.998 0.833008 -114.998 2.5s-83.333 2.5 -100 2.5c-33.333 0 -72 -0.833008 -116 -2.5s-72 -2.5 -84 -2.5v-209.5c0 -69 0.166992 -135.167 0.5 -198.5s0.833008 -95 1.5 -95l4 -108l2 -22c-6.66699 -0 -15.5 0.833008 -26.5 2.5
s-17.5 2.5 -19.5 2.5c-7.33301 0 -17.333 -0.833008 -30 -2.5s-20.334 -2.5 -23.001 -2.5l2 22l4 79l4 234v38v206l-5 106c52 0 110.5 -0.833008 175.5 -2.5s103.5 -2.5 115.5 -2.5c28.667 0 81.834 0.666992 159.501 2s125.5 2 143.5 2l-3 -27l-9 -326l3 -225l5 -106
c-6 -0 -14.333 0.833008 -25 2.5s-17.334 2.5 -20.001 2.5c-7.33301 0 -17.333 -0.833008 -30 -2.5s-20.334 -2.5 -23.001 -2.5l2 22l5 103z" />
    <glyph glyph-name="Eth" unicode="&#xd0;" 
d="M182 311l0.00292969 -72.999v-44l3 -173v-22l-46 3l-50 -2l2 25l9 193l-4 351l-5 114c10 -1.33301 20 -2 30 -2h31l121 2c69.333 0 119.666 -4.66699 150.999 -14c54.667 -16.667 88.334 -50.334 101.001 -101.001c4 -17.333 6 -34.333 6 -51
c0 -17.333 -2.83301 -36.333 -8.5 -57s-12.834 -37.667 -21.501 -51c-10.667 -16.667 -21.167 -29.334 -31.5 -38.001s-25.333 -17.667 -45 -27s-35.334 -15.666 -47.001 -18.999s-31.834 -7.33301 -60.501 -12c-6.66699 -1.33301 -16.667 -2.33301 -30 -3
s-23.333 -1 -30 -1zM183.003 618.001l-1.99902 -57v-211c4.66699 -0.666992 11.667 -1.33398 21 -2.00098s18.333 -1 27 -1l52 3c27.333 2.66699 49.333 7 66 13c21.333 8 39.666 20.667 54.999 38c10.667 12 19.5 28.833 26.5 50.5s10.5 41.834 10.5 60.501
c0 16.667 -2.66699 33.5 -8 50.5s-13 31.167 -23 42.5s-22.167 19.833 -36.5 25.5s-29.333 9.16699 -45 10.5l-34.5 3c-7.33301 0.666992 -14.333 1 -21 1l-88 -3v-24z" />
    <glyph glyph-name="Eth" unicode="&#x420;" 
d="M182 311l0.00292969 -72.999v-44l3 -173v-22l-46 3l-50 -2l2 25l9 193l-4 351l-5 114c10 -1.33301 20 -2 30 -2h31l121 2c69.333 0 119.666 -4.66699 150.999 -14c54.667 -16.667 88.334 -50.334 101.001 -101.001c4 -17.333 6 -34.333 6 -51
c0 -17.333 -2.83301 -36.333 -8.5 -57s-12.834 -37.667 -21.501 -51c-10.667 -16.667 -21.167 -29.334 -31.5 -38.001s-25.333 -17.667 -45 -27s-35.334 -15.666 -47.001 -18.999s-31.834 -7.33301 -60.501 -12c-6.66699 -1.33301 -16.667 -2.33301 -30 -3
s-23.333 -1 -30 -1zM183.003 618.001l-1.99902 -57v-211c4.66699 -0.666992 11.667 -1.33398 21 -2.00098s18.333 -1 27 -1l52 3c27.333 2.66699 49.333 7 66 13c21.333 8 39.666 20.667 54.999 38c10.667 12 19.5 28.833 26.5 50.5s10.5 41.834 10.5 60.501
c0 16.667 -2.66699 33.5 -8 50.5s-13 31.167 -23 42.5s-22.167 19.833 -36.5 25.5s-29.333 9.16699 -45 10.5l-34.5 3c-7.33301 0.666992 -14.333 1 -21 1l-88 -3v-24z" />
    <glyph glyph-name="Ntilde" unicode="&#xd1;" horiz-adv-x="667" 
d="M609 573l-7 -1c-4 3.33301 -7.66699 7 -11 11c-24 22.667 -52 40.834 -84 54.501s-64 20.5 -96 20.5c-88 0 -157 -31.667 -207 -95c-46 -58.667 -69 -133.334 -69 -224.001c0 -18.667 1.66699 -39.667 5 -63s7.33301 -44 12 -62
c9.33301 -34.667 25.833 -66.834 49.5 -96.501s53.167 -52.667 88.5 -69s73.333 -24.5 114 -24.5c34.667 0 69.334 6.33301 104.001 19s66.667 30.334 96 53.001c2.66699 2 5.16699 3.66699 7.5 5s5.16602 2 8.49902 2l-9 -61c-30 -20 -63.5 -34.333 -100.5 -43
s-77.167 -13 -120.5 -13c-109.333 0 -195.333 32 -258 96s-94 151 -94 261c0 50.667 10 99.667 30 147s48 86.333 84 117s76.333 53.167 121 67.5s92 21.5 142 21.5c35.333 0 71.5 -4 108.5 -12s72.5 -19.333 106.5 -34c-4 -10 -8 -22.5 -12 -37.5s-7 -28.167 -9 -39.5z" />
    <glyph glyph-name="Ntilde" unicode="&#x421;" horiz-adv-x="667" 
d="M609 573l-7 -1c-4 3.33301 -7.66699 7 -11 11c-24 22.667 -52 40.834 -84 54.501s-64 20.5 -96 20.5c-88 0 -157 -31.667 -207 -95c-46 -58.667 -69 -133.334 -69 -224.001c0 -18.667 1.66699 -39.667 5 -63s7.33301 -44 12 -62
c9.33301 -34.667 25.833 -66.834 49.5 -96.501s53.167 -52.667 88.5 -69s73.333 -24.5 114 -24.5c34.667 0 69.334 6.33301 104.001 19s66.667 30.334 96 53.001c2.66699 2 5.16699 3.66699 7.5 5s5.16602 2 8.49902 2l-9 -61c-30 -20 -63.5 -34.333 -100.5 -43
s-77.167 -13 -120.5 -13c-109.333 0 -195.333 32 -258 96s-94 151 -94 261c0 50.667 10 99.667 30 147s48 86.333 84 117s76.333 53.167 121 67.5s92 21.5 142 21.5c35.333 0 71.5 -4 108.5 -12s72.5 -19.333 106.5 -34c-4 -10 -8 -22.5 -12 -37.5s-7 -28.167 -9 -39.5z" />
    <glyph glyph-name="Ograve" unicode="&#xd2;" 
d="M508 624l-107 8.99902h-51h-25l-1 -23l-3 -106v-398l6 -99l1 -7c-7.33301 0.666992 -14.333 1.5 -21 2.5s-15 1.5 -25 1.5h-23c-6 0 -16 -1.33301 -30 -4l3 25l4 105l5 402v102c-14 0 -35 -0.666992 -63 -2s-49 -2 -63 -2l-96 -7c2 12 3 24.333 3 37v11
c-1.33301 5.33301 -2 9.33301 -2 12l137 -6l131 -2l124 3l124 5c-2 -11.333 -3 -22.666 -3 -33.999c0 -9.33301 1 -19 3 -29z" />
    <glyph glyph-name="Ograve" unicode="&#x422;" 
d="M508 624l-107 8.99902h-51h-25l-1 -23l-3 -106v-398l6 -99l1 -7c-7.33301 0.666992 -14.333 1.5 -21 2.5s-15 1.5 -25 1.5h-23c-6 0 -16 -1.33301 -30 -4l3 25l4 105l5 402v102c-14 0 -35 -0.666992 -63 -2s-49 -2 -63 -2l-96 -7c2 12 3 24.333 3 37v11
c-1.33301 5.33301 -2 9.33301 -2 12l137 -6l131 -2l124 3l124 5c-2 -11.333 -3 -22.666 -3 -33.999c0 -9.33301 1 -19 3 -29z" />
    <glyph glyph-name="Oacute" unicode="&#xd3;" horiz-adv-x="648" 
d="M322 166l-95.999 164.001l-102 167l-118 184l62 -3l52 3c40 -82 82 -160.333 126 -235c39.333 -66.667 78.666 -128.334 117.999 -185.001h9l70 135l71 147c26 55.333 46.333 101.333 61 138l34 -3l36 3l-182 -342c-43.333 -83.333 -77.666 -153.333 -102.999 -210
c-22.667 -50.667 -39.334 -94.667 -50.001 -132l-34 3l-45 -3c32.667 50.667 63 107 91 169z" />
    <glyph glyph-name="Oacute" unicode="&#x423;" horiz-adv-x="648" 
d="M322 166l-95.999 164.001l-102 167l-118 184l62 -3l52 3c40 -82 82 -160.333 126 -235c39.333 -66.667 78.666 -128.334 117.999 -185.001h9l70 135l71 147c26 55.333 46.333 101.333 61 138l34 -3l36 3l-182 -342c-43.333 -83.333 -77.666 -153.333 -102.999 -210
c-22.667 -50.667 -39.334 -94.667 -50.001 -132l-34 3l-45 -3c32.667 50.667 63 107 91 169z" />
    <glyph glyph-name="Ocircumflex" unicode="&#xd4;" horiz-adv-x="889" 
d="M397 90l5 124.998c0 10.667 0.333008 26.667 1 48s1 37.333 1 48l1 85l-1 72l-2 118l-2 8c-83.333 0 -147.5 -21.167 -192.5 -63.5s-67.5 -102.166 -67.5 -179.499s23.5 -140.166 70.5 -188.499s109.167 -72.5 186.5 -72.5zM400 681.998
c7.33301 -0.666992 15.334 -1.66504 24.001 -2.99805s15.667 -2 21 -2c8 0 16 0.166992 24 0.5s16.333 2.16602 25 5.49902l-2 -54c115.333 0 203.166 -21.167 263.499 -63.5s90.5 -108.5 90.5 -198.5c0 -86.667 -31 -159.334 -93 -218.001
c-66 -62.667 -153.667 -94 -263 -94l2 -55l-49 3l-50 -3l2 55c-110 0 -196.333 28.5 -259 85.5s-94 130.5 -94 220.5c0 85.333 31 151.333 93 198s150.333 70 265 70v53zM491.001 594l-6 -133c0 -22 -0.666992 -57.833 -2 -107.5s-2 -76.5 -2 -80.5l2 -60l5 -123
c76.667 0 139.167 27.167 187.5 81.5s72.5 121.5 72.5 201.5c0 72 -22.167 126.833 -66.5 164.5s-107.833 56.5 -190.5 56.5z" />
    <glyph glyph-name="Ocircumflex" unicode="&#x424;" horiz-adv-x="889" 
d="M397 90l5 124.998c0 10.667 0.333008 26.667 1 48s1 37.333 1 48l1 85l-1 72l-2 118l-2 8c-83.333 0 -147.5 -21.167 -192.5 -63.5s-67.5 -102.166 -67.5 -179.499s23.5 -140.166 70.5 -188.499s109.167 -72.5 186.5 -72.5zM400 681.998
c7.33301 -0.666992 15.334 -1.66504 24.001 -2.99805s15.667 -2 21 -2c8 0 16 0.166992 24 0.5s16.333 2.16602 25 5.49902l-2 -54c115.333 0 203.166 -21.167 263.499 -63.5s90.5 -108.5 90.5 -198.5c0 -86.667 -31 -159.334 -93 -218.001
c-66 -62.667 -153.667 -94 -263 -94l2 -55l-49 3l-50 -3l2 55c-110 0 -196.333 28.5 -259 85.5s-94 130.5 -94 220.5c0 85.333 31 151.333 93 198s150.333 70 265 70v53zM491.001 594l-6 -133c0 -22 -0.666992 -57.833 -2 -107.5s-2 -76.5 -2 -80.5l2 -60l5 -123
c76.667 0 139.167 27.167 187.5 81.5s72.5 121.5 72.5 201.5c0 72 -22.167 126.833 -66.5 164.5s-107.833 56.5 -190.5 56.5z" />
    <glyph glyph-name="Otilde" unicode="&#xd5;" horiz-adv-x="611" 
d="M159 174l111.002 167.001l-115 189l-92 145l-5 8c6.66699 0 18 -0.666992 34 -2s24.667 -2 26 -2c5.33301 0 14.5 0.666992 27.5 2s19.833 2 20.5 2l17 -33l32 -55l106 -182l166 270c11.333 -2.66699 23.666 -4 36.999 -4c4 0 8.83301 0.166992 14.5 0.5
s13.167 1.5 22.5 3.5l-15 -22l-153 -213l-49 -74l231 -374c-18.667 2.66699 -40.334 4 -65.001 4h-19.5c-5 0 -13.833 -1.33301 -26.5 -4c-51.333 101.333 -108.333 201.666 -171 300.999c-31.333 -46.667 -61.833 -95 -91.5 -145l-88.5 -156
c-5.33301 2 -11.333 3.33301 -18 4s-14 1 -22 1c-4 0 -9.66699 -0.666992 -17 -2s-13 -2.33301 -17 -3z" />
    <glyph glyph-name="Otilde" unicode="&#x425;" horiz-adv-x="611" 
d="M159 174l111.002 167.001l-115 189l-92 145l-5 8c6.66699 0 18 -0.666992 34 -2s24.667 -2 26 -2c5.33301 0 14.5 0.666992 27.5 2s19.833 2 20.5 2l17 -33l32 -55l106 -182l166 270c11.333 -2.66699 23.666 -4 36.999 -4c4 0 8.83301 0.166992 14.5 0.5
s13.167 1.5 22.5 3.5l-15 -22l-153 -213l-49 -74l231 -374c-18.667 2.66699 -40.334 4 -65.001 4h-19.5c-5 0 -13.833 -1.33301 -26.5 -4c-51.333 101.333 -108.333 201.666 -171 300.999c-31.333 -46.667 -61.833 -95 -91.5 -145l-88.5 -156
c-5.33301 2 -11.333 3.33301 -18 4s-14 1 -22 1c-4 0 -9.66699 -0.666992 -17 -2s-13 -2.33301 -17 -3z" />
    <glyph glyph-name="Odieresis" unicode="&#xd6;" horiz-adv-x="778" 
d="M682 47l56.0029 0.000976562c-2 -11.333 -3 -24.333 -3 -39l3 -60h-12c-12.667 23.333 -34.334 39 -65.001 47c-20.667 5.33301 -55 8 -103 8l-171 3c-40 0 -92 -1 -156 -3s-111.333 -3 -142 -3l2 22l4 79c0 30.667 0.666992 75.167 2 133.5s2 91.833 2 100.5v244l-5 106
c5.33301 0 13.666 -0.666992 24.999 -2s20 -2 26 -2l46 3l-2 -27l-4 -91c0 -71.333 -0.5 -143 -1.5 -215l-2.5 -181c-0.666992 -48.667 -1 -87.667 -1 -117c30.667 -1.33301 64.334 -2.66602 101.001 -3.99902s72 -2 106 -2c33.333 0 68.5 0.666992 105.5 2
s71.167 2.66602 102.5 3.99902l1 339v30v23v19v17v14v12c0 12.667 -0.166992 26 -0.5 40s-0.5 28.333 -0.5 43v14l-5 81c5.33301 0 13.666 -0.666992 24.999 -2s20 -2 26 -2l47 3l-3 -27c-0.666992 -28 -1.33398 -51 -2.00098 -69c-4.66699 -129.333 -7 -215 -7 -257
c0 -40 0.5 -85.833 1.5 -137.5s1.5 -80.834 1.5 -87.501z" />
    <glyph glyph-name="Odieresis" unicode="&#x426;" horiz-adv-x="778" 
d="M682 47l56.0029 0.000976562c-2 -11.333 -3 -24.333 -3 -39l3 -60h-12c-12.667 23.333 -34.334 39 -65.001 47c-20.667 5.33301 -55 8 -103 8l-171 3c-40 0 -92 -1 -156 -3s-111.333 -3 -142 -3l2 22l4 79c0 30.667 0.666992 75.167 2 133.5s2 91.833 2 100.5v244l-5 106
c5.33301 0 13.666 -0.666992 24.999 -2s20 -2 26 -2l46 3l-2 -27l-4 -91c0 -71.333 -0.5 -143 -1.5 -215l-2.5 -181c-0.666992 -48.667 -1 -87.667 -1 -117c30.667 -1.33301 64.334 -2.66602 101.001 -3.99902s72 -2 106 -2c33.333 0 68.5 0.666992 105.5 2
s71.167 2.66602 102.5 3.99902l1 339v30v23v19v17v14v12c0 12.667 -0.166992 26 -0.5 40s-0.5 28.333 -0.5 43v14l-5 81c5.33301 0 13.666 -0.666992 24.999 -2s20 -2 26 -2l47 3l-3 -27c-0.666992 -28 -1.33398 -51 -2.00098 -69c-4.66699 -129.333 -7 -215 -7 -257
c0 -40 0.5 -85.833 1.5 -137.5s1.5 -80.834 1.5 -87.501z" />
    <glyph glyph-name="multiply" unicode="&#xd7;" horiz-adv-x="722" 
d="M545 343c-38.667 -21.333 -79.6641 -38.332 -122.997 -50.999s-86 -19 -128 -19c-64 0 -115.667 13.333 -155 40c-44 30 -66 73.667 -66 131c0 11.333 0.333008 34.166 1 68.499s1 56.5 1 66.5l-5 106c5.33301 0 13.666 -0.666992 24.999 -2s20 -2 26 -2l46 3l-2 -27
l-4 -91v-66.5v-41.5c0 -42.667 14.667 -75 44 -97c26.667 -20 63.334 -30 110.001 -30c38.667 0 77.667 5.16699 117 15.5s77 25.5 113 45.5l1 212l-5 81c5.33301 0 13.666 -0.666992 24.999 -2s20 -2 26 -2l47 3l-3 -27l-9 -326l3 -225l5 -106
c-6 -0 -14.333 0.833008 -25 2.5s-17.334 2.5 -20.001 2.5c-8 0 -18.333 -0.833008 -31 -2.5s-20.334 -2.5 -23.001 -2.5l2 22l5 103z" />
    <glyph glyph-name="multiply" unicode="&#x427;" horiz-adv-x="722" 
d="M545 343c-38.667 -21.333 -79.6641 -38.332 -122.997 -50.999s-86 -19 -128 -19c-64 0 -115.667 13.333 -155 40c-44 30 -66 73.667 -66 131c0 11.333 0.333008 34.166 1 68.499s1 56.5 1 66.5l-5 106c5.33301 0 13.666 -0.666992 24.999 -2s20 -2 26 -2l46 3l-2 -27
l-4 -91v-66.5v-41.5c0 -42.667 14.667 -75 44 -97c26.667 -20 63.334 -30 110.001 -30c38.667 0 77.667 5.16699 117 15.5s77 25.5 113 45.5l1 212l-5 81c5.33301 0 13.666 -0.666992 24.999 -2s20 -2 26 -2l47 3l-3 -27l-9 -326l3 -225l5 -106
c-6 -0 -14.333 0.833008 -25 2.5s-17.334 2.5 -20.001 2.5c-8 0 -18.333 -0.833008 -31 -2.5s-20.334 -2.5 -23.001 -2.5l2 22l5 103z" />
    <glyph glyph-name="Oslash" unicode="&#xd8;" horiz-adv-x="889" 
d="M400 53l1.00488 72l3 222v36v29v23v20v17v15v13v12c0 12 -0.166992 24.667 -0.5 38s-0.5 27 -0.5 41v13l-5 81c5.33301 0 13.666 -0.666992 24.999 -2s20 -2 26 -2l47 3l-3 -27c-0.666992 -28 -1.33398 -51 -2.00098 -69c-4.66699 -129.333 -7 -215 -7 -257l3 -225l1 -53
c14.667 -1.33301 31.167 -2.66602 49.5 -3.99902s38.833 -2 61.5 -2s43 0.666992 61 2s34 2.66602 48 3.99902l1 339v30v23v19v17v14v12c0 12.667 -0.166992 26 -0.5 40s-0.5 28.333 -0.5 43v14l-5 81c5.33301 0 13.666 -0.666992 24.999 -2s20 -2 26 -2l47 3l-3 -27
c-0.666992 -28 -1.33398 -51 -2.00098 -69c-4.66699 -129.333 -7 -215 -7 -257c0 -40 0.5 -85.833 1.5 -137.5s1.5 -80.834 1.5 -87.501l5 -106c-38.667 0 -95.334 1 -170.001 3s-135.667 3 -183 3c-66.667 0 -125.167 -0.666992 -175.5 -2
s-110.166 -2.66602 -179.499 -3.99902l2 22l4 79c0 30.667 0.666992 75.167 2 133.5s2 91.833 2 100.5v244l-5 106c5.33301 0 13.666 -0.666992 24.999 -2s20 -2 26 -2l46 3l-2 -27l-4 -91c0 -72 -0.5 -143.833 -1.5 -215.5l-2.5 -180.5
c-0.666992 -48.667 -1 -87.667 -1 -117c16 -1.33301 33.667 -2.66602 53 -3.99902s38 -2 56 -2c17.333 0 35.833 0.666992 55.5 2s38.167 2.66602 55.5 3.99902z" />
    <glyph glyph-name="Oslash" unicode="&#x428;" horiz-adv-x="889" 
d="M400 53l1.00488 72l3 222v36v29v23v20v17v15v13v12c0 12 -0.166992 24.667 -0.5 38s-0.5 27 -0.5 41v13l-5 81c5.33301 0 13.666 -0.666992 24.999 -2s20 -2 26 -2l47 3l-3 -27c-0.666992 -28 -1.33398 -51 -2.00098 -69c-4.66699 -129.333 -7 -215 -7 -257l3 -225l1 -53
c14.667 -1.33301 31.167 -2.66602 49.5 -3.99902s38.833 -2 61.5 -2s43 0.666992 61 2s34 2.66602 48 3.99902l1 339v30v23v19v17v14v12c0 12.667 -0.166992 26 -0.5 40s-0.5 28.333 -0.5 43v14l-5 81c5.33301 0 13.666 -0.666992 24.999 -2s20 -2 26 -2l47 3l-3 -27
c-0.666992 -28 -1.33398 -51 -2.00098 -69c-4.66699 -129.333 -7 -215 -7 -257c0 -40 0.5 -85.833 1.5 -137.5s1.5 -80.834 1.5 -87.501l5 -106c-38.667 0 -95.334 1 -170.001 3s-135.667 3 -183 3c-66.667 0 -125.167 -0.666992 -175.5 -2
s-110.166 -2.66602 -179.499 -3.99902l2 22l4 79c0 30.667 0.666992 75.167 2 133.5s2 91.833 2 100.5v244l-5 106c5.33301 0 13.666 -0.666992 24.999 -2s20 -2 26 -2l46 3l-2 -27l-4 -91c0 -72 -0.5 -143.833 -1.5 -215.5l-2.5 -180.5
c-0.666992 -48.667 -1 -87.667 -1 -117c16 -1.33301 33.667 -2.66602 53 -3.99902s38 -2 56 -2c17.333 0 35.833 0.666992 55.5 2s38.167 2.66602 55.5 3.99902z" />
    <glyph glyph-name="Ugrave" unicode="&#xd9;" horiz-adv-x="889" 
d="M444 6c-66.667 0 -125.162 -0.666992 -175.495 -2s-110.166 -2.66602 -179.499 -3.99902l2 22l4 79c0 30.667 0.666992 75.167 2 133.5s2 91.833 2 100.5v244l-5 106c5.33301 0 13.666 -0.666992 24.999 -2s20 -2 26 -2l46 3l-2 -27l-4 -91
c0 -72 -0.5 -143.833 -1.5 -215.5l-2.5 -180.5c-0.666992 -48.667 -1 -87.667 -1 -117c16 -1.33301 33.667 -2.66602 53 -3.99902s38 -2 56 -2c17.333 0 35.833 0.666992 55.5 2s38.167 2.66602 55.5 3.99902l1 72l3 222v36v29v23v20v17v15v13v12
c0 12 -0.166992 24.667 -0.5 38s-0.5 27 -0.5 41v13l-5 81c5.33301 0 13.666 -0.666992 24.999 -2s20 -2 26 -2l47 3l-3 -27c-0.666992 -28 -1.33398 -51 -2.00098 -69c-4.66699 -129.333 -7 -215 -7 -257l3 -225l1 -53c14.667 -1.33301 31.167 -2.66602 49.5 -3.99902
s38.833 -2 61.5 -2s43 0.666992 61 2s34 2.66602 48 3.99902l1 339v30v23v19v17v14v12c0 12.667 -0.166992 26 -0.5 40s-0.5 28.333 -0.5 43v14l-5 81c5.33301 0 13.666 -0.666992 24.999 -2s20 -2 26 -2l47 3l-3 -27c-0.666992 -28 -1.33398 -51 -2.00098 -69
c-4.66699 -129.333 -7 -215 -7 -257c0 -40 0.5 -85.833 1.5 -137.5s1.5 -80.834 1.5 -87.501l2 -59h58c-2 -11.333 -3 -24.333 -3 -39l3 -60h-12c-12.667 23.333 -34.334 39 -65.001 47c-20.667 5.33301 -55 8 -103 8z" />
    <glyph glyph-name="Ugrave" unicode="&#x429;" horiz-adv-x="889" 
d="M444 6c-66.667 0 -125.162 -0.666992 -175.495 -2s-110.166 -2.66602 -179.499 -3.99902l2 22l4 79c0 30.667 0.666992 75.167 2 133.5s2 91.833 2 100.5v244l-5 106c5.33301 0 13.666 -0.666992 24.999 -2s20 -2 26 -2l46 3l-2 -27l-4 -91
c0 -72 -0.5 -143.833 -1.5 -215.5l-2.5 -180.5c-0.666992 -48.667 -1 -87.667 -1 -117c16 -1.33301 33.667 -2.66602 53 -3.99902s38 -2 56 -2c17.333 0 35.833 0.666992 55.5 2s38.167 2.66602 55.5 3.99902l1 72l3 222v36v29v23v20v17v15v13v12
c0 12 -0.166992 24.667 -0.5 38s-0.5 27 -0.5 41v13l-5 81c5.33301 0 13.666 -0.666992 24.999 -2s20 -2 26 -2l47 3l-3 -27c-0.666992 -28 -1.33398 -51 -2.00098 -69c-4.66699 -129.333 -7 -215 -7 -257l3 -225l1 -53c14.667 -1.33301 31.167 -2.66602 49.5 -3.99902
s38.833 -2 61.5 -2s43 0.666992 61 2s34 2.66602 48 3.99902l1 339v30v23v19v17v14v12c0 12.667 -0.166992 26 -0.5 40s-0.5 28.333 -0.5 43v14l-5 81c5.33301 0 13.666 -0.666992 24.999 -2s20 -2 26 -2l47 3l-3 -27c-0.666992 -28 -1.33398 -51 -2.00098 -69
c-4.66699 -129.333 -7 -215 -7 -257c0 -40 0.5 -85.833 1.5 -137.5s1.5 -80.834 1.5 -87.501l2 -59h58c-2 -11.333 -3 -24.333 -3 -39l3 -60h-12c-12.667 23.333 -34.334 39 -65.001 47c-20.667 5.33301 -55 8 -103 8z" />
    <glyph glyph-name="Uacute" unicode="&#xda;" 
d="M191 344l1.99707 -300.999c13.333 0 29.833 -0.833008 49.5 -2.5s31.834 -2.5 36.501 -2.5c25.333 0 47.5 3.16699 66.5 9.5s36.333 17.333 52 33s27.834 33 36.501 52s13 39.167 13 60.5c0 54.667 -21 96 -63 124c-17.333 11.333 -38.166 18.666 -62.499 21.999
s-51.5 5 -81.5 5h-49zM106.997 632.001c-13.333 0 -26.666 -0.5 -39.999 -1.5s-29 -3.5 -47 -7.5l3 30l-3 29c13.333 -1.33301 28.166 -2.33301 44.499 -3s31.833 -1 46.5 -1c12 0 30 0.666992 54 2s36.667 2 38 2l-6 -115l-3 -100l-3 -86l84 1
c85.333 0 150.833 -14 196.5 -42s68.5 -71.333 68.5 -130c0 -71.333 -30 -127.666 -90 -168.999c-26 -18 -59.667 -29.667 -101 -35c-25.333 -3.33301 -62 -5 -110 -5h-112h-25c0 16.667 1.16699 39.667 3.5 69s3.5 48.666 3.5 57.999l2 340l-2 120z" />
    <glyph glyph-name="Uacute" unicode="&#x42a;" 
d="M191 344l1.99707 -300.999c13.333 0 29.833 -0.833008 49.5 -2.5s31.834 -2.5 36.501 -2.5c25.333 0 47.5 3.16699 66.5 9.5s36.333 17.333 52 33s27.834 33 36.501 52s13 39.167 13 60.5c0 54.667 -21 96 -63 124c-17.333 11.333 -38.166 18.666 -62.499 21.999
s-51.5 5 -81.5 5h-49zM106.997 632.001c-13.333 0 -26.666 -0.5 -39.999 -1.5s-29 -3.5 -47 -7.5l3 30l-3 29c13.333 -1.33301 28.166 -2.33301 44.499 -3s31.833 -1 46.5 -1c12 0 30 0.666992 54 2s36.667 2 38 2l-6 -115l-3 -100l-3 -86l84 1
c85.333 0 150.833 -14 196.5 -42s68.5 -71.333 68.5 -130c0 -71.333 -30 -127.666 -90 -168.999c-26 -18 -59.667 -29.667 -101 -35c-25.333 -3.33301 -62 -5 -110 -5h-112h-25c0 16.667 1.16699 39.667 3.5 69s3.5 48.666 3.5 57.999l2 340l-2 120z" />
    <glyph glyph-name="Ucircumflex" unicode="&#xdb;" horiz-adv-x="796" 
d="M705 683l-9 -221.999c0 -22 -0.666992 -57.833 -2 -107.5s-2 -76.5 -2 -80.5l2 -60l9 -213l-49 3l-51 -3l10 215c0 10.667 0.333008 26.667 1 48s1 37.333 1 48l1 85l-1 72l-4 214c7.33301 -0.666992 15.333 -1.66699 24 -3s15.667 -2 21 -2c8 0 16 0.166992 24 0.5
s16.333 2.16602 25 5.49902zM179 344.001l1.99707 -300.999c13.333 0 29.833 -0.833008 49.5 -2.5s31.834 -2.5 36.501 -2.5c25.333 0 47.5 3.16699 66.5 9.5s36.333 17.333 52 33s27.834 33 36.501 52s13 39.167 13 60.5c0 54.667 -21 96 -63 124
c-17.333 11.333 -38.166 18.666 -62.499 21.999s-51.5 5 -81.5 5h-49zM527.997 210.002c0 -71.333 -30 -127.666 -90 -168.999c-26 -18 -59.667 -29.667 -101 -35c-25.333 -3.33301 -62 -5 -110 -5h-112h-25c0 16.667 1.16699 39.667 3.5 69s3.5 48.666 3.5 57.999l2 340
l-2 120l-4 97c14 -2 23 -3.16699 27 -3.5s12 -0.5 24 -0.5c5.33301 0 12 0.333008 20 1s17 1.66699 27 3l-6 -118l-3 -100l-3 -86l84 1c85.333 0 150.833 -14 196.5 -42s68.5 -71.333 68.5 -130z" />
    <glyph glyph-name="Ucircumflex" unicode="&#x42b;" horiz-adv-x="796" 
d="M705 683l-9 -221.999c0 -22 -0.666992 -57.833 -2 -107.5s-2 -76.5 -2 -80.5l2 -60l9 -213l-49 3l-51 -3l10 215c0 10.667 0.333008 26.667 1 48s1 37.333 1 48l1 85l-1 72l-4 214c7.33301 -0.666992 15.333 -1.66699 24 -3s15.667 -2 21 -2c8 0 16 0.166992 24 0.5
s16.333 2.16602 25 5.49902zM179 344.001l1.99707 -300.999c13.333 0 29.833 -0.833008 49.5 -2.5s31.834 -2.5 36.501 -2.5c25.333 0 47.5 3.16699 66.5 9.5s36.333 17.333 52 33s27.834 33 36.501 52s13 39.167 13 60.5c0 54.667 -21 96 -63 124
c-17.333 11.333 -38.166 18.666 -62.499 21.999s-51.5 5 -81.5 5h-49zM527.997 210.002c0 -71.333 -30 -127.666 -90 -168.999c-26 -18 -59.667 -29.667 -101 -35c-25.333 -3.33301 -62 -5 -110 -5h-112h-25c0 16.667 1.16699 39.667 3.5 69s3.5 48.666 3.5 57.999l2 340
l-2 120l-4 97c14 -2 23 -3.16699 27 -3.5s12 -0.5 24 -0.5c5.33301 0 12 0.333008 20 1s17 1.66699 27 3l-6 -118l-3 -100l-3 -86l84 1c85.333 0 150.833 -14 196.5 -42s68.5 -71.333 68.5 -130z" />
    <glyph glyph-name="Udieresis" unicode="&#xdc;" 
d="M179 344l1.99707 -300.999c13.333 0 29.833 -0.833008 49.5 -2.5s31.834 -2.5 36.501 -2.5c25.333 0 47.5 3.16699 66.5 9.5s36.333 17.333 52 33s27.834 33 36.501 52s13 39.167 13 60.5c0 54.667 -21 96 -63 124c-17.333 11.333 -38.166 18.666 -62.499 21.999
s-51.5 5 -81.5 5h-49zM527.997 210.001c0 -71.333 -30 -127.666 -90 -168.999c-26 -18 -59.667 -29.667 -101 -35c-25.333 -3.33301 -62 -5 -110 -5h-112h-25c0 16.667 1.16699 39.667 3.5 69s3.5 48.666 3.5 57.999l2 340l-2 120l-4 97c14 -2 23 -3.16699 27 -3.5
s12 -0.5 24 -0.5c5.33301 0 12 0.333008 20 1s17 1.66699 27 3l-6 -118l-3 -100l-3 -86l84 1c85.333 0 150.833 -14 196.5 -42s68.5 -71.333 68.5 -130z" />
    <glyph glyph-name="Udieresis" unicode="&#x42c;" 
d="M179 344l1.99707 -300.999c13.333 0 29.833 -0.833008 49.5 -2.5s31.834 -2.5 36.501 -2.5c25.333 0 47.5 3.16699 66.5 9.5s36.333 17.333 52 33s27.834 33 36.501 52s13 39.167 13 60.5c0 54.667 -21 96 -63 124c-17.333 11.333 -38.166 18.666 -62.499 21.999
s-51.5 5 -81.5 5h-49zM527.997 210.001c0 -71.333 -30 -127.666 -90 -168.999c-26 -18 -59.667 -29.667 -101 -35c-25.333 -3.33301 -62 -5 -110 -5h-112h-25c0 16.667 1.16699 39.667 3.5 69s3.5 48.666 3.5 57.999l2 340l-2 120l-4 97c14 -2 23 -3.16699 27 -3.5
s12 -0.5 24 -0.5c5.33301 0 12 0.333008 20 1s17 1.66699 27 3l-6 -118l-3 -100l-3 -86l84 1c85.333 0 150.833 -14 196.5 -42s68.5 -71.333 68.5 -130z" />
    <glyph glyph-name="Yacute" unicode="&#xdd;" horiz-adv-x="667" 
d="M531 339l-278.999 0.000976562c-14 0 -28.333 -0.333008 -43 -1s-30 -2 -46 -4c2 10 3 19.333 3 28c0 8 -1 16.667 -3 26c12 -2 26.333 -3.33301 43 -4s32 -1 46 -1h277c-9.33301 94 -40.333 165 -93 213c-45.333 41.333 -101.333 62 -168 62
c-46.667 0 -86.334 -7.66699 -119.001 -23s-60.667 -37.333 -84 -66l-11 1c0 10 0.333008 20.667 1 32l2 34c0 10 -0.333008 17.333 -1 22c64.667 25.333 132 38 202 38c104.667 0 190.667 -27 258 -81c75.333 -60.667 113 -146.334 113 -257.001
c0 -126 -37.333 -222 -112 -288c-64 -56.667 -145.333 -85 -244 -85c-86.667 0 -161.667 21 -225 63l3 57c62 -54 132.667 -81 212 -81c76 0 138 25 186 75c54.667 56.667 82 136.667 82 240z" />
    <glyph glyph-name="Yacute" unicode="&#x42d;" horiz-adv-x="667" 
d="M531 339l-278.999 0.000976562c-14 0 -28.333 -0.333008 -43 -1s-30 -2 -46 -4c2 10 3 19.333 3 28c0 8 -1 16.667 -3 26c12 -2 26.333 -3.33301 43 -4s32 -1 46 -1h277c-9.33301 94 -40.333 165 -93 213c-45.333 41.333 -101.333 62 -168 62
c-46.667 0 -86.334 -7.66699 -119.001 -23s-60.667 -37.333 -84 -66l-11 1c0 10 0.333008 20.667 1 32l2 34c0 10 -0.333008 17.333 -1 22c64.667 25.333 132 38 202 38c104.667 0 190.667 -27 258 -81c75.333 -60.667 113 -146.334 113 -257.001
c0 -126 -37.333 -222 -112 -288c-64 -56.667 -145.333 -85 -244 -85c-86.667 0 -161.667 21 -225 63l3 57c62 -54 132.667 -81 212 -81c76 0 138 25 186 75c54.667 56.667 82 136.667 82 240z" />
    <glyph glyph-name="Thorn" unicode="&#xde;" horiz-adv-x="1017" 
d="M824 566c-24 31.333 -53 55.334 -87 72.001s-70 25 -108 25c-82 0 -146.5 -30.333 -193.5 -91s-70.5 -142.334 -70.5 -245.001c0 -98 25 -175 75 -231c46.667 -52 106.667 -78 180 -78c80.667 0 145.667 34.333 195 103c44.667 62.667 67 137.667 67 225
c0 46 -4 86.333 -12 121s-23.333 67.667 -46 99zM268 347.001h-88.998l3 -217l4 -108l2 -22c-6.66699 0 -15.5 0.833008 -26.5 2.5s-17.5 2.5 -19.5 2.5c-7.33301 0 -17.333 -0.833008 -30 -2.5s-20.334 -2.5 -23.001 -2.5l2 22l4 79l4 234v38v206l-5 106
c5.33301 0 13.666 -0.666992 24.999 -2s20 -2 26 -2l46 3l-2 -27l-4 -91l-5 -174l47 -2l43 2c11.333 92.667 49.333 166.5 114 221.5s142.667 82.5 234 82.5c99.333 0 182 -27 248 -81c75.333 -61.333 113 -148.333 113 -261c0 -110 -33.667 -199 -101 -267
s-154.333 -102 -261 -102s-191.5 32.833 -254.5 98.5s-94.5 153.5 -94.5 263.5z" />
    <glyph glyph-name="Thorn" unicode="&#x42e;" horiz-adv-x="1017" 
d="M824 566c-24 31.333 -53 55.334 -87 72.001s-70 25 -108 25c-82 0 -146.5 -30.333 -193.5 -91s-70.5 -142.334 -70.5 -245.001c0 -98 25 -175 75 -231c46.667 -52 106.667 -78 180 -78c80.667 0 145.667 34.333 195 103c44.667 62.667 67 137.667 67 225
c0 46 -4 86.333 -12 121s-23.333 67.667 -46 99zM268 347.001h-88.998l3 -217l4 -108l2 -22c-6.66699 0 -15.5 0.833008 -26.5 2.5s-17.5 2.5 -19.5 2.5c-7.33301 0 -17.333 -0.833008 -30 -2.5s-20.334 -2.5 -23.001 -2.5l2 22l4 79l4 234v38v206l-5 106
c5.33301 0 13.666 -0.666992 24.999 -2s20 -2 26 -2l46 3l-2 -27l-4 -91l-5 -174l47 -2l43 2c11.333 92.667 49.333 166.5 114 221.5s142.667 82.5 234 82.5c99.333 0 182 -27 248 -81c75.333 -61.333 113 -148.333 113 -261c0 -110 -33.667 -199 -101 -267
s-154.333 -102 -261 -102s-191.5 32.833 -254.5 98.5s-94.5 153.5 -94.5 263.5z" />
    <glyph glyph-name="germandbls" unicode="&#xdf;" horiz-adv-x="611" 
d="M435 369l-1.00098 235.002l-3 40h-34c-12 0 -24.667 0.333008 -38 1c-32 0 -56.333 -1.66699 -73 -5c-73.333 -18.667 -110 -64 -110 -136c0 -38 11.667 -68.333 35 -91s54.333 -36.334 93 -41.001c7.33301 -0.666992 20.333 -1.33398 39 -2.00098s41.334 -1 68.001 -1
h24zM428.999 681.002l98.001 3l-3 -27l-9 -326l3 -225l5 -106c-6 0 -14.333 0.833008 -25 2.5s-17.334 2.5 -20.001 2.5c-7.33301 0 -17.333 -0.833008 -30 -2.5s-20.334 -2.5 -23.001 -2.5l2 22l5 103l3 206h-47l-131.5 -176l-119.5 -158l-55 3l-63 -3l148 177
c46 56.667 87 109.667 123 159c-57.333 5.33301 -103.666 21 -138.999 47c-42.667 32 -64 75 -64 129c0 52 19.833 93.667 59.5 125s97.167 47 172.5 47h110z" />
    <glyph glyph-name="germandbls" unicode="&#x42f;" horiz-adv-x="611" 
d="M435 369l-1.00098 235.002l-3 40h-34c-12 0 -24.667 0.333008 -38 1c-32 0 -56.333 -1.66699 -73 -5c-73.333 -18.667 -110 -64 -110 -136c0 -38 11.667 -68.333 35 -91s54.333 -36.334 93 -41.001c7.33301 -0.666992 20.333 -1.33398 39 -2.00098s41.334 -1 68.001 -1
h24zM428.999 681.002l98.001 3l-3 -27l-9 -326l3 -225l5 -106c-6 0 -14.333 0.833008 -25 2.5s-17.334 2.5 -20.001 2.5c-7.33301 0 -17.333 -0.833008 -30 -2.5s-20.334 -2.5 -23.001 -2.5l2 22l5 103l3 206h-47l-131.5 -176l-119.5 -158l-55 3l-63 -3l148 177
c46 56.667 87 109.667 123 159c-57.333 5.33301 -103.666 21 -138.999 47c-42.667 32 -64 75 -64 129c0 52 19.833 93.667 59.5 125s97.167 47 172.5 47h110z" />
    <glyph glyph-name="agrave" unicode="&#xe0;" horiz-adv-x="500" 
d="M101 370l-11.0039 0.000976562v56c26.667 18 53 32 79 42s53.333 15 82 15c23.333 0 45.833 -3.83301 67.5 -11.5s40.667 -19.834 57 -36.501s27.166 -35.334 32.499 -56.001c3.33301 -13.333 5 -35.333 5 -66l-3 -120l-2 -72v-17c0 -22 1.66699 -38 5 -48
c6 -16.667 17 -25 33 -25c10.667 0 18.334 1.33301 23.001 4v-22l-7 -3l-23 -7c-11.333 -2 -22.333 -3 -33 -3c-19.333 0 -35.166 4.66699 -47.499 14s-19.833 25 -22.5 47l-9 -9c-42 -42 -91.333 -63 -148 -63c-36.667 0 -68 11.333 -94 34s-39 52 -39 88
c0 22 5.16699 43.333 15.5 64s24.333 35.834 42 45.501s36.167 16.667 55.5 21s43.333 8.83301 72 13.5c14.667 2 29.834 4.5 45.501 7.5s29.834 8.16699 42.501 15.5c6.66699 3.33301 11.667 7 15 11c2 5.33301 3 16.333 3 33c0 37.333 -10.167 66.5 -30.5 87.5
s-49.166 31.5 -86.499 31.5c-21.333 0 -42 -5 -62 -15s-36 -24 -48 -42zM332.996 100.001l4 149l-9 -4l-30 -6c-58 -11.333 -94.667 -20.333 -110 -27c-40 -18 -60 -47 -60 -87c0 -30.667 8.66699 -54 26 -70s41.333 -24 72 -24c13.333 0 27.166 3.5 41.499 10.5
s27.5 15.833 39.5 26.5l18 21c2.66699 2 5.33398 5.66699 8.00098 11z" />
    <glyph glyph-name="agrave" unicode="&#x430;" horiz-adv-x="500" 
d="M101 370l-11.0039 0.000976562v56c26.667 18 53 32 79 42s53.333 15 82 15c23.333 0 45.833 -3.83301 67.5 -11.5s40.667 -19.834 57 -36.501s27.166 -35.334 32.499 -56.001c3.33301 -13.333 5 -35.333 5 -66l-3 -120l-2 -72v-17c0 -22 1.66699 -38 5 -48
c6 -16.667 17 -25 33 -25c10.667 0 18.334 1.33301 23.001 4v-22l-7 -3l-23 -7c-11.333 -2 -22.333 -3 -33 -3c-19.333 0 -35.166 4.66699 -47.499 14s-19.833 25 -22.5 47l-9 -9c-42 -42 -91.333 -63 -148 -63c-36.667 0 -68 11.333 -94 34s-39 52 -39 88
c0 22 5.16699 43.333 15.5 64s24.333 35.834 42 45.501s36.167 16.667 55.5 21s43.333 8.83301 72 13.5c14.667 2 29.834 4.5 45.501 7.5s29.834 8.16699 42.501 15.5c6.66699 3.33301 11.667 7 15 11c2 5.33301 3 16.333 3 33c0 37.333 -10.167 66.5 -30.5 87.5
s-49.166 31.5 -86.499 31.5c-21.333 0 -42 -5 -62 -15s-36 -24 -48 -42zM332.996 100.001l4 149l-9 -4l-30 -6c-58 -11.333 -94.667 -20.333 -110 -27c-40 -18 -60 -47 -60 -87c0 -30.667 8.66699 -54 26 -70s41.333 -24 72 -24c13.333 0 27.166 3.5 41.499 10.5
s27.5 15.833 39.5 26.5l18 21c2.66699 2 5.33398 5.66699 8.00098 11z" />
    <glyph glyph-name="aacute" unicode="&#xe1;" 
d="M521 237c0 -68 -21 -125.333 -63 -172c-46 -50.667 -108.333 -76 -187 -76c-69.333 0 -126 21.667 -170 65s-66 102 -66 176c0 138.667 24 245 72 319c36 56 92 99.667 168 131c33.333 14 71 28 113 42s66.667 22.667 74 26c0 -11.333 0.833008 -24 2.5 -38
s3.83398 -26 6.50098 -36c-14 -8 -36 -16.833 -66 -26.5s-54 -17.167 -72 -22.5c-88.667 -28.667 -151.667 -65 -189 -109c-32 -37.333 -52 -84.333 -60 -141c22.667 34 51.667 60.5 87 79.5s74.666 28.5 117.999 28.5c68.667 0 124.5 -22.5 167.5 -67.5
s64.5 -104.5 64.5 -178.5zM279 22c22.667 0 43.168 5.16602 61.501 15.499s34.833 25.166 49.5 44.499c11.333 16 19.833 32.333 25.5 49s10 34.5 13 53.5s4.5 38.167 4.5 57.5c0 54.667 -10 100.334 -30 137.001c-26 47.333 -64.333 71 -115 71c-58 0 -101 -24 -129 -72
c-23.333 -40 -35 -91 -35 -153c0 -57.333 11.333 -103.666 34 -138.999c27.333 -42.667 67.666 -64 120.999 -64z" />
    <glyph glyph-name="aacute" unicode="&#x431;" 
d="M521 237c0 -68 -21 -125.333 -63 -172c-46 -50.667 -108.333 -76 -187 -76c-69.333 0 -126 21.667 -170 65s-66 102 -66 176c0 138.667 24 245 72 319c36 56 92 99.667 168 131c33.333 14 71 28 113 42s66.667 22.667 74 26c0 -11.333 0.833008 -24 2.5 -38
s3.83398 -26 6.50098 -36c-14 -8 -36 -16.833 -66 -26.5s-54 -17.167 -72 -22.5c-88.667 -28.667 -151.667 -65 -189 -109c-32 -37.333 -52 -84.333 -60 -141c22.667 34 51.667 60.5 87 79.5s74.666 28.5 117.999 28.5c68.667 0 124.5 -22.5 167.5 -67.5
s64.5 -104.5 64.5 -178.5zM279 22c22.667 0 43.168 5.16602 61.501 15.499s34.833 25.166 49.5 44.499c11.333 16 19.833 32.333 25.5 49s10 34.5 13 53.5s4.5 38.167 4.5 57.5c0 54.667 -10 100.334 -30 137.001c-26 47.333 -64.333 71 -115 71c-58 0 -101 -24 -129 -72
c-23.333 -40 -35 -91 -35 -153c0 -57.333 11.333 -103.666 34 -138.999c27.333 -42.667 67.666 -64 120.999 -64z" />
    <glyph glyph-name="acircumflex" unicode="&#xe2;" horiz-adv-x="500" 
d="M371 136c0 35.333 -11.833 60.166 -35.5 74.499s-56.834 21.5 -99.501 21.5h-82c0 -22 0.333008 -53.667 1 -95s1 -73.666 1 -96.999c10 -2.66699 25.833 -4 47.5 -4h59.5c30.667 0 56.334 9.33301 77.001 28s31 42.667 31 72zM158 432l-3 -48.001l-1 -117h69
c39.333 0 69.833 7.33301 91.5 22s32.5 37.334 32.5 68.001c0 28.667 -9.33301 48.667 -28 60s-46 17 -82 17h-40c-12.667 0 -25.667 -0.666992 -39 -2zM73 -0.000976562c0 26.667 1.33398 66.333 4.00098 119s4 92.334 4 119.001c0 26 -0.666992 54.333 -2 85
c-3.33301 76 -5 123.667 -5 143l-1 7c10 -2 22 -3.33301 36 -4s29 -1 45 -1s32.833 0.166992 50.5 0.5s34.167 0.833008 49.5 1.5c57.333 0 99.833 -7.33301 127.5 -22s41.5 -39.334 41.5 -74.001c0 -31.333 -10.333 -57.333 -31 -78s-48.334 -35 -83.001 -43
c35.333 0 66.666 -8 93.999 -24c34 -20 51 -48 51 -84c0 -47.333 -18.167 -83.333 -54.5 -108s-85.166 -37 -146.499 -37h-68.5c-22.333 0 -44.5 0.333008 -66.5 1c-26.667 0 -41.667 -0.333008 -45 -1z" />
    <glyph glyph-name="acircumflex" unicode="&#x432;" horiz-adv-x="500" 
d="M371 136c0 35.333 -11.833 60.166 -35.5 74.499s-56.834 21.5 -99.501 21.5h-82c0 -22 0.333008 -53.667 1 -95s1 -73.666 1 -96.999c10 -2.66699 25.833 -4 47.5 -4h59.5c30.667 0 56.334 9.33301 77.001 28s31 42.667 31 72zM158 432l-3 -48.001l-1 -117h69
c39.333 0 69.833 7.33301 91.5 22s32.5 37.334 32.5 68.001c0 28.667 -9.33301 48.667 -28 60s-46 17 -82 17h-40c-12.667 0 -25.667 -0.666992 -39 -2zM73 -0.000976562c0 26.667 1.33398 66.333 4.00098 119s4 92.334 4 119.001c0 26 -0.666992 54.333 -2 85
c-3.33301 76 -5 123.667 -5 143l-1 7c10 -2 22 -3.33301 36 -4s29 -1 45 -1s32.833 0.166992 50.5 0.5s34.167 0.833008 49.5 1.5c57.333 0 99.833 -7.33301 127.5 -22s41.5 -39.334 41.5 -74.001c0 -31.333 -10.333 -57.333 -31 -78s-48.334 -35 -83.001 -43
c35.333 0 66.666 -8 93.999 -24c34 -20 51 -48 51 -84c0 -47.333 -18.167 -83.333 -54.5 -108s-85.166 -37 -146.499 -37h-68.5c-22.333 0 -44.5 0.333008 -66.5 1c-26.667 0 -41.667 -0.333008 -45 -1z" />
    <glyph glyph-name="atilde" unicode="&#xe3;" horiz-adv-x="407" 
d="M395 419c-34.667 4 -76.999 7.16602 -126.999 9.49902s-87.667 3.5 -113 3.5c0 -22 -0.333008 -54.333 -1 -97s-1 -75.334 -1 -98.001c0 -25.333 1 -63.333 3 -114s3 -88.334 3 -113.001l1 -10l-44 3h-21c-6.66699 0 -14 -1 -22 -3c0 26.667 1.33301 66.334 4 119.001
s4 92.334 4 119.001c0 26 -0.666992 54.333 -2 85c-3.33301 76 -5 123.667 -5 143l-1 7c11.333 -1.33301 25.166 -2.83301 41.499 -4.5s26.833 -2.5 31.5 -2.5l131.5 5c36.333 1.33301 75.5 2 117.5 2c-0.666992 -5.33301 -1 -10.666 -1 -15.999v-12
c0 -11.333 0.333008 -20 1 -26z" />
    <glyph glyph-name="atilde" unicode="&#x433;" horiz-adv-x="407" 
d="M395 419c-34.667 4 -76.999 7.16602 -126.999 9.49902s-87.667 3.5 -113 3.5c0 -22 -0.333008 -54.333 -1 -97s-1 -75.334 -1 -98.001c0 -25.333 1 -63.333 3 -114s3 -88.334 3 -113.001l1 -10l-44 3h-21c-6.66699 0 -14 -1 -22 -3c0 26.667 1.33301 66.334 4 119.001
s4 92.334 4 119.001c0 26 -0.666992 54.333 -2 85c-3.33301 76 -5 123.667 -5 143l-1 7c11.333 -1.33301 25.166 -2.83301 41.499 -4.5s26.833 -2.5 31.5 -2.5l131.5 5c36.333 1.33301 75.5 2 117.5 2c-0.666992 -5.33301 -1 -10.666 -1 -15.999v-12
c0 -11.333 0.333008 -20 1 -26z" />
    <glyph glyph-name="adieresis" unicode="&#xe4;" horiz-adv-x="500" 
d="M101 46c3.33301 0 22.6689 -0.667969 58.002 -2.00098s62.333 -2 81 -2c17.333 0 37.666 0.333008 60.999 1s47.666 1.66699 72.999 3l-13 40c-34 88 -72.667 181 -116 279l-9 8c-11.333 -21.333 -25 -51.666 -41 -90.999l-28 -68zM462.003 41.999h35.001
c-2.66699 -10 -4 -21.667 -4 -35v-26c2 -9.33301 3.33301 -16 4 -20h-10c-16.667 17.333 -37.5 29 -62.5 35s-58.167 9 -99.5 9l-74 1l-76 -1c-42.667 0 -75.667 -2.66699 -99 -8s-44 -17.333 -62 -36h-11c2 15.333 3 29 3 41c0 14.667 -1 28 -3 40h39l55.5 118.5l64 143
c19.667 45.667 33.5 78.5 41.5 98.5c13.333 33.333 22.666 57.333 27.999 72c12 -1.33301 20.333 -2 25 -2h12c5.33301 1.33301 9.33301 2 12 2l40 -104l34 -82z" />
    <glyph glyph-name="adieresis" unicode="&#x434;" horiz-adv-x="500" 
d="M101 46c3.33301 0 22.6689 -0.667969 58.002 -2.00098s62.333 -2 81 -2c17.333 0 37.666 0.333008 60.999 1s47.666 1.66699 72.999 3l-13 40c-34 88 -72.667 181 -116 279l-9 8c-11.333 -21.333 -25 -51.666 -41 -90.999l-28 -68zM462.003 41.999h35.001
c-2.66699 -10 -4 -21.667 -4 -35v-26c2 -9.33301 3.33301 -16 4 -20h-10c-16.667 17.333 -37.5 29 -62.5 35s-58.167 9 -99.5 9l-74 1l-76 -1c-42.667 0 -75.667 -2.66699 -99 -8s-44 -17.333 -62 -36h-11c2 15.333 3 29 3 41c0 14.667 -1 28 -3 40h39l55.5 118.5l64 143
c19.667 45.667 33.5 78.5 41.5 98.5c13.333 33.333 22.666 57.333 27.999 72c12 -1.33301 20.333 -2 25 -2h12c5.33301 1.33301 9.33301 2 12 2l40 -104l34 -82z" />
    <glyph glyph-name="aring" unicode="&#xe5;" horiz-adv-x="500" 
d="M468 279l-1.99512 -39.001l-203 3l-143 -3c0 -60 14 -109 42 -147c31.333 -42 75.666 -63 132.999 -63c23.333 0 48.166 5.83301 74.499 17.5s47.833 25.834 64.5 42.501c2.66699 4 7.33398 6.33301 14.001 7l-6 -50c-26 -18.667 -53.333 -33.167 -82 -43.5
s-58.667 -15.5 -90 -15.5c-12.667 0 -24.334 1 -35.001 3c-16 4 -27.667 6.66699 -35 8c-24.667 5.33301 -48.834 16.666 -72.501 33.999s-42.334 36.833 -56.001 58.5s-23.334 44.167 -29.001 67.5s-8.5 48.666 -8.5 75.999c0 33.333 5.33301 66.333 16 99
s26.167 59.834 46.5 81.501s45.5 38.334 75.5 50.001s60.333 17.5 91 17.5c64.667 0 115 -18 151 -54s54 -86 54 -150zM388.005 279.999c0 49.333 -8.33398 88 -25.001 116c-21.333 36 -54.666 54 -99.999 54c-44.667 0 -80 -18 -106 -54c-23.333 -32 -35 -70.667 -35 -116
l131 -3z" />
    <glyph glyph-name="aring" unicode="&#x435;" horiz-adv-x="500" 
d="M468 279l-1.99512 -39.001l-203 3l-143 -3c0 -60 14 -109 42 -147c31.333 -42 75.666 -63 132.999 -63c23.333 0 48.166 5.83301 74.499 17.5s47.833 25.834 64.5 42.501c2.66699 4 7.33398 6.33301 14.001 7l-6 -50c-26 -18.667 -53.333 -33.167 -82 -43.5
s-58.667 -15.5 -90 -15.5c-12.667 0 -24.334 1 -35.001 3c-16 4 -27.667 6.66699 -35 8c-24.667 5.33301 -48.834 16.666 -72.501 33.999s-42.334 36.833 -56.001 58.5s-23.334 44.167 -29.001 67.5s-8.5 48.666 -8.5 75.999c0 33.333 5.33301 66.333 16 99
s26.167 59.834 46.5 81.501s45.5 38.334 75.5 50.001s60.333 17.5 91 17.5c64.667 0 115 -18 151 -54s54 -86 54 -150zM388.005 279.999c0 49.333 -8.33398 88 -25.001 116c-21.333 36 -54.666 54 -99.999 54c-44.667 0 -80 -18 -106 -54c-23.333 -32 -35 -70.667 -35 -116
l131 -3z" />
    <glyph glyph-name="ae" unicode="&#xe6;" horiz-adv-x="722" 
d="M320 0l3.99707 107.004l1 94v20c0 13.333 -1.33301 20 -4 20s-5.66699 -2 -9 -6s-6.66602 -8.33301 -9.99902 -13l-49 -57l-51 -61l-33 -37c-2.66699 -2.66699 -8.83398 -9.83398 -18.501 -21.501s-21.167 -26.834 -34.5 -45.501c-13.333 2 -26.666 3 -39.999 3h-13h-24
c-8 0 -16.333 -1 -25 -3v7l30 37l46 52l46 50l113 129l-67 62l-33 28l-120 100v7c4.66699 -0.666992 11.834 -1.33398 21.501 -2.00098s18.5 -1 26.5 -1l22 2l9 1l78 -83l62 -63l38 -39c17.333 -16.667 29 -23.334 35 -20.001c2 0.666992 3 8.33398 3 23.001v19
c0 26 -0.666992 53.333 -2 82s-2 56 -2 82c4 -0.666992 11.667 -1.33398 23 -2.00098s17.333 -1 18 -1h21l20 3c0 -26 -0.666992 -53.333 -2 -82s-2 -56 -2 -82c0 -26.667 1 -40.667 3 -42c4.66699 -2.66699 12.5 0.833008 23.5 10.5s27.5 25.834 49.5 48.501l62 63l78 83
l9 -1l22 -2h12c12 0 24 1 36 3v-7l-120 -100l-33 -28l-67 -62l57 -64l56 -65l46 -50l46 -52l30 -37v-7c-12 2 -24.333 3 -37 3h-12h-25.5c-8.33301 0 -17.5 -1 -27.5 -3l-24 32c-7.33301 10 -17 21.667 -29 35l-33 37l-51 61l-49 57c-4 4.66699 -6.66699 8 -8 10
c-4.66699 6 -8.33398 9 -11.001 9s-4 -9.66699 -4 -29v-11l1 -94l4 -107c-7.33301 1.33301 -13.666 2.16602 -18.999 2.49902s-12.666 0.5 -21.999 0.5c-8.66699 0 -16.167 -0.333008 -22.5 -1z" />
    <glyph glyph-name="ae" unicode="&#x436;" horiz-adv-x="722" 
d="M320 0l3.99707 107.004l1 94v20c0 13.333 -1.33301 20 -4 20s-5.66699 -2 -9 -6s-6.66602 -8.33301 -9.99902 -13l-49 -57l-51 -61l-33 -37c-2.66699 -2.66699 -8.83398 -9.83398 -18.501 -21.501s-21.167 -26.834 -34.5 -45.501c-13.333 2 -26.666 3 -39.999 3h-13h-24
c-8 0 -16.333 -1 -25 -3v7l30 37l46 52l46 50l113 129l-67 62l-33 28l-120 100v7c4.66699 -0.666992 11.834 -1.33398 21.501 -2.00098s18.5 -1 26.5 -1l22 2l9 1l78 -83l62 -63l38 -39c17.333 -16.667 29 -23.334 35 -20.001c2 0.666992 3 8.33398 3 23.001v19
c0 26 -0.666992 53.333 -2 82s-2 56 -2 82c4 -0.666992 11.667 -1.33398 23 -2.00098s17.333 -1 18 -1h21l20 3c0 -26 -0.666992 -53.333 -2 -82s-2 -56 -2 -82c0 -26.667 1 -40.667 3 -42c4.66699 -2.66699 12.5 0.833008 23.5 10.5s27.5 25.834 49.5 48.501l62 63l78 83
l9 -1l22 -2h12c12 0 24 1 36 3v-7l-120 -100l-33 -28l-67 -62l57 -64l56 -65l46 -50l46 -52l30 -37v-7c-12 2 -24.333 3 -37 3h-12h-25.5c-8.33301 0 -17.5 -1 -27.5 -3l-24 32c-7.33301 10 -17 21.667 -29 35l-33 37l-51 61l-49 57c-4 4.66699 -6.66699 8 -8 10
c-4.66699 6 -8.33398 9 -11.001 9s-4 -9.66699 -4 -29v-11l1 -94l4 -107c-7.33301 1.33301 -13.666 2.16602 -18.999 2.49902s-12.666 0.5 -21.999 0.5c-8.66699 0 -16.167 -0.333008 -22.5 -1z" />
    <glyph glyph-name="ccedilla" unicode="&#xe7;" horiz-adv-x="425" 
d="M376 139c0 -41.333 -17.6699 -76.8379 -53.0029 -106.505s-83.333 -44.5 -144 -44.5c-50 0 -98.667 17 -146 51v45h5c20 -20 41.667 -34.833 65 -44.5s46.333 -14.5 69 -14.5c34.667 0 63.334 9.83301 86.001 29.5s34 46.834 34 81.501c0 30.667 -9.33301 54 -28 70
c-20.667 18 -52.334 27 -95.001 27l-35 -2v37l33 -2c33.333 0 59 9.33301 77 28s27 41.334 27 68.001c0 27.333 -9.16699 48.5 -27.5 63.5s-41.166 22.5 -68.499 22.5c-25.333 0 -49.166 -6.5 -71.499 -19.5s-38.833 -31.5 -49.5 -55.5l-10 1
c0.666992 3.33301 1 9.33301 1 18c0 6.66699 -0.333008 16.834 -1 30.501s-1 22.834 -1 27.501c44 20 93.333 30 148 30c46 0 83 -8.33301 111 -25c32 -19.333 48 -46.666 48 -81.999c0 -27.333 -9.16699 -51.5 -27.5 -72.5s-45.166 -37.167 -80.499 -48.5
c44 0 77.333 -10.667 100 -32s34 -48.333 34 -81z" />
    <glyph glyph-name="ccedilla" unicode="&#x437;" horiz-adv-x="425" 
d="M376 139c0 -41.333 -17.6699 -76.8379 -53.0029 -106.505s-83.333 -44.5 -144 -44.5c-50 0 -98.667 17 -146 51v45h5c20 -20 41.667 -34.833 65 -44.5s46.333 -14.5 69 -14.5c34.667 0 63.334 9.83301 86.001 29.5s34 46.834 34 81.501c0 30.667 -9.33301 54 -28 70
c-20.667 18 -52.334 27 -95.001 27l-35 -2v37l33 -2c33.333 0 59 9.33301 77 28s27 41.334 27 68.001c0 27.333 -9.16699 48.5 -27.5 63.5s-41.166 22.5 -68.499 22.5c-25.333 0 -49.166 -6.5 -71.499 -19.5s-38.833 -31.5 -49.5 -55.5l-10 1
c0.666992 3.33301 1 9.33301 1 18c0 6.66699 -0.333008 16.834 -1 30.501s-1 22.834 -1 27.501c44 20 93.333 30 148 30c46 0 83 -8.33301 111 -25c32 -19.333 48 -46.666 48 -81.999c0 -27.333 -9.16699 -51.5 -27.5 -72.5s-45.166 -37.167 -80.499 -48.5
c44 0 77.333 -10.667 100 -32s34 -48.333 34 -81z" />
    <glyph glyph-name="egrave" unicode="&#xe8;" 
d="M154 119c42.667 48 90.6641 105.336 143.997 172.003c57.333 71.333 104.333 132.666 141 183.999h43c0 -26.667 -1.33301 -66.334 -4 -119.001s-4 -92.334 -4 -119.001c0 -26 1.16699 -65.667 3.5 -119s3.5 -89.333 3.5 -108l1 -10l-44 3h-21c-6.66699 0 -14 -1 -22 -3
c0 32 1.16699 75.667 3.5 131s3.5 91 3.5 107l-1 115l-2 -8l-98 -112l-97 -118.5c-34 -43 -63 -82.167 -87 -117.5h-44c0 30.667 0.666992 60.667 2 90c4 88 6 138.333 6 151c0 26 -0.666992 54.333 -2 85c-3.33301 76 -5 123.667 -5 143l-1 7
c4.66699 -0.666992 11.834 -1.33398 21.501 -2.00098s18.834 -1 27.501 -1h24c6.66699 1.33301 11.334 2.33301 14.001 3c0 -27.333 -0.666992 -56.666 -2 -87.999c-3.33301 -78.667 -5 -128 -5 -148z" />
    <glyph glyph-name="egrave" unicode="&#x438;" 
d="M154 119c42.667 48 90.6641 105.336 143.997 172.003c57.333 71.333 104.333 132.666 141 183.999h43c0 -26.667 -1.33301 -66.334 -4 -119.001s-4 -92.334 -4 -119.001c0 -26 1.16699 -65.667 3.5 -119s3.5 -89.333 3.5 -108l1 -10l-44 3h-21c-6.66699 0 -14 -1 -22 -3
c0 32 1.16699 75.667 3.5 131s3.5 91 3.5 107l-1 115l-2 -8l-98 -112l-97 -118.5c-34 -43 -63 -82.167 -87 -117.5h-44c0 30.667 0.666992 60.667 2 90c4 88 6 138.333 6 151c0 26 -0.666992 54.333 -2 85c-3.33301 76 -5 123.667 -5 143l-1 7
c4.66699 -0.666992 11.834 -1.33398 21.501 -2.00098s18.834 -1 27.501 -1h24c6.66699 1.33301 11.334 2.33301 14.001 3c0 -27.333 -0.666992 -56.666 -2 -87.999c-3.33301 -78.667 -5 -128 -5 -148z" />
    <glyph glyph-name="eacute" unicode="&#xe9;" 
d="M436 624c-14.667 -31.333 -35.168 -56.167 -61.501 -74.5s-58.5 -27.5 -96.5 -27.5c-35.333 0 -66.166 9.66699 -92.499 29s-45.5 43.333 -57.5 72l23 17c28 -46.667 71.333 -70 130 -70c29.333 0 55 6 77 18s40 29.333 54 52zM153.999 118.999
c42.667 48 90.6641 105.336 143.997 172.003c57.333 71.333 104.333 132.666 141 183.999h43c0 -26.667 -1.33301 -66.334 -4 -119.001s-4 -92.334 -4 -119.001c0 -26 1.16699 -65.667 3.5 -119s3.5 -89.333 3.5 -108l1 -10l-44 3h-21c-6.66699 0 -14 -1 -22 -3
c0 32 1.16699 75.667 3.5 131s3.5 91 3.5 107l-1 115l-2 -8l-98 -112l-97 -118.5c-34 -43 -63 -82.167 -87 -117.5h-44c0 30.667 0.666992 60.667 2 90c4 88 6 138.333 6 151c0 26 -0.666992 54.333 -2 85c-3.33301 76 -5 123.667 -5 143l-1 7
c4.66699 -0.666992 11.834 -1.33398 21.501 -2.00098s18.834 -1 27.501 -1h24c6.66699 1.33301 11.334 2.33301 14.001 3c0 -27.333 -0.666992 -56.666 -2 -87.999c-3.33301 -78.667 -5 -128 -5 -148z" />
    <glyph glyph-name="eacute" unicode="&#x439;" 
d="M436 624c-14.667 -31.333 -35.168 -56.167 -61.501 -74.5s-58.5 -27.5 -96.5 -27.5c-35.333 0 -66.166 9.66699 -92.499 29s-45.5 43.333 -57.5 72l23 17c28 -46.667 71.333 -70 130 -70c29.333 0 55 6 77 18s40 29.333 54 52zM153.999 118.999
c42.667 48 90.6641 105.336 143.997 172.003c57.333 71.333 104.333 132.666 141 183.999h43c0 -26.667 -1.33301 -66.334 -4 -119.001s-4 -92.334 -4 -119.001c0 -26 1.16699 -65.667 3.5 -119s3.5 -89.333 3.5 -108l1 -10l-44 3h-21c-6.66699 0 -14 -1 -22 -3
c0 32 1.16699 75.667 3.5 131s3.5 91 3.5 107l-1 115l-2 -8l-98 -112l-97 -118.5c-34 -43 -63 -82.167 -87 -117.5h-44c0 30.667 0.666992 60.667 2 90c4 88 6 138.333 6 151c0 26 -0.666992 54.333 -2 85c-3.33301 76 -5 123.667 -5 143l-1 7
c4.66699 -0.666992 11.834 -1.33398 21.501 -2.00098s18.834 -1 27.501 -1h24c6.66699 1.33301 11.334 2.33301 14.001 3c0 -27.333 -0.666992 -56.666 -2 -87.999c-3.33301 -78.667 -5 -128 -5 -148z" />
    <glyph glyph-name="ecircumflex" unicode="&#xea;" horiz-adv-x="500" 
d="M164 267c7.33301 -4 18.333 -0.664062 33 10.0029c10.667 7.33301 28.667 23.666 54 48.999l62 63l78 83l9 -1l22 -2h12c12 0 24 1 36 3v-7l-120 -100l-33 -28l-67 -62l57 -64l56 -65l46 -50l46 -52l30 -37v-7c-12 2 -24.333 3 -37 3h-12h-25.5
c-8.33301 0 -17.5 -1 -27.5 -3l-24 32c-7.33301 10 -17 21.667 -29 35l-33 37l-51 61l-51 57l-19 20c-5.33301 2 -9 3 -11 3s-4.66699 -1 -8 -3c-1.33301 -4 -2 -10.667 -2 -20v-21v-94l4 -81v-26l-8 1l-22 2h-27.5c-9 0 -17.5 -1 -25.5 -3l1 26l3 81l2 131
c0 13.333 0.333008 33.333 1 60s1 46.667 1 60c0 38.667 -2.33301 74.667 -7 108l-1 7c4.66699 -0.666992 11.667 -1.33398 21 -2.00098s18 -1 26 -1h24c6.66699 1.33301 11.334 2.33301 14.001 3c0 -26 -1 -53.333 -3 -82s-3 -56 -3 -82c0 -8 0.166992 -15.333 0.5 -22
s3.16602 -13.334 8.49902 -20.001z" />
    <glyph glyph-name="ecircumflex" unicode="&#x43a;" horiz-adv-x="500" 
d="M164 267c7.33301 -4 18.333 -0.664062 33 10.0029c10.667 7.33301 28.667 23.666 54 48.999l62 63l78 83l9 -1l22 -2h12c12 0 24 1 36 3v-7l-120 -100l-33 -28l-67 -62l57 -64l56 -65l46 -50l46 -52l30 -37v-7c-12 2 -24.333 3 -37 3h-12h-25.5
c-8.33301 0 -17.5 -1 -27.5 -3l-24 32c-7.33301 10 -17 21.667 -29 35l-33 37l-51 61l-51 57l-19 20c-5.33301 2 -9 3 -11 3s-4.66699 -1 -8 -3c-1.33301 -4 -2 -10.667 -2 -20v-21v-94l4 -81v-26l-8 1l-22 2h-27.5c-9 0 -17.5 -1 -25.5 -3l1 26l3 81l2 131
c0 13.333 0.333008 33.333 1 60s1 46.667 1 60c0 38.667 -2.33301 74.667 -7 108l-1 7c4.66699 -0.666992 11.667 -1.33398 21 -2.00098s18 -1 26 -1h24c6.66699 1.33301 11.334 2.33301 14.001 3c0 -26 -1 -53.333 -3 -82s-3 -56 -3 -82c0 -8 0.166992 -15.333 0.5 -22
s3.16602 -13.334 8.49902 -20.001z" />
    <glyph glyph-name="edieresis" unicode="&#xeb;" horiz-adv-x="481" 
d="M75 0l-32 2.99707l-32 -3c10 18 29.5 58.333 58.5 121l82.5 183l41 98c13.333 33.333 22.666 57.333 27.999 72c12 -1.33301 20.333 -2 25 -2h12c5.33301 1.33301 9.33301 2 12 2l40 -104l34 -82l66 -152l62 -136l-45 3l-49 -3
c-0.666992 0.666992 -4.66699 14.334 -12 41.001c-4.66699 16.667 -9.66699 31.667 -15 45c-34 88 -72.667 181 -116 279l-9 8c-11.333 -21.333 -25 -51.666 -41 -90.999l-28 -68l-48 -121.5c-15.333 -40.333 -26.666 -71.166 -33.999 -92.499z" />
    <glyph glyph-name="edieresis" unicode="&#x43b;" horiz-adv-x="481" 
d="M75 0l-32 2.99707l-32 -3c10 18 29.5 58.333 58.5 121l82.5 183l41 98c13.333 33.333 22.666 57.333 27.999 72c12 -1.33301 20.333 -2 25 -2h12c5.33301 1.33301 9.33301 2 12 2l40 -104l34 -82l66 -152l62 -136l-45 3l-49 -3
c-0.666992 0.666992 -4.66699 14.334 -12 41.001c-4.66699 16.667 -9.66699 31.667 -15 45c-34 88 -72.667 181 -116 279l-9 8c-11.333 -21.333 -25 -51.666 -41 -90.999l-28 -68l-48 -121.5c-15.333 -40.333 -26.666 -71.166 -33.999 -92.499z" />
    <glyph glyph-name="igrave" unicode="&#xec;" horiz-adv-x="667" 
d="M100 474l31.001 0.000976562l45 -92c15.333 -30.667 32 -62 50 -94c22 -40.667 41.667 -75 59 -103l53 -83c10 16.667 27 47 51 91l61 111c32 60 60.333 116.667 85 170h31c0 -26.667 2.33301 -59.667 7 -99s8 -69 10 -89c5.33301 -44 12 -95.5 20 -154.5l18 -131.5
l-44 3l-44 -3c0 48 -1.33301 89.667 -4 125s-10.334 101.333 -23.001 198l-35 -56c-12 -19.333 -22.667 -37.333 -32 -54c-39.333 -68.667 -76.333 -139.667 -111 -213h-27c-5.33301 12.667 -12.333 28 -21 46s-20.667 41.333 -36 70l-61 106l-62 101
c-10.667 -75.333 -17.667 -126 -21 -152c-8.66699 -64 -13 -121 -13 -171c-6 1.33301 -11.167 2.16602 -15.5 2.49902s-7.5 0.5 -9.5 0.5l-28 -3c7.33301 32.667 15.333 76.667 24 132c6 37.333 13.667 94 23 170z" />
    <glyph glyph-name="igrave" unicode="&#x43c;" horiz-adv-x="667" 
d="M100 474l31.001 0.000976562l45 -92c15.333 -30.667 32 -62 50 -94c22 -40.667 41.667 -75 59 -103l53 -83c10 16.667 27 47 51 91l61 111c32 60 60.333 116.667 85 170h31c0 -26.667 2.33301 -59.667 7 -99s8 -69 10 -89c5.33301 -44 12 -95.5 20 -154.5l18 -131.5
l-44 3l-44 -3c0 48 -1.33301 89.667 -4 125s-10.334 101.333 -23.001 198l-35 -56c-12 -19.333 -22.667 -37.333 -32 -54c-39.333 -68.667 -76.333 -139.667 -111 -213h-27c-5.33301 12.667 -12.333 28 -21 46s-20.667 41.333 -36 70l-61 106l-62 101
c-10.667 -75.333 -17.667 -126 -21 -152c-8.66699 -64 -13 -121 -13 -171c-6 1.33301 -11.167 2.16602 -15.5 2.49902s-7.5 0.5 -9.5 0.5l-28 -3c7.33301 32.667 15.333 76.667 24 132c6 37.333 13.667 94 23 170z" />
    <glyph glyph-name="iacute" unicode="&#xed;" 
d="M153 271l124.994 -2.99902l124 3c0 21.333 -1 53.666 -3 96.999s-3 76 -3 98l-1 7c4.66699 -0.666992 11.834 -1.33398 21.501 -2.00098s18.834 -1 27.501 -1h24c6.66699 1.33301 11.334 2.33301 14.001 3c0 -26 -1.33301 -65.333 -4 -118s-4 -92 -4 -118
s1.16699 -65.667 3.5 -119s3.5 -89.333 3.5 -108l1 -10l-44 3h-21c-6.66699 0 -14 -1 -22 -3c0 30.667 1.16699 72.834 3.5 126.501s3.5 88.167 3.5 103.5l-124 3l-125 -3c0 -24.667 1 -61.334 3 -110.001s3 -85.334 3 -110.001l1 -10l-44 3h-21c-6.66699 0 -14 -1 -22 -3
c0 26.667 1.33301 66.334 4 119.001s4 92.334 4 119.001c0 26 -0.666992 54.333 -2 85c-3.33301 76 -5 123.667 -5 143l-1 7c4.66699 -0.666992 11.834 -1.33398 21.501 -2.00098s18.834 -1 27.501 -1h24c6.66699 1.33301 11.334 2.33301 14.001 3
c0 -26.667 -1.16699 -63.667 -3.5 -111s-3.5 -77.666 -3.5 -90.999z" />
    <glyph glyph-name="iacute" unicode="&#x43d;" 
d="M153 271l124.994 -2.99902l124 3c0 21.333 -1 53.666 -3 96.999s-3 76 -3 98l-1 7c4.66699 -0.666992 11.834 -1.33398 21.501 -2.00098s18.834 -1 27.501 -1h24c6.66699 1.33301 11.334 2.33301 14.001 3c0 -26 -1.33301 -65.333 -4 -118s-4 -92 -4 -118
s1.16699 -65.667 3.5 -119s3.5 -89.333 3.5 -108l1 -10l-44 3h-21c-6.66699 0 -14 -1 -22 -3c0 30.667 1.16699 72.834 3.5 126.501s3.5 88.167 3.5 103.5l-124 3l-125 -3c0 -24.667 1 -61.334 3 -110.001s3 -85.334 3 -110.001l1 -10l-44 3h-21c-6.66699 0 -14 -1 -22 -3
c0 26.667 1.33301 66.334 4 119.001s4 92.334 4 119.001c0 26 -0.666992 54.333 -2 85c-3.33301 76 -5 123.667 -5 143l-1 7c4.66699 -0.666992 11.834 -1.33398 21.501 -2.00098s18.834 -1 27.501 -1h24c6.66699 1.33301 11.334 2.33301 14.001 3
c0 -26.667 -1.16699 -63.667 -3.5 -111s-3.5 -77.666 -3.5 -90.999z" />
    <glyph glyph-name="icircumflex" unicode="&#xee;" 
d="M34 240c0 72.667 23.999 131.334 71.999 176.001s108.667 67 182 67c70.667 0 128.334 -25.333 173.001 -76c20 -22.667 34.833 -48.667 44.5 -78s14.5 -60 14.5 -92c0 -48.667 -11.667 -92.834 -35 -132.501s-53.5 -68.834 -90.5 -87.501s-78.5 -28 -124.5 -28
c-14.667 0 -32 2 -52 6s-37.5 9.33301 -52.5 16s-27.833 14 -38.5 22s-22.667 19.333 -36 34c-22 24.667 -37 50.334 -45 77.001s-12 58.667 -12 96zM277.999 22c22.667 0 43.168 5.16602 61.501 15.499s34.833 25.166 49.5 44.499c11.333 16 19.833 32.333 25.5 49
s10 34.5 13 53.5s4.5 38.167 4.5 57.5c0 54.667 -10 100.334 -30 137.001c-26 47.333 -64.333 71 -115 71c-58 0 -101 -24 -129 -72c-23.333 -40 -35 -91 -35 -153c0 -57.333 11.333 -103.666 34 -138.999c27.333 -42.667 67.666 -64 120.999 -64z" />
    <glyph glyph-name="icircumflex" unicode="&#x43e;" 
d="M34 240c0 72.667 23.999 131.334 71.999 176.001s108.667 67 182 67c70.667 0 128.334 -25.333 173.001 -76c20 -22.667 34.833 -48.667 44.5 -78s14.5 -60 14.5 -92c0 -48.667 -11.667 -92.834 -35 -132.501s-53.5 -68.834 -90.5 -87.501s-78.5 -28 -124.5 -28
c-14.667 0 -32 2 -52 6s-37.5 9.33301 -52.5 16s-27.833 14 -38.5 22s-22.667 19.333 -36 34c-22 24.667 -37 50.334 -45 77.001s-12 58.667 -12 96zM277.999 22c22.667 0 43.168 5.16602 61.501 15.499s34.833 25.166 49.5 44.499c11.333 16 19.833 32.333 25.5 49
s10 34.5 13 53.5s4.5 38.167 4.5 57.5c0 54.667 -10 100.334 -30 137.001c-26 47.333 -64.333 71 -115 71c-58 0 -101 -24 -129 -72c-23.333 -40 -35 -91 -35 -153c0 -57.333 11.333 -103.666 34 -138.999c27.333 -42.667 67.666 -64 120.999 -64z" />
    <glyph glyph-name="idieresis" unicode="&#xef;" 
d="M278 466c40 2 75.001 3.66699 105.001 5s63 2 99 2c0 -26 -1.33301 -65.333 -4 -118s-4 -92 -4 -118s1.16699 -65.667 3.5 -119s3.5 -89.333 3.5 -108l1 -10l-44 3h-21c-6.66699 0 -14 -1 -22 -3c0 32 1.16699 75.667 3.5 131s3.5 91 3.5 107
c0 20.667 -0.333008 52.167 -1 94.5s-1 74.166 -1 95.499l-122 3l-121 -3c0 -22 -0.666992 -58.5 -2 -109.5s-2 -78.167 -2 -81.5c0 -25.333 1 -63.333 3 -114s3 -88.334 3 -113.001l1 -10l-44 3h-21c-6.66699 0 -14 -1 -22 -3c0 26.667 1.33301 66.334 4 119.001
s4 92.334 4 119.001c0 26 -0.666992 54.333 -2 85c-3.33301 76 -5 123.667 -5 143l-1 7c43.333 0 81.666 -0.833008 114.999 -2.5z" />
    <glyph glyph-name="idieresis" unicode="&#x43f;" 
d="M278 466c40 2 75.001 3.66699 105.001 5s63 2 99 2c0 -26 -1.33301 -65.333 -4 -118s-4 -92 -4 -118s1.16699 -65.667 3.5 -119s3.5 -89.333 3.5 -108l1 -10l-44 3h-21c-6.66699 0 -14 -1 -22 -3c0 32 1.16699 75.667 3.5 131s3.5 91 3.5 107
c0 20.667 -0.333008 52.167 -1 94.5s-1 74.166 -1 95.499l-122 3l-121 -3c0 -22 -0.666992 -58.5 -2 -109.5s-2 -78.167 -2 -81.5c0 -25.333 1 -63.333 3 -114s3 -88.334 3 -113.001l1 -10l-44 3h-21c-6.66699 0 -14 -1 -22 -3c0 26.667 1.33301 66.334 4 119.001
s4 92.334 4 119.001c0 26 -0.666992 54.333 -2 85c-3.33301 76 -5 123.667 -5 143l-1 7c43.333 0 81.666 -0.833008 114.999 -2.5z" />
    <glyph glyph-name="eth" unicode="&#xf0;" 
d="M146 69l-0.000976562 -61v-90l3 -122l-10 1c-8.66699 1.33301 -15.667 2.16602 -21 2.49902s-11.333 0.5 -18 0.5c-4 0 -10.667 -0.666992 -20 -2c-4 0 -7.5 -0.333008 -10.5 -1s-4.5 1 -4.5 5l3 36l2 60l3 87v488l10 -1l18 -2h11c11.333 0 22.666 1 33.999 3v-95l4 7
l14 24c22.667 27.333 45.167 46.833 67.5 58.5s50.833 17.5 85.5 17.5c62 0 111.667 -23 149 -69c34.667 -42.667 52 -96 52 -160c0 -39.333 -3.66699 -73.166 -11 -101.499s-21.333 -55.833 -42 -82.5c-39.333 -52 -93.666 -78 -162.999 -78
c-35.333 0 -65.666 7.83301 -90.999 23.5s-47 39.5 -65 71.5v-20zM430.999 250c0 24.667 -2.5 49.001 -7.5 73.001s-12.833 45.167 -23.5 63.5s-26 33.166 -46 44.499s-40.667 17 -62 17c-52 0 -90.667 -25.333 -116 -76c-20 -40 -30 -89 -30 -147
c0 -30 4.66699 -61.333 14 -94c4 -14.667 10.833 -29 20.5 -43s20.667 -25.333 33 -34s24.5 -14.334 36.5 -17.001s26.333 -4 43 -4c25.333 0 48 7.5 68 22.5s35.667 34.833 47 59.5c6.66699 14.667 12.167 35.834 16.5 63.501s6.5 51.5 6.5 71.5z" />
    <glyph glyph-name="eth" unicode="&#x440;" 
d="M146 69l-0.000976562 -61v-90l3 -122l-10 1c-8.66699 1.33301 -15.667 2.16602 -21 2.49902s-11.333 0.5 -18 0.5c-4 0 -10.667 -0.666992 -20 -2c-4 0 -7.5 -0.333008 -10.5 -1s-4.5 1 -4.5 5l3 36l2 60l3 87v488l10 -1l18 -2h11c11.333 0 22.666 1 33.999 3v-95l4 7
l14 24c22.667 27.333 45.167 46.833 67.5 58.5s50.833 17.5 85.5 17.5c62 0 111.667 -23 149 -69c34.667 -42.667 52 -96 52 -160c0 -39.333 -3.66699 -73.166 -11 -101.499s-21.333 -55.833 -42 -82.5c-39.333 -52 -93.666 -78 -162.999 -78
c-35.333 0 -65.666 7.83301 -90.999 23.5s-47 39.5 -65 71.5v-20zM430.999 250c0 24.667 -2.5 49.001 -7.5 73.001s-12.833 45.167 -23.5 63.5s-26 33.166 -46 44.499s-40.667 17 -62 17c-52 0 -90.667 -25.333 -116 -76c-20 -40 -30 -89 -30 -147
c0 -30 4.66699 -61.333 14 -94c4 -14.667 10.833 -29 20.5 -43s20.667 -25.333 33 -34s24.5 -14.334 36.5 -17.001s26.333 -4 43 -4c25.333 0 48 7.5 68 22.5s35.667 34.833 47 59.5c6.66699 14.667 12.167 35.834 16.5 63.501s6.5 51.5 6.5 71.5z" />
    <glyph glyph-name="ntilde" unicode="&#xf1;" horiz-adv-x="481" 
d="M451 439l-23 -66.0029h-8l-13 17.5c-4.66699 6.33301 -9.33398 11.5 -14.001 15.5c-11.333 12.667 -26.166 22.834 -44.499 30.501s-36.5 11.5 -54.5 11.5c-54.667 0 -98 -21.333 -130 -64c-29.333 -39.333 -44 -87 -44 -143c0 -27.333 3.83301 -54.166 11.5 -80.499
s19.5 -49.666 35.5 -69.999s36.167 -36.333 60.5 -48s49.833 -17.5 76.5 -17.5c28 0 51.833 4.83301 71.5 14.5s41.834 25.5 66.501 47.5l6 -3l-5 -46c-45.333 -33.333 -96.333 -50 -153 -50c-54 0 -99.333 9.33301 -136 28c-40.667 20.667 -72.334 54 -95.001 100
c-8.66699 17.333 -15 36.5 -19 57.5s-6 41.833 -6 62.5c0 76 24 135.667 72 179s110.333 65 187 65c30.667 0 58.667 -3.16699 84 -9.5s50 -16.833 74 -31.5z" />
    <glyph glyph-name="ntilde" unicode="&#x441;" horiz-adv-x="481" 
d="M451 439l-23 -66.0029h-8l-13 17.5c-4.66699 6.33301 -9.33398 11.5 -14.001 15.5c-11.333 12.667 -26.166 22.834 -44.499 30.501s-36.5 11.5 -54.5 11.5c-54.667 0 -98 -21.333 -130 -64c-29.333 -39.333 -44 -87 -44 -143c0 -27.333 3.83301 -54.166 11.5 -80.499
s19.5 -49.666 35.5 -69.999s36.167 -36.333 60.5 -48s49.833 -17.5 76.5 -17.5c28 0 51.833 4.83301 71.5 14.5s41.834 25.5 66.501 47.5l6 -3l-5 -46c-45.333 -33.333 -96.333 -50 -153 -50c-54 0 -99.333 9.33301 -136 28c-40.667 20.667 -72.334 54 -95.001 100
c-8.66699 17.333 -15 36.5 -19 57.5s-6 41.833 -6 62.5c0 76 24 135.667 72 179s110.333 65 187 65c30.667 0 58.667 -3.16699 84 -9.5s50 -16.833 74 -31.5z" />
    <glyph glyph-name="ograve" unicode="&#xf2;" horiz-adv-x="444" 
d="M183 432c-16 0 -38.668 -1.00098 -68.001 -3.00098s-64.333 -5.33301 -105 -10c1.33301 12 2 20.667 2 26v13c-1.33301 6.66699 -2 11.667 -2 15c123.333 -4.66699 194 -7 212 -7c30 2 61.333 3.66699 94 5s72 2 118 2c-0.666992 -5.33301 -1 -10.666 -1 -15.999v-12
c0 -11.333 0.333008 -20 1 -26c-37.333 4 -71.166 7.16699 -101.499 9.5s-54.5 3.5 -72.5 3.5c0 -22 -0.333008 -54.333 -1 -97s-1 -75.334 -1 -98.001c0 -25.333 1 -63.333 3 -114s3 -88.334 3 -113.001l1 -10l-44 3h-21c-6.66699 0 -14 -1 -22 -3
c0 26.667 1.33301 66.334 4 119.001s4 92.334 4 119.001c0 32 -0.333008 64.167 -1 96.5z" />
    <glyph glyph-name="ograve" unicode="&#x442;" horiz-adv-x="444" 
d="M183 432c-16 0 -38.668 -1.00098 -68.001 -3.00098s-64.333 -5.33301 -105 -10c1.33301 12 2 20.667 2 26v13c-1.33301 6.66699 -2 11.667 -2 15c123.333 -4.66699 194 -7 212 -7c30 2 61.333 3.66699 94 5s72 2 118 2c-0.666992 -5.33301 -1 -10.666 -1 -15.999v-12
c0 -11.333 0.333008 -20 1 -26c-37.333 4 -71.166 7.16699 -101.499 9.5s-54.5 3.5 -72.5 3.5c0 -22 -0.333008 -54.333 -1 -97s-1 -75.334 -1 -98.001c0 -25.333 1 -63.333 3 -114s3 -88.334 3 -113.001l1 -10l-44 3h-21c-6.66699 0 -14 -1 -22 -3
c0 26.667 1.33301 66.334 4 119.001s4 92.334 4 119.001c0 32 -0.333008 64.167 -1 96.5z" />
    <glyph glyph-name="oacute" unicode="&#xf3;" horiz-adv-x="500" 
d="M118 -204l48 83l41 79l17 35l4 8l-13 34l-188 438l33 -3h25l37 2l8 -26l51 -134l84 -201l8 -7l12 26l33 75l40 103l61 165l30 -3l35 3l-236 -522l-62 -155l-30 4c-6 0 -12.833 -0.5 -20.5 -1.5s-13.5 -1.83301 -17.5 -2.5z" />
    <glyph glyph-name="oacute" unicode="&#x443;" horiz-adv-x="500" 
d="M118 -204l48 83l41 79l17 35l4 8l-13 34l-188 438l33 -3h25l37 2l8 -26l51 -134l84 -201l8 -7l12 26l33 75l40 103l61 165l30 -3l35 3l-236 -522l-62 -155l-30 4c-6 0 -12.833 -0.5 -20.5 -1.5s-13.5 -1.83301 -17.5 -2.5z" />
    <glyph glyph-name="ocircumflex" unicode="&#xf4;" horiz-adv-x="778" 
d="M244 440c-46 0 -78.667 -24.333 -98 -73c-14.667 -36.667 -22 -86.667 -22 -150c0 -51.333 7.66699 -94 23 -128c19.333 -42.667 48.333 -64 87 -64c39.333 0 69.666 25.667 90.999 77c17.333 42 26 91 26 147c0 48.667 -8.33301 91 -25 127
c-19.333 42.667 -46.666 64 -81.999 64zM534 30c46 0 78.666 24.332 97.999 72.999c14.667 36.667 22 86.667 22 150c0 51.333 -7.66699 94 -23 128c-19.333 42.667 -48.333 64 -87 64c-39.333 0 -69.666 -25.667 -90.999 -77c-17.333 -42 -26 -91 -26 -147
c0 -49.333 8 -91.666 24 -126.999c19.333 -42.667 47 -64 83 -64zM350.999 649.999l-3 91.001l-1 7l13 -3h62l13 3l-1 -27l-7 -221l-1 -123c16 35.333 35 61.5 57 78.5s49.667 25.5 83 25.5c51.333 0 92.666 -19.667 123.999 -59c34.667 -43.333 52 -104.333 52 -183
c0 -70.667 -17.5 -130 -52.5 -178s-80.167 -72 -135.5 -72c-30 0 -55.333 8.33301 -76 25s-38 40.667 -52 72l1 -76v-92l3 -122l-10 1c-8.66699 1.33301 -15.667 2.16602 -21 2.49902s-11.333 0.5 -18 0.5c-4 0 -10.667 -0.666992 -20 -2c-4 0 -7.5 -0.333008 -10.5 -1
s-4.5 1 -4.5 5l3 36l2 60l1 195c-16 -35.333 -35 -61.5 -57 -78.5s-49.667 -25.5 -83 -25.5c-51.333 0 -92.666 19.667 -123.999 59c-34.667 43.333 -52 104.333 -52 183c0 70.667 17.5 130 52.5 178s80.167 72 135.5 72c30 0 55.333 -8.33301 76 -25s38 -40.667 52 -72z
" />
    <glyph glyph-name="ocircumflex" unicode="&#x444;" horiz-adv-x="778" 
d="M244 440c-46 0 -78.667 -24.333 -98 -73c-14.667 -36.667 -22 -86.667 -22 -150c0 -51.333 7.66699 -94 23 -128c19.333 -42.667 48.333 -64 87 -64c39.333 0 69.666 25.667 90.999 77c17.333 42 26 91 26 147c0 48.667 -8.33301 91 -25 127
c-19.333 42.667 -46.666 64 -81.999 64zM534 30c46 0 78.666 24.332 97.999 72.999c14.667 36.667 22 86.667 22 150c0 51.333 -7.66699 94 -23 128c-19.333 42.667 -48.333 64 -87 64c-39.333 0 -69.666 -25.667 -90.999 -77c-17.333 -42 -26 -91 -26 -147
c0 -49.333 8 -91.666 24 -126.999c19.333 -42.667 47 -64 83 -64zM350.999 649.999l-3 91.001l-1 7l13 -3h62l13 3l-1 -27l-7 -221l-1 -123c16 35.333 35 61.5 57 78.5s49.667 25.5 83 25.5c51.333 0 92.666 -19.667 123.999 -59c34.667 -43.333 52 -104.333 52 -183
c0 -70.667 -17.5 -130 -52.5 -178s-80.167 -72 -135.5 -72c-30 0 -55.333 8.33301 -76 25s-38 40.667 -52 72l1 -76v-92l3 -122l-10 1c-8.66699 1.33301 -15.667 2.16602 -21 2.49902s-11.333 0.5 -18 0.5c-4 0 -10.667 -0.666992 -20 -2c-4 0 -7.5 -0.333008 -10.5 -1
s-4.5 1 -4.5 5l3 36l2 60l1 195c-16 -35.333 -35 -61.5 -57 -78.5s-49.667 -25.5 -83 -25.5c-51.333 0 -92.666 19.667 -123.999 59c-34.667 43.333 -52 104.333 -52 183c0 70.667 17.5 130 52.5 178s80.167 72 135.5 72c30 0 55.333 -8.33301 76 -25s38 -40.667 52 -72z
" />
    <glyph glyph-name="otilde" unicode="&#xf5;" horiz-adv-x="500" 
d="M392 390l-63 -72l-48 -58l187 -253v-7c-12 2 -24.333 3 -37 3h-13h-22.5c-7 0 -14.833 -1 -23.5 -3l-51 78l-88 125l-56 -78l-50 -71l-36 -54l-28 3h-17c-5.33301 0 -11 -1 -17 -3v7l15 18l57 69l108 139l-180 240l8 -1l45 -2l49 3l50 -77l43 -60l34 -47l56 72l82 112
l33 -3h18l18 3z" />
    <glyph glyph-name="otilde" unicode="&#x445;" horiz-adv-x="500" 
d="M392 390l-63 -72l-48 -58l187 -253v-7c-12 2 -24.333 3 -37 3h-13h-22.5c-7 0 -14.833 -1 -23.5 -3l-51 78l-88 125l-56 -78l-50 -71l-36 -54l-28 3h-17c-5.33301 0 -11 -1 -17 -3v7l15 18l57 69l108 139l-180 240l8 -1l45 -2l49 3l50 -77l43 -60l34 -47l56 72l82 112
l33 -3h18l18 3z" />
    <glyph glyph-name="odieresis" unicode="&#xf6;" 
d="M278 6l-205.004 -6.00195c0 26.667 1.33301 66.334 4 119.001s4 92.334 4 119.001c0 26 -0.666992 54.333 -2 85c-3.33301 76 -5 123.667 -5 143l-1 7c4.66699 -0.666992 11.834 -1.33398 21.501 -2.00098s18.834 -1 27.501 -1h24
c6.66699 1.33301 11.334 2.33301 14.001 3c0 -27.333 -0.666992 -56.666 -2 -87.999c-3.33301 -78.667 -5 -128 -5 -148c0 -22 0.666992 -58.667 2 -110s2 -78.333 2 -81c14 0 34.333 -0.666992 61 -2s46.667 -2 60 -2s36.166 0.666992 68.499 2s49.166 2 50.499 2
c0 30 0.833008 67.833 2.5 113.5s2.5 71.834 2.5 78.501c0 25.333 -1 63.333 -3 114s-3 88.667 -3 114l-1 7c4.66699 -0.666992 11.834 -1.33398 21.501 -2.00098s18.834 -1 27.501 -1h24c6.66699 1.33301 11.334 2.33301 14.001 3c0 -26 -1.33301 -65.333 -4 -118
s-4 -92 -4 -118c0 -27.333 0.833008 -64.333 2.5 -111s2.5 -74.667 2.5 -84h51c-2.66699 -10 -4 -21.667 -4 -35v-26c2 -9.33301 3.33301 -16 4 -20h-10c-16.667 17.333 -37.5 29 -62.5 35s-58.167 9 -99.5 9z" />
    <glyph glyph-name="odieresis" unicode="&#x446;" 
d="M278 6l-205.004 -6.00195c0 26.667 1.33301 66.334 4 119.001s4 92.334 4 119.001c0 26 -0.666992 54.333 -2 85c-3.33301 76 -5 123.667 -5 143l-1 7c4.66699 -0.666992 11.834 -1.33398 21.501 -2.00098s18.834 -1 27.501 -1h24
c6.66699 1.33301 11.334 2.33301 14.001 3c0 -27.333 -0.666992 -56.666 -2 -87.999c-3.33301 -78.667 -5 -128 -5 -148c0 -22 0.666992 -58.667 2 -110s2 -78.333 2 -81c14 0 34.333 -0.666992 61 -2s46.667 -2 60 -2s36.166 0.666992 68.499 2s49.166 2 50.499 2
c0 30 0.833008 67.833 2.5 113.5s2.5 71.834 2.5 78.501c0 25.333 -1 63.333 -3 114s-3 88.667 -3 114l-1 7c4.66699 -0.666992 11.834 -1.33398 21.501 -2.00098s18.834 -1 27.501 -1h24c6.66699 1.33301 11.334 2.33301 14.001 3c0 -26 -1.33301 -65.333 -4 -118
s-4 -92 -4 -118c0 -27.333 0.833008 -64.333 2.5 -111s2.5 -74.667 2.5 -84h51c-2.66699 -10 -4 -21.667 -4 -35v-26c2 -9.33301 3.33301 -16 4 -20h-10c-16.667 17.333 -37.5 29 -62.5 35s-58.167 9 -99.5 9z" />
    <glyph glyph-name="divide" unicode="&#xf7;" horiz-adv-x="519" 
d="M49 466l-1.00488 7.00195c4.66699 -0.666992 11.834 -1.33398 21.501 -2.00098s18.834 -1 27.501 -1h24c6.66699 1.33301 11.334 2.33301 14.001 3c0 -30 -0.333008 -59 -1 -87s-2 -56 -4 -84c0 -24.667 8.33301 -43.334 25 -56.001s38.334 -19 65.001 -19
c24 0 48.167 3.33301 72.5 10s47.166 17 68.499 31c0 21.333 -1 54 -3 98s-3 77.333 -3 100l-1 7c4.66699 -0.666992 11.834 -1.33398 21.501 -2.00098s18.834 -1 27.501 -1h24c6.66699 1.33301 11.334 2.33301 14.001 3c0 -26 -1.33301 -65.333 -4 -118s-4 -92 -4 -118
s1.16699 -65.667 3.5 -119s3.5 -89.333 3.5 -108l1 -10l-44 3h-21c-6.66699 0 -14 -1 -22 -3c0 18.667 1.66699 66.667 5 144c1.33301 30.667 2 59.667 2 87c-22 -14.667 -47.333 -26.334 -76 -35.001s-57 -13 -85 -13c-42.667 0 -77.334 8.66699 -104.001 26
c-29.333 19.333 -44 47.333 -44 84c0.666992 9.33301 1.16699 20.333 1.5 33s0.5 28 0.5 46v12c0 14.667 -0.333008 29.334 -1 44.001s-2 27.334 -4 38.001z" />
    <glyph glyph-name="divide" unicode="&#x447;" horiz-adv-x="519" 
d="M49 466l-1.00488 7.00195c4.66699 -0.666992 11.834 -1.33398 21.501 -2.00098s18.834 -1 27.501 -1h24c6.66699 1.33301 11.334 2.33301 14.001 3c0 -30 -0.333008 -59 -1 -87s-2 -56 -4 -84c0 -24.667 8.33301 -43.334 25 -56.001s38.334 -19 65.001 -19
c24 0 48.167 3.33301 72.5 10s47.166 17 68.499 31c0 21.333 -1 54 -3 98s-3 77.333 -3 100l-1 7c4.66699 -0.666992 11.834 -1.33398 21.501 -2.00098s18.834 -1 27.501 -1h24c6.66699 1.33301 11.334 2.33301 14.001 3c0 -26 -1.33301 -65.333 -4 -118s-4 -92 -4 -118
s1.16699 -65.667 3.5 -119s3.5 -89.333 3.5 -108l1 -10l-44 3h-21c-6.66699 0 -14 -1 -22 -3c0 18.667 1.66699 66.667 5 144c1.33301 30.667 2 59.667 2 87c-22 -14.667 -47.333 -26.334 -76 -35.001s-57 -13 -85 -13c-42.667 0 -77.334 8.66699 -104.001 26
c-29.333 19.333 -44 47.333 -44 84c0.666992 9.33301 1.16699 20.333 1.5 33s0.5 28 0.5 46v12c0 14.667 -0.333008 29.334 -1 44.001s-2 27.334 -4 38.001z" />
    <glyph glyph-name="oslash" unicode="&#xf8;" horiz-adv-x="722" 
d="M323 46c0 21.333 0.323242 53.001 0.990234 95.001s1 74.333 1 97c0 25.333 -1 63.333 -3 114s-3 88.667 -3 114l-1 7c4.66699 -0.666992 11.834 -1.33398 21.501 -2.00098s18.834 -1 27.501 -1h24c6.66699 1.33301 11.334 2.33301 14.001 3
c0 -26 -1.33301 -65.333 -4 -118s-4 -92 -4 -118c0 -32.667 0.5 -72.334 1.5 -119.001s1.5 -70.667 1.5 -72c8.66699 0 24.5 -0.666992 47.5 -2s35.833 -2 38.5 -2c17.333 0 32 0.333008 44 1s23.333 1.33398 34 2.00098c0 29.333 0.833008 67 2.5 113s2.5 72.667 2.5 80
c0 25.333 -1 63.333 -3 114s-3 88.667 -3 114l-1 7c4.66699 -0.666992 11.834 -1.33398 21.501 -2.00098s18.834 -1 27.501 -1h24c6.66699 1.33301 11.334 2.33301 14.001 3c0 -26 -1.33301 -65.333 -4 -118s-4 -92 -4 -118s1.16699 -65.667 3.5 -119s3.5 -89.333 3.5 -108
l1 -10c-59.333 0 -109.166 0.5 -149.499 1.5s-86.5 2.5 -138.5 4.5c-29.333 0 -56.333 -0.333008 -81 -1c-123.333 -3.33301 -192.333 -5 -207 -5c0 26.667 1.33301 66.334 4 119.001s4 92.334 4 119.001c0 26 -0.666992 54.333 -2 85c-3.33301 76 -5 123.667 -5 143l-1 7
c4.66699 -0.666992 11.834 -1.33398 21.501 -2.00098s18.834 -1 27.501 -1h24c6.66699 1.33301 11.334 2.33301 14.001 3c0 -27.333 -0.666992 -56.666 -2 -87.999c-3.33301 -78.667 -5 -128 -5 -148c0 -22 0.666992 -58.833 2 -110.5s2 -78.834 2 -81.501
c14.667 0 28.834 -0.333008 42.501 -1l39.5 -2c9.33301 0 23.666 0.666992 42.999 2s33 2 41 2z" />
    <glyph glyph-name="oslash" unicode="&#x448;" horiz-adv-x="722" 
d="M323 46c0 21.333 0.323242 53.001 0.990234 95.001s1 74.333 1 97c0 25.333 -1 63.333 -3 114s-3 88.667 -3 114l-1 7c4.66699 -0.666992 11.834 -1.33398 21.501 -2.00098s18.834 -1 27.501 -1h24c6.66699 1.33301 11.334 2.33301 14.001 3
c0 -26 -1.33301 -65.333 -4 -118s-4 -92 -4 -118c0 -32.667 0.5 -72.334 1.5 -119.001s1.5 -70.667 1.5 -72c8.66699 0 24.5 -0.666992 47.5 -2s35.833 -2 38.5 -2c17.333 0 32 0.333008 44 1s23.333 1.33398 34 2.00098c0 29.333 0.833008 67 2.5 113s2.5 72.667 2.5 80
c0 25.333 -1 63.333 -3 114s-3 88.667 -3 114l-1 7c4.66699 -0.666992 11.834 -1.33398 21.501 -2.00098s18.834 -1 27.501 -1h24c6.66699 1.33301 11.334 2.33301 14.001 3c0 -26 -1.33301 -65.333 -4 -118s-4 -92 -4 -118s1.16699 -65.667 3.5 -119s3.5 -89.333 3.5 -108
l1 -10c-59.333 0 -109.166 0.5 -149.499 1.5s-86.5 2.5 -138.5 4.5c-29.333 0 -56.333 -0.333008 -81 -1c-123.333 -3.33301 -192.333 -5 -207 -5c0 26.667 1.33301 66.334 4 119.001s4 92.334 4 119.001c0 26 -0.666992 54.333 -2 85c-3.33301 76 -5 123.667 -5 143l-1 7
c4.66699 -0.666992 11.834 -1.33398 21.501 -2.00098s18.834 -1 27.501 -1h24c6.66699 1.33301 11.334 2.33301 14.001 3c0 -27.333 -0.666992 -56.666 -2 -87.999c-3.33301 -78.667 -5 -128 -5 -148c0 -22 0.666992 -58.833 2 -110.5s2 -78.834 2 -81.501
c14.667 0 28.834 -0.333008 42.501 -1l39.5 -2c9.33301 0 23.666 0.666992 42.999 2s33 2 41 2z" />
    <glyph glyph-name="ugrave" unicode="&#xf9;" horiz-adv-x="722" 
d="M361 6c-29.333 0 -56.3418 -0.332031 -81.0088 -0.999023c-123.333 -3.33301 -192.333 -5 -207 -5c0 26.667 1.33301 66.334 4 119.001s4 92.334 4 119.001c0 26 -0.666992 54.333 -2 85c-3.33301 76 -5 123.667 -5 143l-1 7
c4.66699 -0.666992 11.834 -1.33398 21.501 -2.00098s18.834 -1 27.501 -1h24c6.66699 1.33301 11.334 2.33301 14.001 3c0 -27.333 -0.666992 -56.666 -2 -87.999c-3.33301 -78.667 -5 -128 -5 -148c0 -22 0.666992 -58.833 2 -110.5s2 -78.834 2 -81.501
c14.667 0 28.834 -0.333008 42.501 -1l39.5 -2c9.33301 0 23.666 0.666992 42.999 2s33 2 41 2c0 21.333 0.333008 53 1 95s1 74.333 1 97c0 25.333 -1 63.333 -3 114s-3 88.667 -3 114l-1 7c4.66699 -0.666992 11.834 -1.33398 21.501 -2.00098s18.834 -1 27.501 -1h24
c6.66699 1.33301 11.334 2.33301 14.001 3c0 -26 -1.33301 -65.333 -4 -118s-4 -92 -4 -118c0 -32.667 0.5 -72.334 1.5 -119.001s1.5 -70.667 1.5 -72c8.66699 0 24.5 -0.666992 47.5 -2s35.833 -2 38.5 -2c17.333 0 32 0.333008 44 1s23.333 1.33398 34 2.00098
c0 29.333 0.833008 67 2.5 113s2.5 72.667 2.5 80c0 25.333 -1 63.333 -3 114s-3 88.667 -3 114l-1 7c4.66699 -0.666992 11.834 -1.33398 21.501 -2.00098s18.834 -1 27.501 -1h24c6.66699 1.33301 11.334 2.33301 14.001 3c0 -26 -1.33301 -65.333 -4 -118s-4 -92 -4 -118
c0 -27.333 0.833008 -64.333 2.5 -111s2.5 -74.667 2.5 -84h50c-2.66699 -10 -4 -21.667 -4 -35v-26c2 -9.33301 3.33301 -16 4 -20h-10c-17.333 18 -38 29.667 -62 35s-57.333 8 -100 8c-18 0 -45 0.333008 -81 1s-63.333 1 -82 1z" />
    <glyph glyph-name="ugrave" unicode="&#x449;" horiz-adv-x="722" 
d="M361 6c-29.333 0 -56.3418 -0.332031 -81.0088 -0.999023c-123.333 -3.33301 -192.333 -5 -207 -5c0 26.667 1.33301 66.334 4 119.001s4 92.334 4 119.001c0 26 -0.666992 54.333 -2 85c-3.33301 76 -5 123.667 -5 143l-1 7
c4.66699 -0.666992 11.834 -1.33398 21.501 -2.00098s18.834 -1 27.501 -1h24c6.66699 1.33301 11.334 2.33301 14.001 3c0 -27.333 -0.666992 -56.666 -2 -87.999c-3.33301 -78.667 -5 -128 -5 -148c0 -22 0.666992 -58.833 2 -110.5s2 -78.834 2 -81.501
c14.667 0 28.834 -0.333008 42.501 -1l39.5 -2c9.33301 0 23.666 0.666992 42.999 2s33 2 41 2c0 21.333 0.333008 53 1 95s1 74.333 1 97c0 25.333 -1 63.333 -3 114s-3 88.667 -3 114l-1 7c4.66699 -0.666992 11.834 -1.33398 21.501 -2.00098s18.834 -1 27.501 -1h24
c6.66699 1.33301 11.334 2.33301 14.001 3c0 -26 -1.33301 -65.333 -4 -118s-4 -92 -4 -118c0 -32.667 0.5 -72.334 1.5 -119.001s1.5 -70.667 1.5 -72c8.66699 0 24.5 -0.666992 47.5 -2s35.833 -2 38.5 -2c17.333 0 32 0.333008 44 1s23.333 1.33398 34 2.00098
c0 29.333 0.833008 67 2.5 113s2.5 72.667 2.5 80c0 25.333 -1 63.333 -3 114s-3 88.667 -3 114l-1 7c4.66699 -0.666992 11.834 -1.33398 21.501 -2.00098s18.834 -1 27.501 -1h24c6.66699 1.33301 11.334 2.33301 14.001 3c0 -26 -1.33301 -65.333 -4 -118s-4 -92 -4 -118
c0 -27.333 0.833008 -64.333 2.5 -111s2.5 -74.667 2.5 -84h50c-2.66699 -10 -4 -21.667 -4 -35v-26c2 -9.33301 3.33301 -16 4 -20h-10c-17.333 18 -38 29.667 -62 35s-57.333 8 -100 8c-18 0 -45 0.333008 -81 1s-63.333 1 -82 1z" />
    <glyph glyph-name="uacute" unicode="&#xfa;" horiz-adv-x="463" 
d="M157 38c7.33301 0 18.667 -0.334961 34 -1.00195s28 -1 38 -1c36 0 64.833 8.66699 86.5 26s32.5 41.666 32.5 72.999c0 34.667 -11.333 60.334 -34 77.001c-18.667 13.333 -44 20 -76 20l-83 -4l-2 -92c0 -23.333 0.333008 -43.166 1 -59.499s1.66699 -29.166 3 -38.499
zM77.001 429.998c-8 0 -15.5 -0.666016 -22.5 -1.99902s-21.833 -4.33301 -44.5 -9c1.33301 6 2 14.333 2 25c0 11.333 -0.666992 21 -2 29c30 -2.66699 58 -4 84 -4l67 4c0 -24 -1.16699 -57 -3.5 -99s-3.5 -71.333 -3.5 -88l1 -18h107c52 0 92 -9.33301 120 -28
c32.667 -21.333 49 -54.333 49 -99c0 -26.667 -7.83301 -50.834 -23.5 -72.501s-36.834 -38.834 -63.501 -51.501c-12 -5.33301 -26.167 -9.5 -42.5 -12.5s-32.166 -4.5 -47.499 -4.5l-109 2l-72 -2c0 26.667 1.33301 66.334 4 119.001s4 92.334 4 119.001
c0 22 -0.666992 58.667 -2 110s-2 78.666 -2 81.999z" />
    <glyph glyph-name="uacute" unicode="&#x44a;" horiz-adv-x="463" 
d="M157 38c7.33301 0 18.667 -0.334961 34 -1.00195s28 -1 38 -1c36 0 64.833 8.66699 86.5 26s32.5 41.666 32.5 72.999c0 34.667 -11.333 60.334 -34 77.001c-18.667 13.333 -44 20 -76 20l-83 -4l-2 -92c0 -23.333 0.333008 -43.166 1 -59.499s1.66699 -29.166 3 -38.499
zM77.001 429.998c-8 0 -15.5 -0.666016 -22.5 -1.99902s-21.833 -4.33301 -44.5 -9c1.33301 6 2 14.333 2 25c0 11.333 -0.666992 21 -2 29c30 -2.66699 58 -4 84 -4l67 4c0 -24 -1.16699 -57 -3.5 -99s-3.5 -71.333 -3.5 -88l1 -18h107c52 0 92 -9.33301 120 -28
c32.667 -21.333 49 -54.333 49 -99c0 -26.667 -7.83301 -50.834 -23.5 -72.501s-36.834 -38.834 -63.501 -51.501c-12 -5.33301 -26.167 -9.5 -42.5 -12.5s-32.166 -4.5 -47.499 -4.5l-109 2l-72 -2c0 26.667 1.33301 66.334 4 119.001s4 92.334 4 119.001
c0 22 -0.666992 58.667 -2 110s-2 78.666 -2 81.999z" />
    <glyph glyph-name="ucircumflex" unicode="&#xfb;" horiz-adv-x="648" 
d="M486 466l-1.00391 7c4.66699 -0.666992 11.834 -1.33398 21.501 -2.00098s18.834 -1 27.501 -1h24c6.66699 1.33301 11.334 2.33301 14.001 3c0 -38.667 -0.666992 -75.334 -2 -110.001s-2.66602 -76.667 -3.99902 -126c0 -32.667 0.833008 -76.167 2.5 -130.5
s2.5 -86.5 2.5 -96.5l1 -10l-44 3h-21c-6.66699 0 -14 -1 -22 -3c0 26.667 1 66.334 3 119.001s3 92.334 3 119.001c0 32.667 -0.833008 76.167 -2.5 130.5s-2.5 86.833 -2.5 97.5zM156.996 38c13.333 0 27.667 -0.334961 43 -1.00195s25 -1 29 -1
c36 0 64.833 8.66699 86.5 26s32.5 41.666 32.5 72.999c0 34.667 -11.333 60.334 -34 77.001c-18.667 13.333 -44 20 -76 20l-83 -4l-2 -92c0 -23.333 0.333008 -43.166 1 -59.499s1.66699 -29.166 3 -38.499zM72.9971 -0.00195312c0 26.667 1.33203 66.335 3.99902 119.002
s4 92.334 4 119.001c0 26 -0.666992 54.333 -2 85c-3.33301 76 -5 123.667 -5 143l-1 7c4.66699 -0.666992 11.834 -1.33398 21.501 -2.00098s18.834 -1 27.501 -1c18 0 31 1 39 3c0 -24 -1.16699 -57 -3.5 -99s-3.5 -71.333 -3.5 -88l1 -18h107c52 0 92 -9.33301 120 -28
c32.667 -21.333 49 -54.333 49 -99c0 -26.667 -7.83301 -50.834 -23.5 -72.501s-36.834 -38.834 -63.501 -51.501c-11.333 -5.33301 -25.333 -9.5 -42 -12.5s-32.667 -4.5 -48 -4.5l-109 2z" />
    <glyph glyph-name="ucircumflex" unicode="&#x44b;" horiz-adv-x="648" 
d="M486 466l-1.00391 7c4.66699 -0.666992 11.834 -1.33398 21.501 -2.00098s18.834 -1 27.501 -1h24c6.66699 1.33301 11.334 2.33301 14.001 3c0 -38.667 -0.666992 -75.334 -2 -110.001s-2.66602 -76.667 -3.99902 -126c0 -32.667 0.833008 -76.167 2.5 -130.5
s2.5 -86.5 2.5 -96.5l1 -10l-44 3h-21c-6.66699 0 -14 -1 -22 -3c0 26.667 1 66.334 3 119.001s3 92.334 3 119.001c0 32.667 -0.833008 76.167 -2.5 130.5s-2.5 86.833 -2.5 97.5zM156.996 38c13.333 0 27.667 -0.334961 43 -1.00195s25 -1 29 -1
c36 0 64.833 8.66699 86.5 26s32.5 41.666 32.5 72.999c0 34.667 -11.333 60.334 -34 77.001c-18.667 13.333 -44 20 -76 20l-83 -4l-2 -92c0 -23.333 0.333008 -43.166 1 -59.499s1.66699 -29.166 3 -38.499zM72.9971 -0.00195312c0 26.667 1.33203 66.335 3.99902 119.002
s4 92.334 4 119.001c0 26 -0.666992 54.333 -2 85c-3.33301 76 -5 123.667 -5 143l-1 7c4.66699 -0.666992 11.834 -1.33398 21.501 -2.00098s18.834 -1 27.501 -1c18 0 31 1 39 3c0 -24 -1.16699 -57 -3.5 -99s-3.5 -71.333 -3.5 -88l1 -18h107c52 0 92 -9.33301 120 -28
c32.667 -21.333 49 -54.333 49 -99c0 -26.667 -7.83301 -50.834 -23.5 -72.501s-36.834 -38.834 -63.501 -51.501c-11.333 -5.33301 -25.333 -9.5 -42 -12.5s-32.667 -4.5 -48 -4.5l-109 2z" />
    <glyph glyph-name="udieresis" unicode="&#xfc;" horiz-adv-x="463" 
d="M157 38c13.333 0 27.667 -0.334961 43 -1.00195s25 -1 29 -1c36 0 64.833 8.66699 86.5 26s32.5 41.666 32.5 72.999c0 34.667 -11.333 60.334 -34 77.001c-18.667 13.333 -44 20 -76 20l-83 -4l-2 -92c0 -23.333 0.333008 -43.166 1 -59.499s1.66699 -29.166 3 -38.499z
M73.001 -0.00195312c0 26.667 1.33203 66.335 3.99902 119.002s4 92.334 4 119.001c0 26 -0.666992 54.333 -2 85c-3.33301 76 -5 123.667 -5 143l-1 7c4.66699 -0.666992 11.834 -1.33398 21.501 -2.00098s18.834 -1 27.501 -1c18 0 31 1 39 3c0 -24 -1.16699 -57 -3.5 -99
s-3.5 -71.333 -3.5 -88l1 -18h107c52 0 92 -9.33301 120 -28c32.667 -21.333 49 -54.333 49 -99c0 -26.667 -7.83301 -50.834 -23.5 -72.501s-36.834 -38.834 -63.501 -51.501c-11.333 -5.33301 -25.333 -9.5 -42 -12.5s-32.667 -4.5 -48 -4.5l-109 2z" />
    <glyph glyph-name="udieresis" unicode="&#x44c;" horiz-adv-x="463" 
d="M157 38c13.333 0 27.667 -0.334961 43 -1.00195s25 -1 29 -1c36 0 64.833 8.66699 86.5 26s32.5 41.666 32.5 72.999c0 34.667 -11.333 60.334 -34 77.001c-18.667 13.333 -44 20 -76 20l-83 -4l-2 -92c0 -23.333 0.333008 -43.166 1 -59.499s1.66699 -29.166 3 -38.499z
M73.001 -0.00195312c0 26.667 1.33203 66.335 3.99902 119.002s4 92.334 4 119.001c0 26 -0.666992 54.333 -2 85c-3.33301 76 -5 123.667 -5 143l-1 7c4.66699 -0.666992 11.834 -1.33398 21.501 -2.00098s18.834 -1 27.501 -1c18 0 31 1 39 3c0 -24 -1.16699 -57 -3.5 -99
s-3.5 -71.333 -3.5 -88l1 -18h107c52 0 92 -9.33301 120 -28c32.667 -21.333 49 -54.333 49 -99c0 -26.667 -7.83301 -50.834 -23.5 -72.501s-36.834 -38.834 -63.501 -51.501c-11.333 -5.33301 -25.333 -9.5 -42 -12.5s-32.667 -4.5 -48 -4.5l-109 2z" />
    <glyph glyph-name="yacute" unicode="&#xfd;" horiz-adv-x="481" 
d="M445 247c0 -82 -25.666 -146.665 -76.999 -193.998c-46.667 -43.333 -104.334 -65 -173.001 -65c-59.333 0 -113.333 17.333 -162 52v44h5c21.333 -20 44.166 -34.833 68.499 -44.5s48.833 -14.5 73.5 -14.5c49.333 0 90.666 17.667 123.999 53
c36.667 38.667 55 90 55 154h-148h-33.5c-10.333 0 -24.166 -1 -41.499 -3c1.33301 5.33301 2 12.666 2 21.999c0 10 -0.666992 17.667 -2 23c26 -3.33301 51 -5 75 -5h147c0 57.333 -19 102.666 -57 135.999c-32.667 28.667 -71.667 43 -117 43
c-28.667 0 -54.667 -6.5 -78 -19.5s-40.333 -31.167 -51 -54.5h-8c-1.33301 12 -2.66602 24.833 -3.99902 38.5s-3 25.167 -5 34.5c51.333 22 103.333 33 156 33c71.333 0 130 -19.333 176 -58c50 -42 75 -100.333 75 -175z" />
    <glyph glyph-name="yacute" unicode="&#x44d;" horiz-adv-x="481" 
d="M445 247c0 -82 -25.666 -146.665 -76.999 -193.998c-46.667 -43.333 -104.334 -65 -173.001 -65c-59.333 0 -113.333 17.333 -162 52v44h5c21.333 -20 44.166 -34.833 68.499 -44.5s48.833 -14.5 73.5 -14.5c49.333 0 90.666 17.667 123.999 53
c36.667 38.667 55 90 55 154h-148h-33.5c-10.333 0 -24.166 -1 -41.499 -3c1.33301 5.33301 2 12.666 2 21.999c0 10 -0.666992 17.667 -2 23c26 -3.33301 51 -5 75 -5h147c0 57.333 -19 102.666 -57 135.999c-32.667 28.667 -71.667 43 -117 43
c-28.667 0 -54.667 -6.5 -78 -19.5s-40.333 -31.167 -51 -54.5h-8c-1.33301 12 -2.66602 24.833 -3.99902 38.5s-3 25.167 -5 34.5c51.333 22 103.333 33 156 33c71.333 0 130 -19.333 176 -58c50 -42 75 -100.333 75 -175z" />
    <glyph glyph-name="thorn" unicode="&#xfe;" horiz-adv-x="721" 
d="M312 227c0 -57.333 10.333 -103.999 31 -139.999c25.333 -43.333 63 -65 113 -65c48.667 0 86 27 112 81c20 42 30 89 30 141c0 54 -9.33301 99.333 -28 136c-24 46.667 -59.333 70 -106 70c-54 0 -94 -23.667 -120 -71c-21.333 -38.667 -32 -89.334 -32 -152.001z
M225 230.001h-72.0029c0 -24.667 1 -61.334 3 -110.001s3 -85.334 3 -110.001l1 -10l-44 3h-21c-6.66699 0 -14 -1 -22 -3c0 26.667 1.33301 66.334 4 119.001s4 92.334 4 119.001c0 26 -0.666992 54.333 -2 85c-3.33301 76 -5 123.667 -5 143l-1 7
c4.66699 -0.666992 11.834 -1.33398 21.501 -2.00098s18.834 -1 27.501 -1h24c6.66699 1.33301 11.334 2.33301 14.001 3c0 -26.667 -1.16699 -63.667 -3.5 -111s-3.5 -77.666 -3.5 -90.999h73c6 62.667 31.333 113.667 76 153s99 59 163 59
c65.333 0 118.5 -22.5 159.5 -67.5s61.5 -104.5 61.5 -178.5c0 -68 -20 -125.333 -60 -172c-44 -50.667 -103.333 -76 -178 -76c-64 0 -116.667 21.333 -158 64c-43.333 44.667 -65 103.667 -65 177z" />
    <glyph glyph-name="thorn" unicode="&#x44e;" horiz-adv-x="721" 
d="M312 227c0 -57.333 10.333 -103.999 31 -139.999c25.333 -43.333 63 -65 113 -65c48.667 0 86 27 112 81c20 42 30 89 30 141c0 54 -9.33301 99.333 -28 136c-24 46.667 -59.333 70 -106 70c-54 0 -94 -23.667 -120 -71c-21.333 -38.667 -32 -89.334 -32 -152.001z
M225 230.001h-72.0029c0 -24.667 1 -61.334 3 -110.001s3 -85.334 3 -110.001l1 -10l-44 3h-21c-6.66699 0 -14 -1 -22 -3c0 26.667 1.33301 66.334 4 119.001s4 92.334 4 119.001c0 26 -0.666992 54.333 -2 85c-3.33301 76 -5 123.667 -5 143l-1 7
c4.66699 -0.666992 11.834 -1.33398 21.501 -2.00098s18.834 -1 27.501 -1h24c6.66699 1.33301 11.334 2.33301 14.001 3c0 -26.667 -1.16699 -63.667 -3.5 -111s-3.5 -77.666 -3.5 -90.999h73c6 62.667 31.333 113.667 76 153s99 59 163 59
c65.333 0 118.5 -22.5 159.5 -67.5s61.5 -104.5 61.5 -178.5c0 -68 -20 -125.333 -60 -172c-44 -50.667 -103.333 -76 -178 -76c-64 0 -116.667 21.333 -158 64c-43.333 44.667 -65 103.667 -65 177z" />
    <glyph glyph-name="ydieresis" unicode="&#xff;" horiz-adv-x="481" 
d="M326 252c0 29.333 -0.333008 59 -1 89l-2 90c-1.33301 0 -14.333 0.666992 -39 2s-44 2 -58 2c-30 0 -53.833 -7.83301 -71.5 -23.5s-26.5 -37.167 -26.5 -64.5c0 -36 16 -61.667 48 -77c24.667 -12 58 -18 100 -18h50zM335 469l71.999 4.00098
c0 -26 -1.33301 -65.333 -4 -118s-4 -92 -4 -118s1.16699 -65.667 3.5 -119s3.5 -89.333 3.5 -108l1 -10l-44 3h-21c-6.66699 0 -14 -1 -22 -3c0 24 1 60 3 108s3 84 3 108h-49l-59 -84l-98 -132l-46 3l-58 -3l64 78c49.333 60 86.333 108 111 144c-36 6 -65.333 16 -88 30
c-38 23.333 -57 55.666 -57 96.999c0 37.333 15.333 66.833 46 88.5s74.334 32.5 131.001 32.5z" />
    <glyph glyph-name="ydieresis" unicode="&#x44f;" horiz-adv-x="481" 
d="M326 252c0 29.333 -0.333008 59 -1 89l-2 90c-1.33301 0 -14.333 0.666992 -39 2s-44 2 -58 2c-30 0 -53.833 -7.83301 -71.5 -23.5s-26.5 -37.167 -26.5 -64.5c0 -36 16 -61.667 48 -77c24.667 -12 58 -18 100 -18h50zM335 469l71.999 4.00098
c0 -26 -1.33301 -65.333 -4 -118s-4 -92 -4 -118s1.16699 -65.667 3.5 -119s3.5 -89.333 3.5 -108l1 -10l-44 3h-21c-6.66699 0 -14 -1 -22 -3c0 24 1 60 3 108s3 84 3 108h-49l-59 -84l-98 -132l-46 3l-58 -3l64 78c49.333 60 86.333 108 111 144c-36 6 -65.333 16 -88 30
c-38 23.333 -57 55.666 -57 96.999c0 37.333 15.333 66.833 46 88.5s74.334 32.5 131.001 32.5z" />
    <glyph glyph-name="OE" unicode="&#x152;" horiz-adv-x="1018" 
d="M876 193c0 54.667 -21.0029 96.001 -63.0029 124.001c-17.333 11.333 -38.166 18.666 -62.499 21.999s-51.5 5 -81.5 5h-49l2 -301c13.333 0 29.833 -0.833008 49.5 -2.5s31.834 -2.5 36.501 -2.5c25.333 0 47.5 3.16699 66.5 9.5s36.333 17.333 52 33
s27.834 33 36.501 52s13 39.167 13 60.5zM538.997 392.001l1.00195 76l-2 120l-4 97c14 -2 23 -3.16699 27 -3.5s12 -0.5 24 -0.5l47 2l-6 -116l-3 -100l-3 -86l84 1c85.333 0 150.833 -14 196.5 -42s68.5 -71.333 68.5 -130c0 -71.333 -30 -127.666 -90 -168.999
c-26 -18 -59.667 -29.667 -101 -35c-25.333 -3.33301 -62 -5 -110 -5h-112h-25c0 16.667 1.16699 39.667 3.5 69s3.5 48.666 3.5 57.999l1 219h-360l3 -217l4 -108l2 -22c-6.66699 0 -15.5 0.833008 -26.5 2.5s-17.5 2.5 -19.5 2.5c-7.33301 0 -17.333 -0.833008 -30 -2.5
s-20.334 -2.5 -23.001 -2.5l2 22l4 79l4 234v38v206l-5 106c5.33301 0 13.666 -0.666992 24.999 -2s20 -2 26 -2l46 3l-2 -27l-4 -91l-5 -174l129 -3z" />
    <glyph glyph-name="oe" unicode="&#x153;" horiz-adv-x="740" 
d="M434 38c13.333 0 27.667 -0.334961 43 -1.00195s25 -1 29 -1c36 0 64.833 8.66699 86.5 26s32.5 41.666 32.5 72.999c0 34.667 -11.333 60.334 -34 77.001c-18.667 13.333 -44 20 -76 20l-83 -4l-2 -92c0 -23.333 0.333008 -43.166 1 -59.499s1.66699 -29.166 3 -38.499z
M358.001 229.998l-102.004 3.00488l-103 -3c0 -24.667 1 -61.334 3 -110.001s3 -85.334 3 -110.001l1 -10l-44 3h-21c-6.66699 0 -14 -1 -22 -3c0 26.667 1.33301 66.334 4 119.001s4 92.334 4 119.001c0 26 -0.666992 54.333 -2 85c-3.33301 76 -5 123.667 -5 143l-1 7
c4.66699 -0.666992 11.834 -1.33398 21.501 -2.00098s18.834 -1 27.501 -1h24c6.66699 1.33301 11.334 2.33301 14.001 3c0 -26.667 -1.16699 -63.667 -3.5 -111s-3.5 -77.666 -3.5 -90.999l103 -3l102 3c0 22.667 -0.666992 47 -2 73c-3.33301 65.333 -5 106 -5 122l-1 7
c4.66699 -0.666992 11.834 -1.33398 21.501 -2.00098s18.834 -1 27.501 -1c18 0 31 1 39 3c0 -24 -1.16699 -57 -3.5 -99s-3.5 -71.333 -3.5 -88l1 -18h107c52 0 92 -9.33301 120 -28c32.667 -21.333 49 -54.333 49 -99c0 -26.667 -7.83301 -50.834 -23.5 -72.501
s-36.834 -38.834 -63.501 -51.501c-11.333 -5.33301 -25.333 -9.5 -42 -12.5s-32.667 -4.5 -48 -4.5l-109 2l-72 -2c0 25.333 1.33301 63.666 4 114.999s4 89.666 4 114.999z" />
    <glyph glyph-name="Scaron" unicode="&#x160;" horiz-adv-x="926" 
d="M529 344l1.99707 -300.999c13.333 0 29.833 -0.833008 49.5 -2.5s31.834 -2.5 36.501 -2.5c25.333 0 47.5 3.16699 66.5 9.5s36.333 17.333 52 33s27.834 33 36.501 52s13 39.167 13 60.5c0 54.667 -21 96 -63 124c-17.333 11.333 -38.166 18.666 -62.499 21.999
s-51.5 5 -81.5 5h-49zM444.997 633.001l-57.001 3l-55 -3l-29 -68l-22 -50l-50 -116l-56 -132c-21.333 -48.667 -39.666 -94.167 -54.999 -136.5s-29.666 -85.833 -42.999 -130.5c-4 1.33301 -9.66699 2 -17 2s-13.333 0.333008 -18 1l-37 -3l41 86l92 200
c40 89.333 71.667 163.333 95 222c13.333 33.333 22.666 57.333 27.999 72c16 40 29 75 39 105c22.667 0 43.5 -0.666992 62.5 -2s36.5 -2.33301 52.5 -3h19c13.333 0 29.333 0.333008 48 1s38 2 58 4l-6 -118l-3 -100l-3 -86l84 1c85.333 0 150.833 -14 196.5 -42
s68.5 -71.333 68.5 -130c0 -71.333 -30 -127.666 -90 -168.999c-26 -18 -59.667 -29.667 -101 -35c-25.333 -3.33301 -62 -5 -110 -5h-112h-25c0 16.667 1.16699 39.667 3.5 69s3.5 48.666 3.5 57.999l2 340l-2 120z" />
    <glyph glyph-name="scaron" unicode="&#x161;" horiz-adv-x="684" 
d="M377 38c13.333 0 27.667 -0.334961 43 -1.00195s25 -1 29 -1c36 0 64.833 8.66699 86.5 26s32.5 41.666 32.5 72.999c0 34.667 -11.333 60.334 -34 77.001c-18.667 13.333 -44 20 -76 20l-83 -4l-2 -92c0 -23.333 0.333008 -43.166 1 -59.499s1.66699 -29.166 3 -38.499z
M297.001 427.998l-20.999 1.99902l-24 -2l-26 -55c-11.333 -21.333 -25 -51.666 -41 -90.999l-28 -68l-48 -121.5c-15.333 -40.333 -26.666 -71.166 -33.999 -92.499l-32 3l-32 -3c10 18 29.5 58.333 58.5 121l82.5 183l41 98c13.333 33.333 22.666 57.333 27.999 72
c25.333 -2.66699 42.5 -4.16699 51.5 -4.5s19.5 -0.5 31.5 -0.5h11c23.333 0 45.333 1.33301 66 4c0 -24 -1.16699 -57 -3.5 -99s-3.5 -71.333 -3.5 -88l1 -18h107c52 0 92 -9.33301 120 -28c32.667 -21.333 49 -54.333 49 -99c0 -26.667 -7.83301 -50.834 -23.5 -72.501
s-36.834 -38.834 -63.501 -51.501c-11.333 -5.33301 -25.333 -9.5 -42 -12.5s-32.667 -4.5 -48 -4.5l-109 2l-72 -2c0 26.667 1.33301 66.334 4 119.001s4 92.334 4 119.001c0 22.667 -0.666992 59.167 -2 109.5s-2 77.166 -2 80.499z" />
    <glyph glyph-name="Ydieresis" unicode="&#x178;" 
d="M238 5l-165.004 -5.00195c0 26.667 1.33301 66.334 4 119.001s4 92.334 4 119.001c0 26 -0.666992 54.333 -2 85c-3.33301 76 -5 123.667 -5 143l-1 7c4.66699 -0.666992 11.834 -1.33398 21.501 -2.00098s18.834 -1 27.501 -1h24
c6.66699 1.33301 11.334 2.33301 14.001 3c0 -27.333 -0.666992 -56.666 -2 -87.999c-3.33301 -78.667 -5 -128 -5 -148c0 -22 0.666992 -58.667 2 -110s2 -78.333 2 -81c14 0 34.333 -0.666992 61 -2s46.667 -2 60 -2s36.166 0.666992 68.499 2s49.166 2 50.499 2
c0 30 0.833008 67.833 2.5 113.5s2.5 71.834 2.5 78.501c0 25.333 -1 63.333 -3 114s-3 88.667 -3 114l-1 7c4.66699 -0.666992 11.834 -1.33398 21.501 -2.00098s18.834 -1 27.501 -1h24c6.66699 1.33301 11.334 2.33301 14.001 3c0 -26 -1.33301 -65.333 -4 -118
s-4 -92 -4 -118c0 -25.333 0.833008 -68.833 2.5 -130.5s2.5 -97.167 2.5 -106.5c-25.333 -0 -44.333 0.333008 -57 1c-64 3.33301 -99 5 -105 5l3 -57l1 -10l-44 3h-21c-6.66699 0 -14 -1 -22 -3z" />
    <glyph glyph-name="florin" unicode="&#x192;" horiz-adv-x="407" 
d="M395 419c-34.667 4 -76.999 7.16602 -126.999 9.49902s-87.667 3.5 -113 3.5c0 -22 -0.333008 -54.333 -1 -97s-1 -75.334 -1 -98.001c0 -25.333 1 -63.333 3 -114s3 -88.334 3 -113.001l1 -10l-44 3h-21c-6.66699 0 -14 -1 -22 -3c0 26.667 1.33301 66.334 4 119.001
s4 92.334 4 119.001c0 26 -0.666992 54.333 -2 85c-3.33301 76 -5 123.667 -5 143l-1 7c11.333 -1.33301 25.166 -2.83301 41.499 -4.5s26.833 -2.5 31.5 -2.5l131.5 5c36.333 1.33301 75.5 2 117.5 2c-0.666992 -5.33301 -1 -10.666 -1 -15.999v-12
c0 -11.333 0.333008 -20 1 -26zM321.001 629.999l-157 -98h-34l125 125l25 25l27 18c8 2 16 1 24 -3s13.167 -9 15.5 -15s3.5 -12 3.5 -18c0 -5.33301 -1.33301 -9.33301 -4 -12c-2 -4.66699 -6 -9 -12 -13s-10.333 -7 -13 -9z" />
    <glyph glyph-name="endash" unicode="&#x2013;" horiz-adv-x="500" 
d="M500 197h-500v48h500v-48z" />
    <glyph glyph-name="emdash" unicode="&#x2014;" horiz-adv-x="1000" 
d="M0 197v48h1000v-48h-1000z" />
    <glyph glyph-name="quoteleft" unicode="&#x2018;" horiz-adv-x="278" 
d="M211 696l17 -6.99902l-70 -224l-11 -30c-6 -9.33301 -11.5 -16 -16.5 -20s-12.5 -6 -22.5 -6c-10.667 0 -19.5 3.5 -26.5 10.5s-10.5 15.833 -10.5 26.5c0 8.66699 2.33301 17.667 7 27c7.33301 11.333 12.333 19.666 15 24.999z" />
    <glyph glyph-name="quoteright" unicode="&#x2019;" horiz-adv-x="278" 
d="M69 424l-17 7.00098l70 224c8 24 15.167 39.333 21.5 46s15.166 10 26.499 10c10.667 0 19.834 -3.5 27.501 -10.5s11.5 -15.833 11.5 -26.5c0 -7.33301 -1 -13.333 -3 -18s-8.33301 -16.334 -19 -35.001z" />
    <glyph glyph-name="quotesinglbase" unicode="&#x201a;" horiz-adv-x="278" 
d="M69 -162l-17.001 6.99805l70 222c2.66699 8.66699 5.83398 17.667 9.50098 27s9.16699 17 16.5 23c7.33301 4.66699 15 7 23 7c10.667 0 19.667 -3.66699 27 -11s11 -16.666 11 -27.999c0 -7.33301 -1.33301 -13.666 -4 -18.999l-18 -32z" />
    <glyph glyph-name="quotedblleft" unicode="&#x201c;" horiz-adv-x="444" 
d="M372 698l17 -6.99902l-70 -224c-6.66699 -18.667 -12 -31 -16 -37c-8 -12.667 -19.333 -19 -34 -19c-22.667 0 -35.334 12.333 -38.001 37c0.666992 9.33301 3.33398 18.666 8.00098 27.999c1.33301 2.66699 6.33301 11 15 25zM201 699.001l18 -7l-70 -224
c-6.66699 -19.333 -12 -32 -16 -38c-8 -12 -19.667 -18 -35 -18c-10 0 -18.333 3.66699 -25 11s-10.667 16 -12 26c0 7.33301 1 13.5 3 18.5s8.66699 16.5 20 34.5z" />
    <glyph glyph-name="quotedblright" unicode="&#x201d;" horiz-adv-x="444" 
d="M71 425l-18 7l70 224c5.33301 16.667 10.333 28.667 15 36c8 13.333 18.333 20 31 20c24 0 38 -12.333 42 -37c0 -7.33301 -1 -13.5 -3 -18.5s-8.66699 -16.5 -20 -34.5zM241 424l-17.999 7l70 224c5.33301 16.667 10.333 28.667 15 36c8 13.333 18.333 20 31 20
c11.333 0 21.166 -3.5 29.499 -10.5s12.5 -15.833 12.5 -26.5c0 -6.66699 -2.16699 -14.5 -6.5 -23.5s-9.5 -18.833 -15.5 -29.5z" />
    <glyph glyph-name="quotedblbase" unicode="&#x201e;" horiz-adv-x="444" 
d="M67 -162l-17.001 6.99805l70 222c2.66699 8.66699 5.83398 17.667 9.50098 27s9.16699 17 16.5 23c7.33301 4.66699 15 7 23 7c10.667 0 19.667 -3.66699 27 -11s11 -16.666 11 -27.999c0 -7.33301 -1.33301 -13.666 -4 -18.999l-18 -32zM236.999 -163.002
l-16.999 7.00098l70 222c5.33301 16.667 10.333 28.667 15 36c8.66699 14 18.667 21 30 21s21.166 -3.5 29.499 -10.5s12.5 -15.833 12.5 -26.5c0 -7.33301 -1 -13.333 -3 -18s-8.33301 -16.334 -19 -35.001z" />
    <glyph glyph-name="dagger" unicode="&#x2020;" horiz-adv-x="500" 
d="M284 282l4 -196.999l4 -83v-7l-28 3h-23l-22 -1l-10 -2c1.33301 5.33301 2 13.666 2 24.999l5 288l-2 87l-75 -1c-10 0 -25.667 -1 -47 -3s-37.333 -3 -48 -3c-2 0 -2.83301 1.66699 -2.5 5s0.833008 7 1.5 11s1 10.333 1 19c0 6.66699 -0.166992 12.667 -0.5 18
s-0.833008 10 -1.5 14c11.333 0 28 -0.666992 50 -2s38.667 -2 50 -2h72v101c0 14 -1 34.667 -3 62s-3 48 -3 62l-1 7l43 -2l37 2l-1 -28l-4 -204l175 8v-48v-21l-106 5h-69z" />
    <glyph glyph-name="daggerdbl" unicode="&#x2021;" horiz-adv-x="500" 
d="M358 439h-74.001v-23l-2 -92l2 -74v-8l97 1c12 0 21.667 0.333008 29 1c30 2.66699 46.333 4 49 4v-52v-18l-126 6l-48 1v-66l1 -125c-7.33301 1.33301 -14.333 2.33301 -21 3s-14 1 -22 1c-4 0 -10.667 -0.666992 -20 -2l-15 -2l4 33l3 81v76h-100l-73 -3
c0.666992 6.66699 1.16699 13.167 1.5 19.5s0.5 13.833 0.5 22.5c0 6 -0.666992 14.333 -2 25c18.667 0 42.334 -0.833008 71.001 -2.5s45 -2.5 49 -2.5h54c0.666992 6.66699 1.16699 14 1.5 22s0.5 14 0.5 18v49v62v24c0 10 -0.666992 17.667 -2 23
c-10.667 0 -27 -0.333008 -49 -1s-38.333 -1 -49 -1l-76 -4c1.33301 6.66699 2 15.167 2 25.5v23.5l-1 19l93 -4h80l-1 113l-3 73c6 -1.33301 12 -2.33301 18 -3s13 -1 21 -1c6.66699 0 14.167 0.5 22.5 1.5s14.833 1.83301 19.5 2.5l-2 -27l-3 -68l-3 -81v-11l87 1
c10 0 27 0.666992 51 2s36.667 2 38 2v-51v-18c-15.333 0 -28 0.333008 -38 1c-39.333 2.66699 -61 4 -65 4z" />
    <glyph glyph-name="bullet" unicode="&#x2022;" horiz-adv-x="606" 
d="M305 511c47.333 0 87.166 -16.5 119.499 -49.5s48.5 -73.167 48.5 -120.5s-16.167 -87.5 -48.5 -120.5s-72.166 -49.5 -119.499 -49.5s-87.833 16.5 -121.5 49.5s-50.5 73.167 -50.5 120.5s16.833 87.5 50.5 120.5s74.167 49.5 121.5 49.5z" />
    </font>
</defs>
</svg>
